  0
SECTION
  2
BLOCKS
  0
ENDSEC
  0
SECTION
  2
ENTITIES
  0
LINE
  8
0
 10
0
 20
0
 11
5
 21
0
  0
LINE
  8
0
 10
5
 20
0
 11
5
 21
-5
  0
LINE
  8
0
 10
5
 20
-5
 11
4.5
 21
-5
  0
LINE
  8
0
 10
4.5
 20
-5
 11
5
 21
-6
  0
LINE
  8
0
 10
5
 20
-6
 11
15
 21
-6
  0
LINE
  8
0
 10
15
 20
-6
 11
15.5
 21
-5
  0
LINE
  8
0
 10
15.5
 20
-5
 11
15
 21
-5
  0
LINE
  8
0
 10
15
 20
-5
 11
15
 21
0
  0
LINE
  8
0
 10
15
 20
0
 11
65.5
 21
0
  0
LINE
  8
0
 10
65.5
 20
0
 11
65.5
 21
-5
  0
LINE
  8
0
 10
65.5
 20
-5
 11
65
 21
-5
  0
LINE
  8
0
 10
65
 20
-5
 11
65.5
 21
-6
  0
LINE
  8
0
 10
65.5
 20
-6
 11
75.5
 21
-6
  0
LINE
  8
0
 10
75.5
 20
-6
 11
76
 21
-5
  0
LINE
  8
0
 10
76
 20
-5
 11
75.5
 21
-5
  0
LINE
  8
0
 10
75.5
 20
-5
 11
75.5
 21
0
  0
LINE
  8
0
 10
75.5
 20
0
 11
80.5
 21
0
  0
LINE
  8
0
 10
80.5
 20
0
 11
80.5
 21
63.5
  0
LINE
  8
0
 10
80.5
 20
63.5
 11
75.5
 21
63.5
  0
LINE
  8
0
 10
75.5
 20
63.5
 11
75.5
 21
68.5
  0
LINE
  8
0
 10
75.5
 20
68.5
 11
76
 21
68.5
  0
LINE
  8
0
 10
76
 20
68.5
 11
75.5
 21
69.5
  0
LINE
  8
0
 10
75.5
 20
69.5
 11
65.5
 21
69.5
  0
LINE
  8
0
 10
65.5
 20
69.5
 11
65
 21
68.5
  0
LINE
  8
0
 10
65
 20
68.5
 11
65.5
 21
68.5
  0
LINE
  8
0
 10
65.5
 20
68.5
 11
65.5
 21
63.5
  0
LINE
  8
0
 10
65.5
 20
63.5
 11
15
 21
63.5
  0
LINE
  8
0
 10
15
 20
63.5
 11
15
 21
68.5
  0
LINE
  8
0
 10
15
 20
68.5
 11
15.5
 21
68.5
  0
LINE
  8
0
 10
15.5
 20
68.5
 11
15
 21
69.5
  0
LINE
  8
0
 10
15
 20
69.5
 11
5
 21
69.5
  0
LINE
  8
0
 10
5
 20
69.5
 11
4.5
 21
68.5
  0
LINE
  8
0
 10
4.5
 20
68.5
 11
5
 21
68.5
  0
LINE
  8
0
 10
5
 20
68.5
 11
5
 21
63.5
  0
LINE
  8
0
 10
5
 20
63.5
 11
0
 21
63.5
  0
LINE
  8
0
 10
0
 20
63.5
 11
0
 21
0
  0
LINE
  8
0
 10
13.2899
 20
22.1887
 11
13.2899
 21
23.5112
  0
LINE
  8
0
 10
13.2899
 20
23.5112
 11
14.5476
 21
23.9199
  0
LINE
  8
0
 10
14.5476
 20
23.9199
 11
15.325
 21
22.85
  0
LINE
  8
0
 10
15.325
 20
22.85
 11
14.5476
 21
21.78
  0
LINE
  8
0
 10
14.5476
 20
21.78
 11
13.2899
 21
22.1887
  0
LINE
  8
0
 10
13.2899
 20
50.0887
 11
13.2899
 21
51.4112
  0
LINE
  8
0
 10
13.2899
 20
51.4112
 11
14.5476
 21
51.8199
  0
LINE
  8
0
 10
14.5476
 20
51.8199
 11
15.325
 21
50.75
  0
LINE
  8
0
 10
15.325
 20
50.75
 11
14.5476
 21
49.6801
  0
LINE
  8
0
 10
14.5476
 20
49.6801
 11
13.2899
 21
50.0887
  0
LINE
  8
0
 10
64.0898
 20
6.98874
 11
64.0898
 21
8.31125
  0
LINE
  8
0
 10
64.0898
 20
8.31125
 11
65.3476
 21
8.71992
  0
LINE
  8
0
 10
65.3476
 20
8.71992
 11
66.125
 21
7.64999
  0
LINE
  8
0
 10
66.125
 20
7.64999
 11
65.3476
 21
6.58006
  0
LINE
  8
0
 10
65.3476
 20
6.58006
 11
64.0898
 21
6.98874
  0
LINE
  8
0
 10
65.3898
 20
55.1887
 11
65.3898
 21
56.5112
  0
LINE
  8
0
 10
65.3898
 20
56.5112
 11
66.6476
 21
56.9199
  0
LINE
  8
0
 10
66.6476
 20
56.9199
 11
67.425
 21
55.85
  0
LINE
  8
0
 10
67.425
 20
55.85
 11
66.6476
 21
54.78
  0
LINE
  8
0
 10
66.6476
 20
54.78
 11
65.3898
 21
55.1887
  0
ENDSEC
  0
SECTION
  2
OBJECTS
  0
DICTIONARY
  0
ENDSEC
  0
EOF
