  0
SECTION
  2
BLOCKS
  0
ENDSEC
  0
SECTION
  2
ENTITIES
  0
LINE
  8
0
 10
-11.6102
 20
24.5005
 11
-10.7122
 21
23.8344
  0
LINE
  8
0
 10
-10.7122
 20
23.8344
 11
-10.6254
 21
24.3268
  0
LINE
  8
0
 10
-10.6254
 20
24.3268
 11
-5.78705
 21
23.4737
  0
LINE
  8
0
 10
-5.78705
 20
23.4737
 11
-9.8632
 21
0
  0
LINE
  8
0
 10
-9.8632
 20
0
 11
80.5
 21
0
  0
LINE
  8
0
 10
80.5
 20
0
 11
80.5
 21
56.8
  0
LINE
  8
0
 10
80.5
 20
56.8
 11
0
 21
56.8
  0
LINE
  8
0
 10
0
 20
56.8
 11
-4.07616
 21
33.3263
  0
LINE
  8
0
 10
-4.07616
 20
33.3263
 11
-8.88892
 21
34.1749
  0
LINE
  8
0
 10
-8.88892
 20
34.1749
 11
-8.80209
 21
34.6673
  0
LINE
  8
0
 10
-8.80209
 20
34.6673
 11
-9.87372
 21
34.3486
  0
LINE
  8
0
 10
-9.87372
 20
34.3486
 11
-11.6102
 21
24.5005
  0
LINE
  8
0
 10
-3.17673
 20
4.95
 11
-3.17673
 21
10.05
  0
LINE
  8
0
 10
-3.17673
 20
10.05
 11
6.92326
 21
10.05
  0
LINE
  8
0
 10
6.92326
 20
10.05
 11
6.92326
 21
4.95
  0
LINE
  8
0
 10
6.92326
 20
4.95
 11
-3.17673
 21
4.95
  0
LINE
  8
0
 10
4.95
 20
46.75
 11
4.95
 21
51.85
  0
LINE
  8
0
 10
4.95
 20
51.85
 11
15.05
 21
51.85
  0
LINE
  8
0
 10
15.05
 20
51.85
 11
15.05
 21
46.75
  0
LINE
  8
0
 10
15.05
 20
46.75
 11
4.95
 21
46.75
  0
LINE
  8
0
 10
13.2899
 20
14.7387
 11
13.2899
 21
16.0612
  0
LINE
  8
0
 10
13.2899
 20
16.0612
 11
14.5477
 21
16.4699
  0
LINE
  8
0
 10
14.5477
 20
16.4699
 11
15.325
 21
15.4
  0
LINE
  8
0
 10
15.325
 20
15.4
 11
14.5477
 21
14.33
  0
LINE
  8
0
 10
14.5477
 20
14.33
 11
13.2899
 21
14.7387
  0
LINE
  8
0
 10
13.2899
 20
24.7387
 11
13.2899
 21
26.0612
  0
LINE
  8
0
 10
13.2899
 20
26.0612
 11
14.5477
 21
26.4699
  0
LINE
  8
0
 10
14.5477
 20
26.4699
 11
15.325
 21
25.4
  0
LINE
  8
0
 10
15.325
 20
25.4
 11
14.5477
 21
24.33
  0
LINE
  8
0
 10
14.5477
 20
24.33
 11
13.2899
 21
24.7387
  0
LINE
  8
0
 10
18.7
 20
10
 11
18.7
 21
30.8
  0
LINE
  8
0
 10
18.7
 20
30.8
 11
60.5
 21
30.8
  0
LINE
  8
0
 10
60.5
 20
30.8
 11
60.5
 21
23.4
  0
LINE
  8
0
 10
60.5
 20
23.4
 11
62.5
 21
23.4
  0
LINE
  8
0
 10
62.5
 20
23.4
 11
63.927
 21
23.2532
  0
LINE
  8
0
 10
63.927
 20
23.2532
 11
65.427
 21
22.1633
  0
LINE
  8
0
 10
65.427
 20
22.1633
 11
66
 21
20.4
  0
LINE
  8
0
 10
66
 20
20.4
 11
65.427
 21
18.6366
  0
LINE
  8
0
 10
65.427
 20
18.6366
 11
63.927
 21
17.5468
  0
LINE
  8
0
 10
63.927
 20
17.5468
 11
62.5
 21
17.4
  0
LINE
  8
0
 10
62.5
 20
17.4
 11
60.5
 21
17.4
  0
LINE
  8
0
 10
60.5
 20
17.4
 11
60.5
 21
10
  0
LINE
  8
0
 10
60.5
 20
10
 11
18.7
 21
10
  0
LINE
  8
0
 10
64.0898
 20
14.7387
 11
64.0898
 21
16.0612
  0
LINE
  8
0
 10
64.0898
 20
16.0612
 11
65.3476
 21
16.4699
  0
LINE
  8
0
 10
65.3476
 20
16.4699
 11
66.125
 21
15.4
  0
LINE
  8
0
 10
66.125
 20
15.4
 11
65.3476
 21
14.33
  0
LINE
  8
0
 10
65.3476
 20
14.33
 11
64.0898
 21
14.7387
  0
LINE
  8
0
 10
64.0898
 20
24.7387
 11
64.0898
 21
26.0612
  0
LINE
  8
0
 10
64.0898
 20
26.0612
 11
65.3476
 21
26.4699
  0
LINE
  8
0
 10
65.3476
 20
26.4699
 11
66.125
 21
25.4
  0
LINE
  8
0
 10
66.125
 20
25.4
 11
65.3476
 21
24.33
  0
LINE
  8
0
 10
65.3476
 20
24.33
 11
64.0898
 21
24.7387
  0
LINE
  8
0
 10
65.45
 20
4.95
 11
65.45
 21
10.05
  0
LINE
  8
0
 10
65.45
 20
10.05
 11
75.55
 21
10.05
  0
LINE
  8
0
 10
75.55
 20
10.05
 11
75.55
 21
4.95
  0
LINE
  8
0
 10
75.55
 20
4.95
 11
65.45
 21
4.95
  0
LINE
  8
0
 10
65.45
 20
46.75
 11
65.45
 21
51.85
  0
LINE
  8
0
 10
65.45
 20
51.85
 11
75.55
 21
51.85
  0
LINE
  8
0
 10
75.55
 20
51.85
 11
75.55
 21
46.75
  0
LINE
  8
0
 10
75.55
 20
46.75
 11
65.45
 21
46.75
  0
ENDSEC
  0
SECTION
  2
OBJECTS
  0
DICTIONARY
  0
ENDSEC
  0
EOF
