<?xml version="1.0" standalone="no"?>
<!DOCTYPE svg PUBLIC "-//W3C//DTD SVG 1.1//EN" "http://www.w3.org/Graphics/SVG/1.1/DTD/svg11.dtd">
<svg width="186" height="226" viewBox="-91 -117 186 226" xmlns="http://www.w3.org/2000/svg" version="1.1">
<title>OpenSCAD Model</title>
<path d="
M -90.4327,17 L -85.4327,17 L -85.4327,22 L -85.9327,22 L -85.4327,23 L -75.4327,23
 L -74.9327,22 L -75.4327,22 L -75.4327,17 L -24.9327,17 L -24.9327,22 L -25.4327,22
 L -24.9327,23 L -14.9327,23 L -14.4327,22 L -14.9327,22 L -14.9327,17 L -9.93268,17
 L -9.93268,-46.5 L -14.9327,-46.5 L -14.9327,-51.5 L -14.4327,-51.5 L -14.9327,-52.5 L -24.9327,-52.5
 L -25.4327,-51.5 L -24.9327,-51.5 L -24.9327,-46.5 L -75.4327,-46.5 L -75.4327,-51.5 L -74.9327,-51.5
 L -75.4327,-52.5 L -85.4327,-52.5 L -85.9327,-51.5 L -85.4327,-51.5 L -85.4327,-46.5 L -90.4327,-46.5
 z
M -77.3577,-5.84999 L -77.3488,-5.99098 L -77.3223,-6.12976 L -77.2787,-6.26413 L -77.2185,-6.39195 L -77.1428,-6.51125
 L -77.0528,-6.6201 L -76.9498,-6.71681 L -76.8355,-6.79985 L -76.7117,-6.86792 L -76.5803,-6.91992 L -76.4435,-6.95506
 L -76.3033,-6.97276 L -76.162,-6.97276 L -76.0219,-6.95506 L -75.885,-6.91992 L -75.7537,-6.86792 L -75.6299,-6.79985
 L -75.5156,-6.71681 L -75.4126,-6.6201 L -75.3225,-6.51125 L -75.2468,-6.39195 L -75.1867,-6.26413 L -75.143,-6.12976
 L -75.1166,-5.99098 L -75.1077,-5.84999 L -75.1166,-5.70898 L -75.143,-5.57021 L -75.1867,-5.43585 L -75.2468,-5.30801
 L -75.3225,-5.18872 L -75.4126,-5.07986 L -75.5156,-4.98315 L -75.6299,-4.90012 L -75.7537,-4.83206 L -75.885,-4.78004
 L -76.0219,-4.74492 L -76.162,-4.7272 L -76.3033,-4.7272 L -76.4435,-4.74492 L -76.5803,-4.78004 L -76.7117,-4.83206
 L -76.8355,-4.90012 L -76.9498,-4.98315 L -77.0528,-5.07986 L -77.1428,-5.18872 L -77.2185,-5.30801 L -77.2787,-5.43585
 L -77.3223,-5.57021 L -77.3488,-5.70898 z
M -77.3577,-33.75 L -77.3488,-33.891 L -77.3223,-34.0298 L -77.2787,-34.1641 L -77.2185,-34.292 L -77.1428,-34.4112
 L -77.0528,-34.5201 L -76.9498,-34.6168 L -76.8355,-34.6999 L -76.7117,-34.7679 L -76.5803,-34.8199 L -76.4435,-34.8551
 L -76.3033,-34.8728 L -76.162,-34.8728 L -76.0219,-34.8551 L -75.885,-34.8199 L -75.7537,-34.7679 L -75.6299,-34.6999
 L -75.5156,-34.6168 L -75.4126,-34.5201 L -75.3225,-34.4112 L -75.2468,-34.292 L -75.1867,-34.1641 L -75.143,-34.0298
 L -75.1166,-33.891 L -75.1077,-33.75 L -75.1166,-33.609 L -75.143,-33.4702 L -75.1867,-33.3358 L -75.2468,-33.208
 L -75.3225,-33.0887 L -75.4126,-32.9799 L -75.5156,-32.8832 L -75.6299,-32.8001 L -75.7537,-32.7321 L -75.885,-32.6801
 L -76.0219,-32.6449 L -76.162,-32.6272 L -76.3033,-32.6272 L -76.4435,-32.6449 L -76.5803,-32.6801 L -76.7117,-32.7321
 L -76.8355,-32.8001 L -76.9498,-32.8832 L -77.0528,-32.9799 L -77.1428,-33.0887 L -77.2185,-33.208 L -77.2787,-33.3358
 L -77.3223,-33.4702 L -77.3488,-33.609 z
M -26.5577,9.35001 L -26.5488,9.20901 L -26.5223,9.07024 L -26.4787,8.93587 L -26.4185,8.80804 L -26.3428,8.68875
 L -26.2528,8.5799 L -26.1498,8.48318 L -26.0355,8.40015 L -25.9117,8.33208 L -25.7803,8.28008 L -25.6435,8.24493
 L -25.5033,8.22723 L -25.362,8.22723 L -25.2219,8.24493 L -25.085,8.28008 L -24.9537,8.33208 L -24.8299,8.40015
 L -24.7156,8.48318 L -24.6126,8.5799 L -24.5225,8.68875 L -24.4468,8.80804 L -24.3867,8.93587 L -24.343,9.07024
 L -24.3166,9.20901 L -24.3077,9.35001 L -24.3166,9.491 L -24.343,9.62978 L -24.3867,9.76414 L -24.4468,9.89197
 L -24.5225,10.0113 L -24.6126,10.1201 L -24.7156,10.2168 L -24.8299,10.2999 L -24.9537,10.3679 L -25.085,10.4199
 L -25.2219,10.4551 L -25.362,10.4728 L -25.5033,10.4728 L -25.6435,10.4551 L -25.7803,10.4199 L -25.9117,10.3679
 L -26.0355,10.2999 L -26.1498,10.2168 L -26.2528,10.1201 L -26.3428,10.0113 L -26.4185,9.89197 L -26.4787,9.76414
 L -26.5223,9.62978 L -26.5488,9.491 z
M -25.2577,-38.85 L -25.2488,-38.991 L -25.2223,-39.1298 L -25.1787,-39.2641 L -25.1185,-39.392 L -25.0428,-39.5112
 L -24.9528,-39.6201 L -24.8498,-39.7168 L -24.7355,-39.7999 L -24.6117,-39.8679 L -24.4803,-39.9199 L -24.3435,-39.9551
 L -24.2033,-39.9728 L -24.062,-39.9728 L -23.9219,-39.9551 L -23.785,-39.9199 L -23.6537,-39.8679 L -23.5299,-39.7999
 L -23.4156,-39.7168 L -23.3126,-39.6201 L -23.2225,-39.5112 L -23.1468,-39.392 L -23.0867,-39.2641 L -23.043,-39.1298
 L -23.0166,-38.991 L -23.0077,-38.85 L -23.0166,-38.709 L -23.043,-38.5702 L -23.0867,-38.4359 L -23.1468,-38.308
 L -23.2225,-38.1887 L -23.3126,-38.0799 L -23.4156,-37.9832 L -23.5299,-37.9001 L -23.6537,-37.8321 L -23.785,-37.78
 L -23.9219,-37.7449 L -24.062,-37.7272 L -24.2033,-37.7272 L -24.3435,-37.7449 L -24.4803,-37.78 L -24.6117,-37.8321
 L -24.7355,-37.9001 L -24.8498,-37.9832 L -24.9528,-38.0799 L -25.0428,-38.1887 L -25.1185,-38.308 L -25.1787,-38.4359
 L -25.2223,-38.5702 L -25.2488,-38.709 z
M -89.5644,96.5 L -83.6962,96.5 L -83.6962,101.5 L -84.1962,101.5 L -83.6962,102.5 L -73.6962,102.5
 L -73.1962,101.5 L -73.6962,101.5 L -73.6962,96.5 L -15,96.5 L -15,101.5 L -15.5,101.5
 L -15,102.5 L -5.00001,102.5 L -4.50001,101.5 L -5.00001,101.5 L -5.00001,96.5 L -1.14441e-05,96.5
 L -1.14441e-05,33 L -5.00001,33 L -5.00001,28 L -4.50001,28 L -5.00001,27 L -15,27
 L -15.5,28 L -15,28 L -15,33 L -73.6962,33 L -73.6962,28 L -73.1962,28
 L -73.6962,27 L -83.6962,27 L -84.1962,28 L -83.6962,28 L -83.6962,33 L -89.5644,33
 z
M -78.6894,71.481 L -78.6806,71.34 L -78.6541,71.2012 L -78.6104,71.0669 L -78.5503,70.939 L -78.4746,70.8197
 L -78.3845,70.7109 L -78.2815,70.6142 L -78.1672,70.5311 L -78.0434,70.4631 L -77.9121,70.4111 L -77.7752,70.3759
 L -77.6351,70.3582 L -77.4938,70.3582 L -77.3536,70.3759 L -77.2168,70.4111 L -77.0854,70.4631 L -76.9616,70.5311
 L -76.8473,70.6142 L -76.7444,70.7109 L -76.6543,70.8197 L -76.5786,70.939 L -76.5184,71.0669 L -76.4748,71.2012
 L -76.4483,71.34 L -76.4394,71.481 L -76.4483,71.622 L -76.4748,71.7608 L -76.5184,71.8951 L -76.5786,72.023
 L -76.6543,72.1423 L -76.7444,72.2511 L -76.8473,72.3478 L -76.9616,72.4309 L -77.0854,72.4989 L -77.2168,72.5509
 L -77.3536,72.5861 L -77.4938,72.6038 L -77.6351,72.6038 L -77.7752,72.5861 L -77.9121,72.5509 L -78.0434,72.4989
 L -78.1672,72.4309 L -78.2815,72.3478 L -78.3845,72.2511 L -78.4746,72.1423 L -78.5503,72.023 L -78.6104,71.8951
 L -78.6541,71.7608 L -78.6806,71.622 z
M -78.6894,58.019 L -78.6806,57.878 L -78.6541,57.7392 L -78.6104,57.6049 L -78.5503,57.477 L -78.4746,57.3577
 L -78.3845,57.2489 L -78.2815,57.1522 L -78.1672,57.0691 L -78.0434,57.0011 L -77.9121,56.9491 L -77.7752,56.9139
 L -77.6351,56.8962 L -77.4938,56.8962 L -77.3536,56.9139 L -77.2168,56.9491 L -77.0854,57.0011 L -76.9616,57.0691
 L -76.8473,57.1522 L -76.7444,57.2489 L -76.6543,57.3577 L -76.5786,57.477 L -76.5184,57.6049 L -76.4748,57.7392
 L -76.4483,57.878 L -76.4394,58.019 L -76.4483,58.16 L -76.4748,58.2988 L -76.5184,58.4332 L -76.5786,58.561
 L -76.6543,58.6803 L -76.7444,58.7891 L -76.8473,58.8858 L -76.9616,58.9689 L -77.0854,59.0369 L -77.2168,59.0889
 L -77.3536,59.1241 L -77.4938,59.1418 L -77.6351,59.1418 L -77.7752,59.1241 L -77.9121,59.0889 L -78.0434,59.0369
 L -78.1672,58.9689 L -78.2815,58.8858 L -78.3845,58.7891 L -78.4746,58.6803 L -78.5503,58.561 L -78.6104,58.4332
 L -78.6541,58.2988 L -78.6806,58.16 z
M -64.7,88.4 L -64.7,83.4 L -62.2,83.4 L -62.2,88.4 z
M -64.7,46.1 L -64.7,41.1 L -62.2,41.1 L -62.2,46.1 z
M -20,88.4 L -20,83.4 L -17.5,83.4 L -17.5,88.4 z
M -20,46.1 L -20,41.1 L -17.5,41.1 L -17.5,46.1 z
M -60,-83.5 L -59.7634,-79.74 L -59.0575,-76.0393 L -57.8933,-72.4563 L -56.2892,-69.0474 L -54.2705,-65.8664
 L -51.8691,-62.9636 L -49.1227,-60.3846 L -46.0748,-58.1702 L -42.7734,-56.3552 L -39.2705,-54.9683 L -35.6214,-54.0314
 L -31.8837,-53.5592 L -28.1163,-53.5592 L -24.3786,-54.0314 L -20.7295,-54.9683 L -17.2266,-56.3552 L -13.9252,-58.1702
 L -10.8773,-60.3846 L -8.13094,-62.9636 L -5.72949,-65.8664 L -3.7108,-69.0474 L -2.10671,-72.4563 L -0.942506,-76.0393
 L -0.23656,-79.74 L 0,-83.5 L -0.23656,-87.26 L -0.942506,-90.9607 L -2.10671,-94.5437 L -3.7108,-97.9526
 L -5.72949,-101.134 L -8.13094,-104.036 L -10.8773,-106.615 L -13.9252,-108.83 L -17.2266,-110.645 L -20.7295,-112.032
 L -24.3786,-112.969 L -28.1163,-113.441 L -31.8837,-113.441 L -35.6214,-112.969 L -39.2705,-112.032 L -42.7734,-110.645
 L -46.0748,-108.83 L -49.1227,-106.615 L -51.8691,-104.036 L -54.2705,-101.134 L -56.2892,-97.9526 L -57.8933,-94.5437
 L -59.0575,-90.9607 L -59.7634,-87.26 z
M -33.1843,-83.6503 L -33.1781,-83.75 L -33.0655,-83.8492 L -33.0632,-83.887 L -32.9905,-84.2678 L -32.9788,-84.3038
 L -33.0469,-84.4374 L -33.016,-84.5325 L -32.8824,-84.6006 L -32.8707,-84.6366 L -32.7056,-84.9874 L -32.6853,-85.0193
 L -32.7181,-85.1657 L -32.6645,-85.2501 L -32.5181,-85.2829 L -32.4978,-85.3148 L -32.2507,-85.6135 L -32.2231,-85.6394
 L -32.2184,-85.7894 L -32.1455,-85.8578 L -31.9956,-85.8531 L -31.968,-85.879 L -31.6544,-86.1069 L -31.6212,-86.1251
 L -31.5794,-86.2691 L -31.4918,-86.3173 L -31.3477,-86.2754 L -31.3146,-86.2937 L -30.9541,-86.4364 L -30.9175,-86.4458
 L -30.8411,-86.5749 L -30.7443,-86.5998 L -30.6151,-86.5234 L -30.5785,-86.5328 L -30.1939,-86.5814 L -30.1561,-86.5814
 L -30.05,-86.6875 L -29.95,-86.6875 L -29.8439,-86.5814 L -29.8061,-86.5814 L -29.4215,-86.5328 L -29.3849,-86.5234
 L -29.2557,-86.5998 L -29.1589,-86.5749 L -29.0825,-86.4458 L -29.0459,-86.4364 L -28.6854,-86.2937 L -28.6523,-86.2754
 L -28.5082,-86.3173 L -28.4206,-86.2691 L -28.3788,-86.1251 L -28.3456,-86.1069 L -28.032,-85.879 L -28.0044,-85.8531
 L -27.8545,-85.8578 L -27.7816,-85.7894 L -27.7769,-85.6394 L -27.7493,-85.6135 L -27.5022,-85.3148 L -27.4819,-85.2829
 L -27.3355,-85.2501 L -27.2819,-85.1657 L -27.3147,-85.0193 L -27.2944,-84.9874 L -27.1293,-84.6366 L -27.1176,-84.6006
 L -26.984,-84.5325 L -26.9531,-84.4374 L -27.0212,-84.3038 L -27.0095,-84.2678 L -26.9368,-83.887 L -26.9345,-83.8492
 L -26.8219,-83.75 L -26.8157,-83.6503 L -26.9149,-83.5377 L -26.9125,-83.5 L -26.9368,-83.113 L -26.9439,-83.0759
 L -26.8596,-82.9518 L -26.8783,-82.8536 L -27.0024,-82.7693 L -27.0095,-82.7322 L -27.1293,-82.3634 L -27.1454,-82.3292
 L -27.0946,-82.1881 L -27.1372,-82.0976 L -27.2783,-82.0468 L -27.2944,-82.0126 L -27.5022,-81.6852 L -27.5263,-81.6561
 L -27.5121,-81.5067 L -27.5759,-81.4297 L -27.7252,-81.4156 L -27.7493,-81.3865 L -28.032,-81.121 L -28.0625,-81.0988
 L -28.086,-80.9507 L -28.1669,-80.8919 L -28.3151,-80.9154 L -28.3456,-80.8931 L -28.6854,-80.7063 L -28.7205,-80.6924
 L -28.7801,-80.5548 L -28.8731,-80.5179 L -29.0108,-80.5775 L -29.0459,-80.5636 L -29.4215,-80.4672 L -29.459,-80.4625
 L -29.5509,-80.3439 L -29.6501,-80.3314 L -29.7686,-80.4233 L -29.8061,-80.4186 L -30.1939,-80.4186 L -30.2314,-80.4233
 L -30.3499,-80.3314 L -30.4491,-80.3439 L -30.541,-80.4625 L -30.5785,-80.4672 L -30.9541,-80.5636 L -30.9892,-80.5775
 L -31.1269,-80.5179 L -31.2199,-80.5548 L -31.2795,-80.6924 L -31.3146,-80.7063 L -31.6544,-80.8931 L -31.6849,-80.9154
 L -31.8331,-80.8919 L -31.914,-80.9507 L -31.9375,-81.0988 L -31.968,-81.121 L -32.2507,-81.3865 L -32.2748,-81.4156
 L -32.4241,-81.4297 L -32.4879,-81.5067 L -32.4737,-81.6561 L -32.4978,-81.6852 L -32.7056,-82.0126 L -32.7217,-82.0468
 L -32.8628,-82.0976 L -32.9054,-82.1881 L -32.8546,-82.3292 L -32.8707,-82.3634 L -32.9905,-82.7322 L -32.9976,-82.7693
 L -33.1217,-82.8536 L -33.1404,-82.9518 L -33.0561,-83.0759 L -33.0632,-83.113 L -33.0875,-83.5 L -33.0851,-83.5377
 z
M -31.125,-68.5 L -31.125,-76.5 L -31.1161,-76.641 L -31.0897,-76.7798 L -31.046,-76.9141 L -30.9858,-77.042
 L -30.9101,-77.1613 L -30.8201,-77.2701 L -30.7171,-77.3668 L -30.6028,-77.4499 L -30.479,-77.5179 L -30.3476,-77.5699
 L -30.2108,-77.6051 L -30.0706,-77.6228 L -29.9294,-77.6228 L -29.7892,-77.6051 L -29.6524,-77.5699 L -29.521,-77.5179
 L -29.3972,-77.4499 L -29.2829,-77.3668 L -29.1799,-77.2701 L -29.0899,-77.1613 L -29.0142,-77.042 L -28.954,-76.9141
 L -28.9103,-76.7798 L -28.8839,-76.641 L -28.875,-76.5 L -28.875,-68.5 L -28.8839,-68.359 L -28.9103,-68.2202
 L -28.954,-68.0859 L -29.0142,-67.958 L -29.0899,-67.8387 L -29.1799,-67.7299 L -29.2829,-67.6332 L -29.3972,-67.5501
 L -29.521,-67.4821 L -29.6524,-67.4301 L -29.7892,-67.3949 L -29.9294,-67.3772 L -30.0706,-67.3772 L -30.2108,-67.3949
 L -30.3476,-67.4301 L -30.479,-67.4821 L -30.6028,-67.5501 L -30.7171,-67.6332 L -30.8201,-67.7299 L -30.9101,-67.8387
 L -30.9858,-67.958 L -31.046,-68.0859 L -31.0897,-68.2202 L -31.1161,-68.359 z
M -31.125,-90.5 L -31.125,-98.5 L -31.1161,-98.641 L -31.0897,-98.7798 L -31.046,-98.9141 L -30.9858,-99.042
 L -30.9101,-99.1613 L -30.8201,-99.2701 L -30.7171,-99.3668 L -30.6028,-99.4499 L -30.479,-99.5179 L -30.3476,-99.5699
 L -30.2108,-99.6051 L -30.0706,-99.6228 L -29.9294,-99.6228 L -29.7892,-99.6051 L -29.6524,-99.5699 L -29.521,-99.5179
 L -29.3972,-99.4499 L -29.2829,-99.3668 L -29.1799,-99.2701 L -29.0899,-99.1613 L -29.0142,-99.042 L -28.954,-98.9141
 L -28.9103,-98.7798 L -28.8839,-98.641 L -28.875,-98.5 L -28.875,-90.5 L -28.8839,-90.359 L -28.9103,-90.2202
 L -28.954,-90.0859 L -29.0142,-89.958 L -29.0899,-89.8387 L -29.1799,-89.7299 L -29.2829,-89.6332 L -29.3972,-89.5501
 L -29.521,-89.4821 L -29.6524,-89.4301 L -29.7892,-89.3949 L -29.9294,-89.3772 L -30.0706,-89.3772 L -30.2108,-89.3949
 L -30.3476,-89.4301 L -30.479,-89.4821 L -30.6028,-89.5501 L -30.7171,-89.6332 L -30.8201,-89.7299 L -30.9101,-89.8387
 L -30.9858,-89.958 L -31.046,-90.0859 L -31.0897,-90.2202 L -31.1161,-90.359 z
M -7.93268,-12.2 L 92.0673,-12.2 L 92.0673,-57.2 L -7.93268,-57.2 z
M 5.26732,-29.65 L 5.26732,-39.75 L 10.3673,-39.75 L 10.3673,-29.65 z
M 73.7673,-29.65 L 73.7673,-39.75 L 78.8673,-39.75 L 78.8673,-29.65 z
M 0.287732,22.2995 L 1.18573,22.9656 L 1.27255,22.4732 L 6.1109,23.3263 L 2.00001,47 L 92.4327,47
 L 92.4327,-10.2 L 11.9327,-10.2 L 7.82179,13.4737 L 3.00903,12.6251 L 3.09585,12.1327 L 2.02421,12.4514
 z
M 8.68649,42.05 L 8.68649,36.95 L 18.7865,36.95 L 18.7865,42.05 z
M 16.8827,-0.149994 L 16.8827,-5.25 L 26.9827,-5.25 L 26.9827,-0.149994 z
M 24.6077,31.4 L 24.6165,31.259 L 24.643,31.1202 L 24.6867,30.9859 L 24.7468,30.858 L 24.8225,30.7388
 L 24.9126,30.6299 L 25.0156,30.5332 L 25.1299,30.4501 L 25.2537,30.3821 L 25.385,30.3301 L 25.5219,30.2949
 L 25.662,30.2772 L 25.8033,30.2772 L 25.9435,30.2949 L 26.0803,30.3301 L 26.2117,30.3821 L 26.3355,30.4501
 L 26.4498,30.5332 L 26.5528,30.6299 L 26.6428,30.7388 L 26.7185,30.858 L 26.7787,30.9859 L 26.8223,31.1202
 L 26.8488,31.259 L 26.8577,31.4 L 26.8488,31.541 L 26.8223,31.6798 L 26.7787,31.8141 L 26.7185,31.942
 L 26.6428,32.0613 L 26.5528,32.1701 L 26.4498,32.2668 L 26.3355,32.3499 L 26.2117,32.4179 L 26.0803,32.4699
 L 25.9435,32.5051 L 25.8033,32.5228 L 25.662,32.5228 L 25.5219,32.5051 L 25.385,32.4699 L 25.2537,32.4179
 L 25.1299,32.3499 L 25.0156,32.2668 L 24.9126,32.1701 L 24.8225,32.0613 L 24.7468,31.942 L 24.6867,31.8141
 L 24.643,31.6798 L 24.6165,31.541 z
M 24.6077,21.4 L 24.6165,21.259 L 24.643,21.1202 L 24.6867,20.9859 L 24.7468,20.858 L 24.8225,20.7388
 L 24.9126,20.6299 L 25.0156,20.5332 L 25.1299,20.4501 L 25.2537,20.3821 L 25.385,20.3301 L 25.5219,20.2949
 L 25.662,20.2772 L 25.8033,20.2772 L 25.9435,20.2949 L 26.0803,20.3301 L 26.2117,20.3821 L 26.3355,20.4501
 L 26.4498,20.5332 L 26.5528,20.6299 L 26.6428,20.7388 L 26.7185,20.858 L 26.7787,20.9859 L 26.8223,21.1202
 L 26.8488,21.259 L 26.8577,21.4 L 26.8488,21.541 L 26.8223,21.6798 L 26.7787,21.8141 L 26.7185,21.942
 L 26.6428,22.0613 L 26.5528,22.1701 L 26.4498,22.2668 L 26.3355,22.3499 L 26.2117,22.4179 L 26.0803,22.4699
 L 25.9435,22.5051 L 25.8033,22.5228 L 25.662,22.5228 L 25.5219,22.5051 L 25.385,22.4699 L 25.2537,22.4179
 L 25.1299,22.3499 L 25.0156,22.2668 L 24.9126,22.1701 L 24.8225,22.0613 L 24.7468,21.942 L 24.6867,21.8141
 L 24.643,21.6798 L 24.6165,21.541 z
M 30.2327,37 L 30.2327,15.8 L 72.4327,15.8 L 72.4327,23.4 L 74.4327,23.4 L 75.121,23.4059
 L 75.4948,23.4531 L 75.8597,23.5468 L 76.21,23.6855 L 76.5401,23.867 L 76.8449,24.0885 L 77.1196,24.3464
 L 77.3597,24.6367 L 77.5616,24.9547 L 77.722,25.2956 L 77.8384,25.6539 L 77.909,26.024 L 77.9327,26.4
 L 77.909,26.776 L 77.8384,27.1461 L 77.722,27.5044 L 77.5616,27.8453 L 77.3597,28.1634 L 77.1196,28.4536
 L 76.8449,28.7115 L 76.5401,28.933 L 76.21,29.1145 L 75.8597,29.2532 L 75.4948,29.3469 L 75.121,29.3941
 L 74.4327,29.4 L 72.4327,29.4 L 72.4327,37 z
M 75.8077,31.4 L 75.8165,31.259 L 75.843,31.1202 L 75.8867,30.9859 L 75.9468,30.858 L 76.0225,30.7388
 L 76.1126,30.6299 L 76.2156,30.5332 L 76.3298,30.4501 L 76.4537,30.3821 L 76.585,30.3301 L 76.7218,30.2949
 L 76.862,30.2772 L 77.0033,30.2772 L 77.1435,30.2949 L 77.2803,30.3301 L 77.4117,30.3821 L 77.5355,30.4501
 L 77.6498,30.5332 L 77.7527,30.6299 L 77.8428,30.7388 L 77.9185,30.858 L 77.9787,30.9859 L 78.0223,31.1202
 L 78.0488,31.259 L 78.0577,31.4 L 78.0488,31.541 L 78.0223,31.6798 L 77.9787,31.8141 L 77.9185,31.942
 L 77.8428,32.0613 L 77.7527,32.1701 L 77.6498,32.2668 L 77.5355,32.3499 L 77.4117,32.4179 L 77.2803,32.4699
 L 77.1435,32.5051 L 77.0033,32.5228 L 76.862,32.5228 L 76.7218,32.5051 L 76.585,32.4699 L 76.4537,32.4179
 L 76.3298,32.3499 L 76.2156,32.2668 L 76.1126,32.1701 L 76.0225,32.0613 L 75.9468,31.942 L 75.8867,31.8141
 L 75.843,31.6798 L 75.8165,31.541 z
M 75.8077,21.4 L 75.8165,21.259 L 75.843,21.1202 L 75.8867,20.9859 L 75.9468,20.858 L 76.0225,20.7388
 L 76.1126,20.6299 L 76.2156,20.5332 L 76.3298,20.4501 L 76.4537,20.3821 L 76.585,20.3301 L 76.7218,20.2949
 L 76.862,20.2772 L 77.0033,20.2772 L 77.1435,20.2949 L 77.2803,20.3301 L 77.4117,20.3821 L 77.5355,20.4501
 L 77.6498,20.5332 L 77.7527,20.6299 L 77.8428,20.7388 L 77.9185,20.858 L 77.9787,20.9859 L 78.0223,21.1202
 L 78.0488,21.259 L 78.0577,21.4 L 78.0488,21.541 L 78.0223,21.6798 L 77.9787,21.8141 L 77.9185,21.942
 L 77.8428,22.0613 L 77.7527,22.1701 L 77.6498,22.2668 L 77.5355,22.3499 L 77.4117,22.4179 L 77.2803,22.4699
 L 77.1435,22.5051 L 77.0033,22.5228 L 76.862,22.5228 L 76.7218,22.5051 L 76.585,22.4699 L 76.4537,22.4179
 L 76.3298,22.3499 L 76.2156,22.2668 L 76.1126,22.1701 L 76.0225,22.0613 L 75.9468,21.942 L 75.8867,21.8141
 L 75.843,21.6798 L 75.8165,21.541 z
M 77.3827,42.05 L 77.3827,36.95 L 87.4827,36.95 L 87.4827,42.05 z
M 77.3827,-0.149994 L 77.3827,-5.25 L 87.4827,-5.25 L 87.4827,-0.149994 z
M 2,79 L 2.23656,82.76 L 2.94251,86.4607 L 4.10671,90.0437 L 5.7108,93.4526 L 7.72949,96.6336
 L 10.1309,99.5364 L 12.8773,102.115 L 15.9252,104.33 L 19.2266,106.145 L 22.7295,107.532 L 26.3786,108.469
 L 30.1163,108.941 L 33.8837,108.941 L 37.6214,108.469 L 41.2705,107.532 L 44.7734,106.145 L 48.0748,104.33
 L 51.1227,102.115 L 53.8691,99.5364 L 56.2705,96.6336 L 58.2892,93.4526 L 59.8933,90.0437 L 61.0575,86.4607
 L 61.7634,82.76 L 62,79 L 61.7634,75.24 L 61.0575,71.5393 L 59.8933,67.9563 L 58.2892,64.5474
 L 56.2705,61.3664 L 53.8691,58.4636 L 51.1227,55.8846 L 48.0748,53.6702 L 44.7734,51.8552 L 41.2705,50.4683
 L 37.6214,49.5314 L 33.8837,49.0592 L 30.1163,49.0592 L 26.3786,49.5314 L 22.7295,50.4683 L 19.2266,51.8552
 L 15.9252,53.6702 L 12.8773,55.8846 L 10.1309,58.4636 L 7.72949,61.3664 L 5.7108,64.5474 L 4.10671,67.9563
 L 2.94251,71.5393 L 2.23656,75.24 z
M 28.8157,78.8497 L 28.8219,78.75 L 28.9345,78.6508 L 28.9368,78.613 L 29.0095,78.2322 L 29.0212,78.1962
 L 28.9531,78.0626 L 28.984,77.9675 L 29.1176,77.8994 L 29.1293,77.8634 L 29.2944,77.5126 L 29.3147,77.4807
 L 29.2819,77.3343 L 29.3355,77.2499 L 29.4819,77.2171 L 29.5022,77.1852 L 29.7493,76.8865 L 29.7769,76.8606
 L 29.7816,76.7106 L 29.8545,76.6422 L 30.0044,76.6469 L 30.032,76.621 L 30.3456,76.3931 L 30.3788,76.3749
 L 30.4206,76.2309 L 30.5082,76.1827 L 30.6523,76.2246 L 30.6854,76.2063 L 31.0459,76.0636 L 31.0825,76.0542
 L 31.1589,75.9251 L 31.2557,75.9002 L 31.3849,75.9766 L 31.4215,75.9672 L 31.8061,75.9186 L 31.8439,75.9186
 L 31.95,75.8125 L 32.05,75.8125 L 32.1561,75.9186 L 32.1939,75.9186 L 32.5785,75.9672 L 32.6151,75.9766
 L 32.7443,75.9002 L 32.8411,75.9251 L 32.9175,76.0542 L 32.9541,76.0636 L 33.3146,76.2063 L 33.3477,76.2246
 L 33.4918,76.1827 L 33.5794,76.2309 L 33.6212,76.3749 L 33.6544,76.3931 L 33.968,76.621 L 33.9956,76.6469
 L 34.1455,76.6422 L 34.2184,76.7106 L 34.2231,76.8606 L 34.2507,76.8865 L 34.4978,77.1852 L 34.5181,77.2171
 L 34.6645,77.2499 L 34.7181,77.3343 L 34.6853,77.4807 L 34.7056,77.5126 L 34.8707,77.8634 L 34.8824,77.8994
 L 35.016,77.9675 L 35.0469,78.0626 L 34.9788,78.1962 L 34.9905,78.2322 L 35.0632,78.613 L 35.0655,78.6508
 L 35.1781,78.75 L 35.1843,78.8497 L 35.0851,78.9623 L 35.0875,79 L 35.0632,79.387 L 35.0561,79.4241
 L 35.1404,79.5482 L 35.1217,79.6464 L 34.9976,79.7307 L 34.9905,79.7678 L 34.8707,80.1366 L 34.8546,80.1708
 L 34.9054,80.3119 L 34.8628,80.4024 L 34.7217,80.4532 L 34.7056,80.4874 L 34.4978,80.8148 L 34.4737,80.8439
 L 34.4879,80.9933 L 34.4241,81.0703 L 34.2748,81.0844 L 34.2507,81.1135 L 33.968,81.379 L 33.9375,81.4012
 L 33.914,81.5493 L 33.8331,81.6081 L 33.6849,81.5846 L 33.6544,81.6069 L 33.3146,81.7937 L 33.2795,81.8076
 L 33.2199,81.9452 L 33.1269,81.9821 L 32.9892,81.9225 L 32.9541,81.9364 L 32.5785,82.0328 L 32.541,82.0375
 L 32.4491,82.1561 L 32.3499,82.1686 L 32.2314,82.0767 L 32.1939,82.0814 L 31.8061,82.0814 L 31.7686,82.0767
 L 31.6501,82.1686 L 31.5509,82.1561 L 31.459,82.0375 L 31.4215,82.0328 L 31.0459,81.9364 L 31.0108,81.9225
 L 30.8731,81.9821 L 30.7801,81.9452 L 30.7205,81.8076 L 30.6854,81.7937 L 30.3456,81.6069 L 30.3151,81.5846
 L 30.1669,81.6081 L 30.086,81.5493 L 30.0625,81.4012 L 30.032,81.379 L 29.7493,81.1135 L 29.7252,81.0844
 L 29.5759,81.0703 L 29.5121,80.9933 L 29.5263,80.8439 L 29.5022,80.8148 L 29.2944,80.4874 L 29.2783,80.4532
 L 29.1372,80.4024 L 29.0946,80.3119 L 29.1454,80.1708 L 29.1293,80.1366 L 29.0095,79.7678 L 29.0024,79.7307
 L 28.8783,79.6464 L 28.8596,79.5482 L 28.9439,79.4241 L 28.9368,79.387 L 28.9125,79 L 28.9149,78.9623
 z
M 30.875,94 L 30.875,86 L 30.8839,85.859 L 30.9103,85.7202 L 30.954,85.5859 L 31.0142,85.458
 L 31.0899,85.3387 L 31.1799,85.2299 L 31.2829,85.1332 L 31.3972,85.0501 L 31.521,84.9821 L 31.6524,84.9301
 L 31.7892,84.8949 L 31.9294,84.8772 L 32.0706,84.8772 L 32.2108,84.8949 L 32.3476,84.9301 L 32.479,84.9821
 L 32.6028,85.0501 L 32.7171,85.1332 L 32.8201,85.2299 L 32.9101,85.3387 L 32.9858,85.458 L 33.046,85.5859
 L 33.0897,85.7202 L 33.1161,85.859 L 33.125,86 L 33.125,94 L 33.1161,94.141 L 33.0897,94.2798
 L 33.046,94.4141 L 32.9858,94.542 L 32.9101,94.6613 L 32.8201,94.7701 L 32.7171,94.8668 L 32.6028,94.9499
 L 32.479,95.0179 L 32.3476,95.0699 L 32.2108,95.1051 L 32.0706,95.1228 L 31.9294,95.1228 L 31.7892,95.1051
 L 31.6524,95.0699 L 31.521,95.0179 L 31.3972,94.9499 L 31.2829,94.8668 L 31.1799,94.7701 L 31.0899,94.6613
 L 31.0142,94.542 L 30.954,94.4141 L 30.9103,94.2798 L 30.8839,94.141 z
M 30.875,72 L 30.875,64 L 30.8839,63.859 L 30.9103,63.7202 L 30.954,63.5859 L 31.0142,63.458
 L 31.0899,63.3387 L 31.1799,63.2299 L 31.2829,63.1332 L 31.3972,63.0501 L 31.521,62.9821 L 31.6524,62.9301
 L 31.7892,62.8949 L 31.9294,62.8772 L 32.0706,62.8772 L 32.2108,62.8949 L 32.3476,62.9301 L 32.479,62.9821
 L 32.6028,63.0501 L 32.7171,63.1332 L 32.8201,63.2299 L 32.9101,63.3387 L 32.9858,63.458 L 33.046,63.5859
 L 33.0897,63.7202 L 33.1161,63.859 L 33.125,64 L 33.125,72 L 33.1161,72.141 L 33.0897,72.2798
 L 33.046,72.4141 L 32.9858,72.542 L 32.9101,72.6613 L 32.8201,72.7701 L 32.7171,72.8668 L 32.6028,72.9499
 L 32.479,73.0179 L 32.3476,73.0699 L 32.2108,73.1051 L 32.0706,73.1228 L 31.9294,73.1228 L 31.7892,73.1051
 L 31.6524,73.0699 L 31.521,73.0179 L 31.3972,72.9499 L 31.2829,72.8668 L 31.1799,72.7701 L 31.0899,72.6613
 L 31.0142,72.542 L 30.954,72.4141 L 30.9103,72.2798 L 30.8839,72.141 z
M 2,-59.2 L 92.4327,-59.2 L 88.3218,-82.8737 L 93.1601,-83.7268 L 93.2469,-83.2344 L 94.1449,-83.9005
 L 92.4085,-93.7486 L 91.3368,-94.0673 L 91.4236,-93.5749 L 86.6109,-92.7263 L 82.5,-116.4 L 2,-116.4
 z
M 6.95001,-64.15 L 6.95001,-69.25 L 17.05,-69.25 L 17.05,-64.15 z
M 6.95001,-106.35 L 6.95001,-111.45 L 17.05,-111.45 L 17.05,-106.35 z
M 16.375,-74.8 L 16.3839,-74.941 L 16.4104,-75.0798 L 16.454,-75.2141 L 16.5142,-75.342 L 16.5899,-75.4612
 L 16.6799,-75.5701 L 16.7829,-75.6668 L 16.8972,-75.7499 L 17.021,-75.8179 L 17.1524,-75.8699 L 17.2892,-75.9051
 L 17.4294,-75.9228 L 17.5707,-75.9228 L 17.7108,-75.9051 L 17.8477,-75.8699 L 17.979,-75.8179 L 18.1028,-75.7499
 L 18.2171,-75.6668 L 18.3201,-75.5701 L 18.4102,-75.4612 L 18.4859,-75.342 L 18.546,-75.2141 L 18.5897,-75.0798
 L 18.6161,-74.941 L 18.625,-74.8 L 18.6161,-74.659 L 18.5897,-74.5202 L 18.546,-74.3859 L 18.4859,-74.258
 L 18.4102,-74.1387 L 18.3201,-74.0299 L 18.2171,-73.9332 L 18.1028,-73.8501 L 17.979,-73.7821 L 17.8477,-73.7301
 L 17.7108,-73.6949 L 17.5707,-73.6772 L 17.4294,-73.6772 L 17.2892,-73.6949 L 17.1524,-73.7301 L 17.021,-73.7821
 L 16.8972,-73.8501 L 16.7829,-73.9332 L 16.6799,-74.0299 L 16.5899,-74.1387 L 16.5142,-74.258 L 16.454,-74.3859
 L 16.4104,-74.5202 L 16.3839,-74.659 z
M 16.375,-84.8 L 16.3839,-84.941 L 16.4104,-85.0798 L 16.454,-85.2141 L 16.5142,-85.342 L 16.5899,-85.4612
 L 16.6799,-85.5701 L 16.7829,-85.6668 L 16.8972,-85.7499 L 17.021,-85.8179 L 17.1524,-85.8699 L 17.2892,-85.9051
 L 17.4294,-85.9228 L 17.5707,-85.9228 L 17.7108,-85.9051 L 17.8477,-85.8699 L 17.979,-85.8179 L 18.1028,-85.7499
 L 18.2171,-85.6668 L 18.3201,-85.5701 L 18.4102,-85.4612 L 18.4859,-85.342 L 18.546,-85.2141 L 18.5897,-85.0798
 L 18.6161,-84.941 L 18.625,-84.8 L 18.6161,-84.659 L 18.5897,-84.5202 L 18.546,-84.3859 L 18.4859,-84.258
 L 18.4102,-84.1387 L 18.3201,-84.0299 L 18.2171,-83.9332 L 18.1028,-83.8501 L 17.979,-83.7821 L 17.8477,-83.7301
 L 17.7108,-83.6949 L 17.5707,-83.6772 L 17.4294,-83.6772 L 17.2892,-83.6949 L 17.1524,-83.7301 L 17.021,-83.7821
 L 16.8972,-83.8501 L 16.7829,-83.9332 L 16.6799,-84.0299 L 16.5899,-84.1387 L 16.5142,-84.258 L 16.454,-84.3859
 L 16.4104,-84.5202 L 16.3839,-84.659 z
M 16.5,-79.8 L 16.5237,-80.176 L 16.5943,-80.5461 L 16.7107,-80.9044 L 16.8711,-81.2453 L 17.073,-81.5633
 L 17.3131,-81.8536 L 17.5878,-82.1115 L 17.8925,-82.333 L 18.2227,-82.5145 L 18.573,-82.6532 L 18.9379,-82.7469
 L 19.3116,-82.7941 L 20,-82.8 L 22,-82.8 L 22,-90.4 L 64.2,-90.4 L 64.2,-69.2
 L 22,-69.2 L 22,-76.8 L 20,-76.8 L 19.3116,-76.8059 L 18.9379,-76.8531 L 18.573,-76.9468
 L 18.2227,-77.0855 L 17.8925,-77.267 L 17.5878,-77.4885 L 17.3131,-77.7464 L 17.073,-78.0366 L 16.8711,-78.3547
 L 16.7107,-78.6956 L 16.5943,-79.0539 L 16.5237,-79.424 z
M 67.45,-106.35 L 67.45,-111.45 L 77.55,-111.45 L 77.55,-106.35 z
M 67.575,-74.8 L 67.5839,-74.941 L 67.6104,-75.0798 L 67.654,-75.2141 L 67.7142,-75.342 L 67.7899,-75.4612
 L 67.8799,-75.5701 L 67.9829,-75.6668 L 68.0972,-75.7499 L 68.221,-75.8179 L 68.3524,-75.8699 L 68.4892,-75.9051
 L 68.6294,-75.9228 L 68.7706,-75.9228 L 68.9108,-75.9051 L 69.0477,-75.8699 L 69.179,-75.8179 L 69.3028,-75.7499
 L 69.4171,-75.6668 L 69.5201,-75.5701 L 69.6102,-75.4612 L 69.6859,-75.342 L 69.746,-75.2141 L 69.7897,-75.0798
 L 69.8161,-74.941 L 69.825,-74.8 L 69.8161,-74.659 L 69.7897,-74.5202 L 69.746,-74.3859 L 69.6859,-74.258
 L 69.6102,-74.1387 L 69.5201,-74.0299 L 69.4171,-73.9332 L 69.3028,-73.8501 L 69.179,-73.7821 L 69.0477,-73.7301
 L 68.9108,-73.6949 L 68.7706,-73.6772 L 68.6294,-73.6772 L 68.4892,-73.6949 L 68.3524,-73.7301 L 68.221,-73.7821
 L 68.0972,-73.8501 L 67.9829,-73.9332 L 67.8799,-74.0299 L 67.7899,-74.1387 L 67.7142,-74.258 L 67.654,-74.3859
 L 67.6104,-74.5202 L 67.5839,-74.659 z
M 67.575,-84.8 L 67.5839,-84.941 L 67.6104,-85.0798 L 67.654,-85.2141 L 67.7142,-85.342 L 67.7899,-85.4612
 L 67.8799,-85.5701 L 67.9829,-85.6668 L 68.0972,-85.7499 L 68.221,-85.8179 L 68.3524,-85.8699 L 68.4892,-85.9051
 L 68.6294,-85.9228 L 68.7706,-85.9228 L 68.9108,-85.9051 L 69.0477,-85.8699 L 69.179,-85.8179 L 69.3028,-85.7499
 L 69.4171,-85.6668 L 69.5201,-85.5701 L 69.6102,-85.4612 L 69.6859,-85.342 L 69.746,-85.2141 L 69.7897,-85.0798
 L 69.8161,-84.941 L 69.825,-84.8 L 69.8161,-84.659 L 69.7897,-84.5202 L 69.746,-84.3859 L 69.6859,-84.258
 L 69.6102,-84.1387 L 69.5201,-84.0299 L 69.4171,-83.9332 L 69.3028,-83.8501 L 69.179,-83.7821 L 69.0477,-83.7301
 L 68.9108,-83.6949 L 68.7706,-83.6772 L 68.6294,-83.6772 L 68.4892,-83.6949 L 68.3524,-83.7301 L 68.221,-83.7821
 L 68.0972,-83.8501 L 67.9829,-83.9332 L 67.8799,-84.0299 L 67.7899,-84.1387 L 67.7142,-84.258 L 67.654,-84.3859
 L 67.6104,-84.5202 L 67.5839,-84.659 z
M 75.6462,-64.15 L 75.6462,-69.25 L 85.7462,-69.25 L 85.7462,-64.15 z
" stroke="black" fill="lightgray" stroke-width="0.5"/></svg>
