  0
SECTION
  2
BLOCKS
  0
ENDSEC
  0
SECTION
  2
ENTITIES
  0
LINE
  8
0
 10
0.86824
 20
0
 11
6.73648
 21
0
  0
LINE
  8
0
 10
6.73648
 20
0
 11
6.73648
 21
-5
  0
LINE
  8
0
 10
6.73648
 20
-5
 11
6.23648
 21
-5
  0
LINE
  8
0
 10
6.23648
 20
-5
 11
6.73648
 21
-6
  0
LINE
  8
0
 10
6.73648
 20
-6
 11
16.7365
 21
-6
  0
LINE
  8
0
 10
16.7365
 20
-6
 11
17.2365
 21
-5
  0
LINE
  8
0
 10
17.2365
 20
-5
 11
16.7365
 21
-5
  0
LINE
  8
0
 10
16.7365
 20
-5
 11
16.7365
 21
0
  0
LINE
  8
0
 10
16.7365
 20
0
 11
75.3632
 21
0
  0
LINE
  8
0
 10
75.3632
 20
0
 11
75.3632
 21
-5
  0
LINE
  8
0
 10
75.3632
 20
-5
 11
74.8632
 21
-5
  0
LINE
  8
0
 10
74.8632
 20
-5
 11
75.3632
 21
-6
  0
LINE
  8
0
 10
75.3632
 20
-6
 11
85.3632
 21
-6
  0
LINE
  8
0
 10
85.3632
 20
-6
 11
85.8632
 21
-5
  0
LINE
  8
0
 10
85.8632
 20
-5
 11
85.3632
 21
-5
  0
LINE
  8
0
 10
85.3632
 20
-5
 11
85.3632
 21
0
  0
LINE
  8
0
 10
85.3632
 20
0
 11
90.3632
 21
0
  0
LINE
  8
0
 10
90.3632
 20
0
 11
90.3632
 21
63.5
  0
LINE
  8
0
 10
90.3632
 20
63.5
 11
85.3632
 21
63.5
  0
LINE
  8
0
 10
85.3632
 20
63.5
 11
85.3632
 21
68.5
  0
LINE
  8
0
 10
85.3632
 20
68.5
 11
85.8632
 21
68.5
  0
LINE
  8
0
 10
85.8632
 20
68.5
 11
85.3632
 21
69.5
  0
LINE
  8
0
 10
85.3632
 20
69.5
 11
75.3632
 21
69.5
  0
LINE
  8
0
 10
75.3632
 20
69.5
 11
74.8632
 21
68.5
  0
LINE
  8
0
 10
74.8632
 20
68.5
 11
75.3632
 21
68.5
  0
LINE
  8
0
 10
75.3632
 20
68.5
 11
75.3632
 21
63.5
  0
LINE
  8
0
 10
75.3632
 20
63.5
 11
16.7365
 21
63.5
  0
LINE
  8
0
 10
16.7365
 20
63.5
 11
16.7365
 21
68.5
  0
LINE
  8
0
 10
16.7365
 20
68.5
 11
17.2365
 21
68.5
  0
LINE
  8
0
 10
17.2365
 20
68.5
 11
16.7365
 21
69.5
  0
LINE
  8
0
 10
16.7365
 20
69.5
 11
6.73648
 21
69.5
  0
LINE
  8
0
 10
6.73648
 20
69.5
 11
6.23648
 21
68.5
  0
LINE
  8
0
 10
6.23648
 20
68.5
 11
6.73648
 21
68.5
  0
LINE
  8
0
 10
6.73648
 20
68.5
 11
6.73648
 21
63.5
  0
LINE
  8
0
 10
6.73648
 20
63.5
 11
0.86824
 21
63.5
  0
LINE
  8
0
 10
0.86824
 20
63.5
 11
0.86824
 21
0
  0
LINE
  8
0
 10
11.9581
 20
24.3577
 11
11.9581
 21
25.6803
  0
LINE
  8
0
 10
11.9581
 20
25.6803
 11
13.2159
 21
26.0889
  0
LINE
  8
0
 10
13.2159
 20
26.0889
 11
13.9932
 21
25.019
  0
LINE
  8
0
 10
13.9932
 20
25.019
 11
13.2159
 21
23.9491
  0
LINE
  8
0
 10
13.2159
 20
23.9491
 11
11.9581
 21
24.3577
  0
LINE
  8
0
 10
11.9581
 20
37.8197
 11
11.9581
 21
39.1423
  0
LINE
  8
0
 10
11.9581
 20
39.1423
 11
13.2159
 21
39.5509
  0
LINE
  8
0
 10
13.2159
 20
39.5509
 11
13.9932
 21
38.481
  0
LINE
  8
0
 10
13.9932
 20
38.481
 11
13.2159
 21
37.4111
  0
LINE
  8
0
 10
13.2159
 20
37.4111
 11
11.9581
 21
37.8197
  0
LINE
  8
0
 10
26.0632
 20
7.89999
 11
26.0632
 21
12.9
  0
LINE
  8
0
 10
26.0632
 20
12.9
 11
28.5632
 21
12.9
  0
LINE
  8
0
 10
28.5632
 20
12.9
 11
28.5632
 21
7.89999
  0
LINE
  8
0
 10
28.5632
 20
7.89999
 11
26.0632
 21
7.89999
  0
LINE
  8
0
 10
26.0632
 20
50.6
 11
26.0632
 21
55.6
  0
LINE
  8
0
 10
26.0632
 20
55.6
 11
28.5632
 21
55.6
  0
LINE
  8
0
 10
28.5632
 20
55.6
 11
28.5632
 21
50.6
  0
LINE
  8
0
 10
28.5632
 20
50.6
 11
26.0632
 21
50.6
  0
LINE
  8
0
 10
70.3632
 20
7.89999
 11
70.3632
 21
12.9
  0
LINE
  8
0
 10
70.3632
 20
12.9
 11
72.8632
 21
12.9
  0
LINE
  8
0
 10
72.8632
 20
12.9
 11
72.8632
 21
7.89999
  0
LINE
  8
0
 10
72.8632
 20
7.89999
 11
70.3632
 21
7.89999
  0
LINE
  8
0
 10
70.3632
 20
50.6
 11
70.3632
 21
55.6
  0
LINE
  8
0
 10
70.3632
 20
55.6
 11
72.8632
 21
55.6
  0
LINE
  8
0
 10
72.8632
 20
55.6
 11
72.8632
 21
50.6
  0
LINE
  8
0
 10
72.8632
 20
50.6
 11
70.3632
 21
50.6
  0
ENDSEC
  0
SECTION
  2
OBJECTS
  0
DICTIONARY
  0
ENDSEC
  0
EOF
