<?xml version="1.0" encoding="UTF-8" standalone="no"?>
<svg
   xmlns:dc="http://purl.org/dc/elements/1.1/"
   xmlns:cc="http://creativecommons.org/ns#"
   xmlns:rdf="http://www.w3.org/1999/02/22-rdf-syntax-ns#"
   xmlns:svg="http://www.w3.org/2000/svg"
   xmlns="http://www.w3.org/2000/svg"
   xmlns:sodipodi="http://sodipodi.sourceforge.net/DTD/sodipodi-0.dtd"
   xmlns:inkscape="http://www.inkscape.org/namespaces/inkscape"
   width="183"
   height="221"
   viewBox="-90 -112 183 221"
   version="1.1"
   id="svg4186"
   inkscape:version="0.91 r13725"
   sodipodi:docname="sumobot.svg">
  <metadata
     id="metadata4196">
    <rdf:RDF>
      <cc:Work
         rdf:about="">
        <dc:format>image/svg+xml</dc:format>
        <dc:type
           rdf:resource="http://purl.org/dc/dcmitype/StillImage" />
      </cc:Work>
    </rdf:RDF>
  </metadata>
  <defs
     id="defs4194" />
  <sodipodi:namedview
     pagecolor="#ffffff"
     bordercolor="#666666"
     borderopacity="1"
     objecttolerance="10"
     gridtolerance="10"
     guidetolerance="10"
     inkscape:pageopacity="0"
     inkscape:pageshadow="2"
     inkscape:window-width="1260"
     inkscape:window-height="768"
     id="namedview4192"
     showgrid="false"
     inkscape:zoom="2.9411765"
     inkscape:cx="67.36"
     inkscape:cy="158.1"
     inkscape:window-x="0"
     inkscape:window-y="0"
     inkscape:window-maximized="0"
     inkscape:current-layer="svg4186" />
  <title
     id="title4188">OpenSCAD Model</title>
  <path
     style="color:#000000;font-style:normal;font-variant:normal;font-weight:normal;font-stretch:normal;font-size:medium;line-height:normal;font-family:sans-serif;text-indent:0;text-align:start;text-decoration:none;text-decoration-line:none;text-decoration-style:solid;text-decoration-color:#000000;letter-spacing:normal;word-spacing:normal;text-transform:none;direction:ltr;block-progression:tb;writing-mode:lr-tb;baseline-shift:baseline;text-anchor:start;white-space:normal;clip-rule:nonzero;display:inline;overflow:visible;visibility:visible;opacity:1;isolation:auto;mix-blend-mode:normal;color-interpolation:sRGB;color-interpolation-filters:linearRGB;solid-color:#000000;solid-opacity:1;fill:#000000;fill-opacity:1;fill-rule:nonzero;stroke:none;stroke-width:0.5;stroke-linecap:butt;stroke-linejoin:miter;stroke-miterlimit:4;stroke-dasharray:none;stroke-dashoffset:0;stroke-opacity:1;color-rendering:auto;image-rendering:auto;shape-rendering:auto;text-rendering:auto;enable-background:accumulate"
     d="m -31.900391,-111.86523 -3.767578,0.47461 -3.679687,0.94531 -3.533203,1.39843 -3.328125,1.83008 -3.074219,2.23438 -2.767578,2.59961 -2.421875,2.927732 -2.035156,3.207031 -1.619141,3.4375 -1.173828,3.613281 -0.710938,3.730469 -0.238281,3.791016 0,0.01563 0.238281,3.777344 0.710938,3.730468 1.173828,3.613282 1.619141,3.4375 2.035156,3.207031 2.421875,2.927734 2.767578,2.599609 3.074219,2.234376 3.328125,1.830078 3.533203,1.398437 3.679687,0.943359 3.767578,0.476563 3.800782,0 3.767578,-0.476563 3.679687,-0.943359 3.533203,-1.398437 3.328125,-1.830078 3.074219,-2.234376 2.7675782,-2.599609 2.421875,-2.927734 2.0351563,-3.207031 1.6191406,-3.4375 1.17382815,-3.613282 0.7109375,-3.730468 L 0.25,-81.675781 l -0.23828125,-3.791016 -0.7109375,-3.730469 -1.17382815,-3.613281 -1.6191406,-3.4375 -2.0351563,-3.207031 -2.421875,-2.927732 -2.7675782,-2.59961 -3.074219,-2.23438 -3.328125,-1.83008 -3.533203,-1.39843 -3.679687,-0.94531 -3.767578,-0.47461 -3.800782,0 z m 0.0332,0.5 3.734376,0 3.707031,0.46679 3.61914,0.92969 3.472657,1.375 3.27539,1.80078 3.021485,2.19531 2.7226559,2.5586 2.3828125,2.876951 2.0019531,3.154297 1.5898437,3.380859 1.1542969,3.552734 0.7011719,3.669922 0.234375,3.728516 -0.234375,3.728515 -0.7011719,3.669922 -1.1542969,3.554688 -1.5898437,3.378906 -2.0019531,3.154297 -2.3828125,2.878906 -2.7226559,2.558594 -3.021485,2.195312 -3.27539,1.798829 -3.472657,1.376953 -3.61914,0.927734 -3.707031,0.46875 -3.734376,0 -3.707031,-0.46875 -3.61914,-0.927734 -3.472657,-1.376953 -3.27539,-1.798829 -3.021485,-2.195312 -2.722656,-2.558594 -2.382812,-2.878906 -2.001953,-3.154297 -1.589844,-3.378906 -1.154297,-3.554688 -0.701172,-3.669922 -0.232422,-3.728515 0.232422,-3.728516 0.701172,-3.669922 1.154297,-3.552734 1.589844,-3.380859 2.001953,-3.154297 2.382812,-2.876951 2.722656,-2.5586 3.021485,-2.19531 3.27539,-1.80078 3.472657,-1.375 3.61914,-0.92969 3.707031,-0.46679 z m 33.617188,3.01562 0,53.548829 0.25,0 90.009766,0 -3.759766,-21.644531 2.548828,-0.451172 0.115234,0.646484 1.345704,-1 -1.789063,-10.152344 -1.607422,-0.478515 0.113281,0.644531 -2.523437,0.445312 -3.742187,-21.558594 -80.960938,0 z m 0.5,0.5 80.039062,0 3.757813,21.638672 3.507813,-0.61914 -0.05859,-0.339844 0.535156,0.158203 1.683594,9.544922 -0.449219,0.332031 -0.06055,-0.339843 -3.533203,0.623047 3.742187,21.550781 -89.164062,0 0,-52.548829 z m 4.4492188,4.44922 0,3.77539 0.25,0 10.3515622,0 0,-3.77539 -10.6015622,0 z m 60.5000002,0 0,3.77539 0.25,0 10.351562,0 0,-3.77539 -10.601562,0 z m -60.0000002,0.5 9.6015622,0 0,2.77539 -9.6015622,0 0,-2.77539 z m 60.5000002,0 9.601562,0 0,2.77539 -9.601562,0 0,-2.77539 z m -97.785157,4.853515 -0.171874,0.02148 -0.167969,0.04297 -0.160157,0.0625 -0.15039,0.08398 -0.140625,0.101563 -0.125,0.117187 -0.111328,0.132813 -0.0918,0.146484 -0.07422,0.15625 -0.05273,0.164063 -0.0332,0.169922 -0.0098,0.164062 0,8.015625 0,0.0078 0.0098,0.158203 0.0332,0.169922 0.05273,0.164062 0.07422,0.15625 0.0918,0.144531 0.111328,0.132813 0.125,0.119141 0.140625,0.101562 0.15039,0.08398 0.160157,0.0625 0.167969,0.04297 0.171874,0.02148 0.171876,0 0.171874,-0.02148 0.167969,-0.04297 0.160157,-0.0625 0.15039,-0.08398 0.140625,-0.101562 0.125,-0.119141 0.111328,-0.132813 0.0918,-0.144531 0.07422,-0.15625 0.05273,-0.164062 0.0332,-0.169922 0.0098,-0.166016 0,-8.015625 -0.0098,-0.164062 -0.0332,-0.169922 -0.05273,-0.164063 -0.07422,-0.15625 -0.0918,-0.146484 -0.111328,-0.132813 -0.125,-0.117187 -0.140625,-0.101563 -0.15039,-0.08398 -0.160157,-0.0625 -0.167969,-0.04297 -0.171874,-0.02148 -0.171876,0 z m 0.03125,0.5 0.109376,0 0.109374,0.01367 0.105469,0.02734 0.103516,0.03906 0.0957,0.05273 0.08789,0.06445 0.08008,0.07617 0.07031,0.08398 0.05859,0.09375 0.04687,0.09961 0.03516,0.103516 0.01953,0.107422 0.0078,0.117187 0,7.984375 -0.0078,0.119141 -0.01953,0.107422 -0.03516,0.103515 -0.04687,0.09961 -0.05859,0.09375 -0.07031,0.08398 -0.08008,0.07422 -0.08789,0.06445 -0.0957,0.05469 -0.103516,0.03906 -0.105469,0.02734 -0.109374,0.01367 -0.109376,0 -0.109374,-0.01367 -0.105469,-0.02734 -0.103516,-0.03906 -0.0957,-0.05469 -0.08789,-0.06445 -0.08008,-0.07422 -0.07031,-0.08398 -0.05859,-0.09375 -0.04687,-0.09961 -0.03516,-0.103515 -0.01953,-0.107422 -0.0078,-0.111328 0,-7.992188 0.0078,-0.117187 0.01953,-0.107422 0.03516,-0.103516 0.04687,-0.09961 0.05859,-0.09375 0.07031,-0.08398 0.08008,-0.07617 0.08789,-0.06445 0.0957,-0.05273 0.103516,-0.03906 0.105469,-0.02734 0.109374,-0.01367 z m -0.09961,12.433594 -0.105469,0.107422 0.05078,0 -0.416016,0.05273 0.04883,-0.01367 -0.130859,-0.07617 -0.296875,0.07617 -0.07617,0.128906 0.04883,-0.01172 -0.390625,0.154297 0.04492,-0.02344 -0.144531,-0.04297 -0.269532,0.148438 -0.04102,0.144531 0.04297,-0.02539 -0.337891,0.248047 0.03516,-0.03516 -0.148437,-0.0039 -0.22461,0.208984 -0.0059,0.150391 0.03711,-0.03516 -0.267578,0.324219 0.02734,-0.04297 -0.146484,0.0332 -0.164063,0.259765 0.0332,0.146485 0.02539,-0.04297 -0.177735,0.378906 0.01563,-0.04687 -0.134765,0.06836 -0.09375,0.291015 0.06836,0.134766 0.01563,-0.04883 -0.08008,0.412109 0.0039,-0.04883 -0.113281,0.09766 -0.01758,0.306641 0.06836,0.07813 0.0293,0.03516 0.0039,-0.05078 0.02539,0.419922 -0.0078,-0.05078 -0.08594,0.125 0.05859,0.300782 0.123047,0.08594 -0.0078,-0.05078 0.128906,0.400391 -0.02148,-0.04688 -0.05078,0.142579 0.130859,0.277343 0.140625,0.05078 -0.02148,-0.04492 0.224609,0.353515 -0.03125,-0.03906 -0.01367,0.150391 0.195313,0.236328 0.15039,0.01367 -0.0332,-0.03906 0.306641,0.287109 -0.04102,-0.0293 0.02344,0.148437 0.248047,0.179687 0.148437,-0.02344 -0.04102,-0.0293 0.367187,0.203125 -0.04492,-0.01953 0.05859,0.138672 0.285156,0.113281 0.138672,-0.06055 -0.04687,-0.01758 0.40625,0.103516 -0.05078,-0.0059 0.0918,0.119141 0.304687,0.03711 0.119141,-0.0918 -0.04883,-0.0059 0.417968,0 -0.04883,0.0059 0.119141,0.0918 0.304687,-0.03711 0.0918,-0.119141 -0.05078,0.0059 0.40625,-0.103516 -0.04687,0.01758 0.138672,0.06055 0.285156,-0.113281 0.05859,-0.138672 -0.04492,0.01953 0.367187,-0.203125 -0.04102,0.0293 0.148437,0.02344 0.248047,-0.179687 0.02344,-0.148437 -0.04102,0.0293 0.306641,-0.287109 -0.0332,0.03906 0.15039,-0.01367 0.195313,-0.236328 -0.01367,-0.150391 -0.03125,0.03906 0.224609,-0.353515 -0.02148,0.04492 0.140625,-0.05078 0.130859,-0.277343 -0.05078,-0.142579 -0.02148,0.04688 0.128906,-0.400391 -0.0078,0.05078 0.123047,-0.08594 0.05859,-0.300782 -0.08594,-0.125 -0.0078,0.05078 0.02539,-0.419922 0.0039,0.05078 0.09766,-0.113281 -0.01758,-0.306641 -0.113281,-0.09766 0.0039,0.04883 -0.08008,-0.412109 0.01563,0.04883 0.06836,-0.134766 -0.09375,-0.291015 -0.134765,-0.06836 0.01563,0.04687 -0.177735,-0.378906 0.02539,0.04297 0.0332,-0.146485 -0.164063,-0.259765 -0.146484,-0.0332 0.02734,0.04297 -0.267578,-0.324219 0.03711,0.03516 -0.0059,-0.150391 -0.22461,-0.208984 -0.148437,0.0039 0.03516,0.03516 -0.337891,-0.248047 0.04297,0.02539 -0.04102,-0.144531 -0.269532,-0.148438 -0.144531,0.04297 0.04492,0.02344 -0.390625,-0.154297 0.04883,0.01172 -0.07617,-0.128906 -0.296875,-0.07617 -0.130859,0.07617 0.04883,0.01367 -0.416016,-0.05273 0.05078,0 -0.105469,-0.107422 -0.308594,0 z M -30,-84.558594 l 0.05273,0.05273 0.125,0 0.353516,0.04492 0.121094,0.03125 0.06445,-0.03906 0.03906,0.06445 0.121094,0.03125 0.330078,0.130859 0.111328,0.06055 0.07227,-0.01953 0.01953,0.07031 0.109375,0.06055 0.289063,0.208984 0.0918,0.08594 0.07422,-0.002 0.002,0.07422 0.0918,0.08594 0.226563,0.275391 0.06836,0.105469 0.07031,0.01563 -0.01563,0.07227 0.06836,0.107422 0.152344,0.322266 0.03711,0.119141 0.06641,0.0332 -0.0332,0.06641 0.03906,0.119141 0.06641,0.349609 0.0078,0.125 0.05664,0.04883 -0.05078,0.05664 0.0098,0.125 -0.02344,0.355469 -0.02344,0.125 0.04102,0.06055 -0.06055,0.04102 -0.02344,0.125 -0.109375,0.337891 -0.05469,0.113281 0.02539,0.07031 -0.07031,0.02539 -0.05273,0.113281 -0.191406,0.300782 -0.08008,0.09766 0.0059,0.07422 -0.07227,0.0059 -0.08008,0.09766 -0.259765,0.244141 -0.101563,0.07227 -0.01172,0.07422 -0.07422,-0.01172 -0.101563,0.07422 -0.3125,0.171875 -0.115234,0.04492 -0.0293,0.06836 -0.06836,-0.0293 -0.117188,0.04688 -0.345703,0.08789 -0.125,0.01563 -0.04492,0.05859 -0.05859,-0.04492 -0.125,0.01563 -0.355468,0 -0.125,-0.01563 -0.05859,0.04492 -0.04492,-0.05859 -0.125,-0.01563 -0.345703,-0.08789 -0.117188,-0.04688 -0.06836,0.0293 -0.0293,-0.06836 -0.115234,-0.04492 -0.3125,-0.171875 -0.101563,-0.07422 -0.07422,0.01172 -0.01172,-0.07422 -0.101563,-0.07227 -0.259765,-0.244141 -0.08008,-0.09766 -0.07227,-0.0059 0.0059,-0.07422 -0.08008,-0.09766 -0.191406,-0.300782 -0.05273,-0.113281 -0.07031,-0.02539 0.02539,-0.07031 -0.05469,-0.113281 -0.109375,-0.337891 -0.02344,-0.125 -0.06055,-0.04102 0.04102,-0.06055 -0.02344,-0.125 -0.02344,-0.355469 0.0098,-0.125 -0.05078,-0.05664 0.05664,-0.04883 0.0078,-0.125 0.06641,-0.349609 0.03906,-0.119141 -0.0332,-0.06641 0.06641,-0.0332 0.03711,-0.119141 0.152344,-0.322266 0.06836,-0.107422 -0.01563,-0.07227 0.07031,-0.01563 0.06836,-0.105469 0.226563,-0.275391 0.0918,-0.08594 0.002,-0.07422 0.07422,0.002 0.0918,-0.08594 0.289063,-0.208984 0.109375,-0.06055 0.01953,-0.07031 0.07227,0.01953 0.111328,-0.06055 0.330078,-0.130859 0.121094,-0.03125 0.03906,-0.06445 0.06445,0.03906 0.121094,-0.03125 0.353516,-0.04492 0.125,0 0.05273,-0.05273 z m 51.75,0.382813 0,7.351562 -1.751953,0 -0.703125,0.0059 -0.404297,0.05078 -0.394531,0.101562 -0.38086,0.150391 -0.357422,0.195313 -0.330078,0.240234 -0.296875,0.279297 -0.259765,0.314453 -0.21875,0.345703 -0.173828,0.369141 -0.126954,0.388672 -0.07617,0.40039 -0.02539,0.408203 0,0.01563 0.02539,0.390625 0.07617,0.400391 0.126954,0.388672 0.173828,0.36914 0.21875,0.345704 0.259765,0.314453 0.296875,0.279297 0.330078,0.240234 0.357422,0.195312 0.38086,0.150391 0.394531,0.101563 0.404297,0.05273 0.703125,0.0059 1.751953,0 0,7.34961 42.199219,0 0,-21.201172 -42.199219,0 z m 0.5,0.5 41.199219,0 0,20.201172 -41.199219,0 0,-7.34961 -2.248047,0 -0.673828,-0.0059 -0.34375,-0.04492 -0.333984,-0.08594 -0.320313,-0.126953 -0.302734,-0.166015 -0.279297,-0.203125 -0.251953,-0.236328 -0.220703,-0.265625 -0.185547,-0.291016 -0.146485,-0.3125 -0.105468,-0.328125 -0.06641,-0.339844 -0.02148,-0.34375 0.02148,-0.345703 0.06641,-0.339844 0.105468,-0.328125 0.146485,-0.3125 0.185547,-0.291015 0.220703,-0.265625 0.251953,-0.236328 0.279297,-0.203125 0.302734,-0.166016 0.320313,-0.126953 0.333984,-0.08594 0.34375,-0.04297 0.673828,-0.0059 2.248047,0 0,-7.351562 z m -4.835938,3.728515 -0.171874,0.02148 -0.167969,0.04297 -0.160157,0.0625 -0.15039,0.08398 -0.140625,0.101562 -0.125,0.119141 -0.111328,0.132813 -0.0918,0.144531 -0.07422,0.15625 -0.05273,0.164062 -0.0332,0.169922 -0.0098,0.173828 0,0.01563 0.0098,0.15625 0.0332,0.169922 0.05273,0.164063 0.07422,0.15625 0.0918,0.146484 0.111328,0.132813 0.125,0.117187 0.140625,0.101563 0.15039,0.08398 0.160157,0.0625 0.167969,0.04297 0.171874,0.02148 0.171876,0 0.171874,-0.02148 0.167969,-0.04297 0.160157,-0.0625 0.15039,-0.08398 0.140625,-0.101563 0.125,-0.117187 0.111328,-0.132813 0.0918,-0.146484 0.07422,-0.15625 0.05273,-0.164063 0.0332,-0.169922 0.0098,-0.171875 -0.0098,-0.173828 -0.0332,-0.169922 -0.05273,-0.164062 -0.07422,-0.15625 -0.0918,-0.144531 -0.111328,-0.132813 -0.125,-0.119141 -0.140625,-0.101562 -0.15039,-0.08398 -0.160157,-0.0625 -0.167969,-0.04297 -0.171874,-0.02148 -0.171876,0 z m 50.699219,0 -0.171875,0.02148 -0.166015,0.04297 -0.160157,0.0625 -0.152343,0.08398 -0.140625,0.101562 -0.125,0.119141 -0.109375,0.132813 -0.09375,0.144531 -0.07227,0.15625 -0.05469,0.164062 -0.03125,0.169922 -0.01172,0.173828 0.002,0.01563 0.0098,0.15625 0.03125,0.169922 0.05469,0.164063 0.07227,0.15625 0.09375,0.146484 0.109375,0.132813 0.125,0.117187 0.140625,0.101563 0.152343,0.08398 0.160157,0.0625 0.166015,0.04297 0.171875,0.02148 0.173828,0 0.169922,-0.02148 0.167969,-0.04297 0.160156,-0.0625 0.152344,-0.08398 0.138672,-0.101563 0.126953,-0.117187 0.109375,-0.132813 0.09375,-0.146484 0.07227,-0.15625 0.05469,-0.164063 0.03125,-0.169922 0.01172,-0.171875 -0.01172,-0.173828 -0.03125,-0.169922 -0.05469,-0.164062 -0.07227,-0.15625 -0.09375,-0.144531 -0.109375,-0.132813 -0.126953,-0.119141 -0.138672,-0.101562 -0.152344,-0.08398 -0.160156,-0.0625 -0.167969,-0.04297 -0.169922,-0.02148 -0.173828,0 z m -50.667969,0.5 0.109376,0 0.109374,0.01367 0.105469,0.02734 0.103516,0.03906 0.0957,0.05469 0.08789,0.06445 0.08008,0.07422 0.07031,0.08398 0.05859,0.09375 0.04687,0.09961 0.03516,0.103515 0.01953,0.107422 0.0078,0.111328 -0.0078,0.109375 -0.01953,0.107422 -0.03516,0.103516 -0.04687,0.09961 -0.05859,0.09375 -0.07031,0.08398 -0.08008,0.07617 -0.08789,0.06445 -0.0957,0.05273 -0.103516,0.03906 -0.105469,0.02734 -0.109374,0.01367 -0.109376,0 -0.109374,-0.01367 -0.105469,-0.02734 -0.103516,-0.03906 -0.0957,-0.05273 -0.08789,-0.06445 -0.08008,-0.07617 -0.07031,-0.08398 -0.05859,-0.09375 -0.04687,-0.09961 -0.03516,-0.103516 -0.01953,-0.107422 -0.0078,-0.109375 0.0078,-0.109375 0.01953,-0.109375 0.03516,-0.103515 0.04687,-0.09961 0.05859,-0.09375 0.07031,-0.08398 0.08008,-0.07422 0.08789,-0.06445 0.0957,-0.05469 0.103516,-0.03906 0.105469,-0.02734 0.109374,-0.01367 z m 50.699219,0 0.109375,0 0.109375,0.01367 0.107422,0.02734 0.101563,0.03906 0.0957,0.05469 0.08984,0.06445 0.08008,0.07422 0.07031,0.08398 0.05859,0.09375 0.04687,0.09961 0.0332,0.103515 0.02148,0.107422 0.0059,0.111328 -0.0059,0.109375 -0.02148,0.107422 -0.0332,0.103516 -0.04687,0.09961 -0.05859,0.09375 -0.07031,0.08398 -0.08008,0.07617 -0.08984,0.06445 -0.0957,0.05273 -0.101563,0.03906 -0.107422,0.02734 -0.109375,0.01367 -0.109375,0 -0.109375,-0.01367 -0.105468,-0.02734 -0.101563,-0.03906 -0.0957,-0.05273 -0.08984,-0.06445 -0.08008,-0.07617 -0.07031,-0.08398 -0.05859,-0.09375 -0.04687,-0.09961 -0.0332,-0.103516 -0.02148,-0.107422 -0.0078,-0.109375 0.0078,-0.109375 0.02148,-0.109375 0.0332,-0.103515 0.04687,-0.09961 0.05859,-0.09375 0.07031,-0.08398 0.08008,-0.07422 0.08789,-0.06445 0.09766,-0.05469 0.101563,-0.03906 0.107421,-0.02734 0.107422,-0.01367 z m -98.230469,3.400391 -0.171874,0.02148 -0.167969,0.04297 -0.160157,0.0625 -0.15039,0.08398 -0.140625,0.101563 -0.125,0.117187 -0.111328,0.132813 -0.0918,0.146484 -0.07422,0.15625 -0.05273,0.164063 -0.0332,0.169922 -0.0098,0.164062 0,8.015625 0,0.0078 0.0098,0.158203 0.0332,0.169922 0.05273,0.164062 0.07422,0.15625 0.0918,0.144531 0.111328,0.132813 0.125,0.119141 0.140625,0.101562 0.15039,0.08398 0.160157,0.0625 0.167969,0.04297 0.171874,0.02148 0.171876,0 0.171874,-0.02148 0.167969,-0.04297 0.160157,-0.0625 0.15039,-0.08398 0.140625,-0.101562 0.125,-0.119141 0.111328,-0.132813 0.0918,-0.144531 0.07422,-0.15625 0.05273,-0.164062 0.0332,-0.169922 0.0098,-0.166016 0,-8.015625 -0.0098,-0.164062 -0.0332,-0.169922 -0.05273,-0.164063 -0.07422,-0.15625 -0.0918,-0.146484 -0.111328,-0.132813 -0.125,-0.117187 -0.140625,-0.101563 -0.15039,-0.08398 -0.160157,-0.0625 -0.167969,-0.04297 -0.171874,-0.02148 -0.171876,0 z m 0.03125,0.5 0.109376,0 0.109374,0.01367 0.105469,0.02734 0.103516,0.03906 0.0957,0.05273 0.08789,0.06445 0.08008,0.07617 0.07031,0.08398 0.05859,0.09375 0.04687,0.09961 0.03516,0.103516 0.01953,0.107422 0.0078,0.117187 0,7.984375 -0.0078,0.119141 -0.01953,0.107422 -0.03516,0.103515 -0.04687,0.09961 -0.05859,0.09375 -0.07031,0.08398 -0.08008,0.07422 -0.08789,0.06445 -0.0957,0.05469 -0.103516,0.03906 -0.105469,0.02734 -0.109374,0.01367 -0.109376,0 -0.109374,-0.01367 -0.105469,-0.02734 -0.103516,-0.03906 -0.0957,-0.05469 -0.08789,-0.06445 -0.08008,-0.07422 -0.07031,-0.08398 -0.05859,-0.09375 -0.04687,-0.09961 -0.03516,-0.103515 -0.01953,-0.107422 -0.0078,-0.111328 0,-7.992188 0.0078,-0.117187 0.01953,-0.107422 0.03516,-0.103516 0.04687,-0.09961 0.05859,-0.09375 0.07031,-0.08398 0.08008,-0.07617 0.08789,-0.06445 0.0957,-0.05273 0.103516,-0.03906 0.105469,-0.02734 0.109374,-0.01367 z m 47.46875,5.599609 -0.171874,0.02148 -0.167969,0.04297 -0.160157,0.0625 -0.15039,0.08398 -0.140625,0.101562 -0.125,0.119141 -0.111328,0.132813 -0.0918,0.144531 -0.07422,0.15625 -0.05273,0.164062 -0.0332,0.169922 -0.0098,0.173828 0,0.01563 0.0098,0.15625 0.0332,0.169922 0.05273,0.164063 0.07422,0.15625 0.0918,0.146484 0.111328,0.132813 0.125,0.117187 0.140625,0.101563 0.15039,0.08398 0.160157,0.0625 0.167969,0.04297 0.171874,0.02148 0.171876,0 0.171874,-0.02148 0.167969,-0.04297 0.160157,-0.0625 0.15039,-0.08398 0.140625,-0.101563 0.125,-0.117187 0.111328,-0.132813 0.0918,-0.146484 0.07422,-0.15625 0.05273,-0.164063 0.0332,-0.169922 0.0098,-0.171875 -0.0098,-0.173828 -0.0332,-0.169922 -0.05273,-0.164062 -0.07422,-0.15625 -0.0918,-0.144531 -0.111328,-0.132813 -0.125,-0.119141 -0.140625,-0.101562 -0.15039,-0.08398 -0.160157,-0.0625 -0.167969,-0.04297 -0.171874,-0.02148 -0.171876,0 z m 50.699219,0 -0.171875,0.02148 -0.166015,0.04297 -0.160157,0.0625 -0.152343,0.08398 -0.140625,0.101562 -0.125,0.119141 -0.109375,0.132813 -0.09375,0.144531 -0.07227,0.15625 -0.05469,0.164062 -0.03125,0.169922 -0.01172,0.173828 0.002,0.01563 0.0098,0.15625 0.03125,0.169922 0.05469,0.164063 0.07227,0.15625 0.09375,0.146484 0.109375,0.132813 0.125,0.117187 0.140625,0.101563 0.152343,0.08398 0.160157,0.0625 0.166015,0.04297 0.171875,0.02148 0.173828,0 0.169922,-0.02148 0.167969,-0.04297 0.160156,-0.0625 0.152344,-0.08398 0.138672,-0.101563 0.126953,-0.117187 0.109375,-0.132813 0.09375,-0.146484 0.07227,-0.15625 0.05469,-0.164063 0.03125,-0.169922 0.01172,-0.171875 -0.01172,-0.173828 -0.03125,-0.169922 -0.05469,-0.164062 -0.07227,-0.15625 -0.09375,-0.144531 -0.109375,-0.132813 -0.126953,-0.119141 -0.138672,-0.101562 -0.152344,-0.08398 -0.160156,-0.0625 -0.167969,-0.04297 -0.169922,-0.02148 -0.173828,0 z m -50.667969,0.5 0.109376,0 0.109374,0.01367 0.105469,0.02734 0.103516,0.03906 0.0957,0.05469 0.08789,0.06445 0.08008,0.07422 0.07031,0.08398 0.05859,0.09375 0.04687,0.09961 0.03516,0.103515 0.01953,0.107422 0.0078,0.111328 -0.0078,0.109375 -0.01953,0.107422 -0.03516,0.103516 -0.04687,0.09961 -0.05859,0.09375 -0.07031,0.08398 -0.08008,0.07617 -0.08789,0.06445 -0.0957,0.05273 -0.103516,0.03906 -0.105469,0.02734 -0.109374,0.01367 -0.109376,0 -0.109374,-0.01367 -0.105469,-0.02734 -0.103516,-0.03906 -0.0957,-0.05273 -0.08789,-0.06445 -0.08008,-0.07617 -0.07031,-0.08398 -0.05859,-0.09375 -0.04687,-0.09961 -0.03516,-0.103516 -0.01953,-0.107422 -0.0078,-0.109375 0.0078,-0.109375 0.01953,-0.109375 0.03516,-0.103515 0.04687,-0.09961 0.05859,-0.09375 0.07031,-0.08398 0.08008,-0.07422 0.08789,-0.06445 0.0957,-0.05469 0.103516,-0.03906 0.105469,-0.02734 0.109374,-0.01367 z m 50.699219,0 0.109375,0 0.109375,0.01367 0.107422,0.02734 0.101563,0.03906 0.0957,0.05469 0.08984,0.06445 0.08008,0.07422 0.07031,0.08398 0.05859,0.09375 0.04687,0.09961 0.0332,0.103515 0.02148,0.107422 0.0059,0.111328 -0.0059,0.109375 -0.02148,0.107422 -0.0332,0.103516 -0.04687,0.09961 -0.05859,0.09375 -0.07031,0.08398 -0.08008,0.07617 -0.08984,0.06445 -0.0957,0.05273 -0.101563,0.03906 -0.107422,0.02734 -0.109375,0.01367 -0.109375,0 -0.109375,-0.01367 -0.105468,-0.02734 -0.101563,-0.03906 -0.0957,-0.05273 -0.08984,-0.06445 -0.08008,-0.07617 -0.07031,-0.08398 -0.05859,-0.09375 -0.04687,-0.09961 -0.0332,-0.103516 -0.02148,-0.107422 -0.0078,-0.109375 0.0078,-0.109375 0.02148,-0.109375 0.0332,-0.103515 0.04687,-0.09961 0.05859,-0.09375 0.07031,-0.08398 0.08008,-0.07422 0.08789,-0.06445 0.09766,-0.05469 0.101563,-0.03906 0.107421,-0.02734 0.107422,-0.01367 z m -61.4453122,5.921875 0,3.775391 0.25,0 10.3515622,0 0,-3.775391 -10.6015622,0 z m 68.2929692,0 0,3.775391 0.25,0 10.349609,0 0,-3.775391 -10.599609,0 z m -67.7929692,0.5 9.6015622,0 0,2.775391 -9.6015622,0 0,-2.775391 z m 68.2929692,0 9.599609,0 0,2.775391 -9.599609,0 0,-2.775391 z m -82.9550786,9.72461 0,45.4999998 0.25,0 100.2499996,0 0,-45.4999998 -100.4999996,0 z m 0.5,0.5 99.4999996,0 0,44.4999998 -99.4999996,0 0,-44.4999998 z m -77.9042974,1.875 -0.75,1.5 0.654297,0 0,2.675781 -5,0 0,64 0.25,0 4.75,0 0,2.675781 -0.654297,0 0.75,1.5 10.310547,0 0.75,-1.5 -0.65625,0 0,-2.675781 50,0 0,2.675781 -0.654297,0 0.75,1.5 10.310547,0 0.75,-1.5 -0.65625,0 0,-2.675781 5.0000004,0 0,-64 -5.0000004,0 0,-2.675781 0.65625,0 -0.75,-1.5 -10.310547,0 -0.75,1.5 0.654297,0 0,2.675781 -50,0 0,-2.675781 0.65625,0 -0.75,-1.5 -10.310547,0 z m 0.310547,0.5 9.689453,0 0.25,0.5 -0.345703,0 0,3.675781 51,0 0,-3.675781 -0.34375,0 0.25,-0.5 9.689453,0 0.25,0.5 -0.345703,0 0,3.675781 5.0000004,0 0,63 -5.0000004,0 0,3.675781 0.345703,0 -0.25,0.5 -9.689453,0 -0.25,-0.5 0.34375,0 0,-3.675781 -51,0 0,3.675781 0.345703,0 -0.25,0.5 -9.689453,0 -0.25,-0.5 0.34375,0 0,-3.675781 -5,0 0,-63 5,0 0,-3.675781 -0.34375,0 0.25,-0.5 z m 61.058594,10.203125 -0.171875,0.02148 -0.167969,0.04297 -0.160156,0.06445 -0.150391,0.08203 -0.140624,0.101563 -0.125,0.11914 -0.111329,0.132813 -0.0918,0.146484 -0.07422,0.15625 -0.05273,0.164063 -0.0332,0.169922 -0.0098,0.171875 0,0.01563 0.0098,0.15625 0.0332,0.169922 0.05273,0.164062 0.07422,0.15625 0.0918,0.146484 0.111329,0.132813 0.125,0.117187 0.140624,0.101563 0.150391,0.08398 0.160156,0.06445 0.167969,0.04297 0.171875,0.02148 0.171875,0 0.171875,-0.02148 0.167969,-0.04297 0.160156,-0.06445 0.150391,-0.08398 0.140625,-0.101563 0.125,-0.117187 0.111328,-0.132813 0.0918,-0.146484 0.07422,-0.15625 0.05273,-0.164062 0.0332,-0.169922 0.0098,-0.171875 -0.0098,-0.171875 -0.0332,-0.169922 -0.05273,-0.164063 -0.07422,-0.158203 -0.0918,-0.144531 -0.111328,-0.132813 -0.125,-0.11914 -0.140625,-0.101563 -0.150391,-0.08203 -0.160156,-0.06445 -0.167969,-0.04297 -0.171875,-0.02148 -0.171875,0 z m 0.03125,0.5 0.109375,0 0.109375,0.01367 0.105469,0.02734 0.103516,0.04102 0.0957,0.05273 0.08789,0.06445 0.08008,0.07422 0.07031,0.08594 0.05859,0.0918 0.04687,0.09961 0.03516,0.103516 0.01953,0.109375 0.0078,0.109375 -0.0078,0.109375 -0.01953,0.107422 -0.03516,0.105468 -0.04687,0.09961 -0.05859,0.0918 -0.07031,0.08398 -0.08008,0.07617 -0.08789,0.06445 -0.0957,0.05273 -0.103516,0.04102 -0.105469,0.02734 -0.109375,0.01367 -0.109375,0 -0.109375,-0.01367 -0.105469,-0.02734 -0.103515,-0.04102 -0.0957,-0.05273 -0.08789,-0.06445 -0.08008,-0.07617 -0.07031,-0.08398 -0.05859,-0.0918 -0.04687,-0.09961 -0.03516,-0.105468 -0.01953,-0.107422 -0.0059,-0.109375 0.0059,-0.109375 0.01953,-0.109375 0.03516,-0.103516 0.04687,-0.09961 0.05859,-0.0918 0.07031,-0.08594 0.08008,-0.07422 0.08789,-0.06445 0.0957,-0.05273 0.103515,-0.04102 0.105469,-0.02734 0.109375,-0.01367 z m 31.029297,3.873047 0,10.599609 0.25,0 3.525391,0 0,-10.599609 -3.775391,0 z m 66.675781,0 0,10.599609 0.25,0 3.525391,0 0,-10.599609 -3.775391,0 z m -66.175781,0.5 2.775391,0 0,9.599609 -2.775391,0 0,-9.599609 z m 66.675781,0 2.775391,0 0,9.599609 -2.775391,0 0,-9.599609 z m -150.335937,0.226562 -0.171875,0.02148 -0.167969,0.04297 -0.160156,0.06445 -0.150391,0.08203 -0.140625,0.101562 -0.126953,0.119141 -0.109375,0.132812 -0.0918,0.146485 -0.07422,0.15625 -0.05273,0.164062 -0.0332,0.169922 -0.0098,0.171875 0,0.01563 0.0098,0.15625 0.0332,0.169922 0.05273,0.164062 0.07422,0.15625 0.0918,0.146485 0.111328,0.132812 0.125,0.119141 0.140625,0.101562 0.150391,0.08203 0.160156,0.06445 0.167969,0.04297 0.171875,0.02148 0.171875,0 0.171875,-0.02148 0.166015,-0.04297 0.16211,-0.06445 0.15039,-0.08203 0.140625,-0.101562 0.125,-0.119141 0.111328,-0.132812 0.0918,-0.146485 0.07422,-0.15625 0.05273,-0.164062 0.0332,-0.169922 0.0098,-0.171875 -0.0098,-0.171875 -0.0332,-0.169922 -0.05273,-0.164062 -0.07422,-0.15625 -0.0918,-0.146485 -0.111328,-0.132812 -0.125,-0.119141 -0.140625,-0.101562 -0.15039,-0.08203 -0.16211,-0.06445 -0.166015,-0.04297 -0.171875,-0.02148 -0.171875,0 z m 0.03125,0.5 0.109375,0 0.109375,0.01367 0.105468,0.02734 0.103516,0.04102 0.0957,0.05273 0.08789,0.06445 0.08008,0.07617 0.07031,0.08398 0.05859,0.0918 0.04687,0.09961 0.03516,0.105469 0.01953,0.107422 0.0078,0.109375 -0.0078,0.109375 -0.01953,0.107422 -0.03516,0.105469 -0.04687,0.09961 -0.05859,0.0918 -0.07031,0.08398 -0.08008,0.07617 -0.08789,0.06445 -0.0957,0.05273 -0.103516,0.04102 -0.105468,0.02734 -0.109375,0.01367 -0.109375,0 -0.109375,-0.01367 -0.107422,-0.02734 -0.101563,-0.04102 -0.0957,-0.05273 -0.08984,-0.06445 -0.08008,-0.07617 -0.06836,-0.08398 -0.06055,-0.0918 -0.04492,-0.09961 -0.03516,-0.105469 -0.01953,-0.107422 -0.0078,-0.109375 0.0078,-0.109375 0.01953,-0.107422 0.03516,-0.105469 0.04492,-0.09961 0.06055,-0.0918 0.06836,-0.08398 0.08008,-0.07617 0.08984,-0.06445 0.0957,-0.05273 0.101563,-0.04102 0.107422,-0.02734 0.109375,-0.01367 z m -0.03125,27.4003908 -0.171875,0.021484 -0.167969,0.042969 -0.160156,0.064453 -0.152344,0.082031 -0.138672,0.1015626 -0.126953,0.1191406 -0.109375,0.1328125 -0.0918,0.1464843 -0.07422,0.15625 -0.05273,0.1640626 -0.0332,0.1699218 -0.0098,0.171875 0,0.015625 0.0098,0.15625 0.0332,0.1699219 0.05273,0.1640625 0.07422,0.15625 0.0918,0.1464844 0.109375,0.1328125 0.126953,0.1171875 0.140625,0.1015625 0.150391,0.083984 0.160156,0.064453 0.167969,0.042969 0.171875,0.021484 0.171875,0 0.171875,-0.021484 0.166015,-0.042969 0.16211,-0.064453 0.15039,-0.083984 0.140625,-0.1015625 0.125,-0.1171875 0.111328,-0.1328125 0.0918,-0.1464844 0.07422,-0.15625 0.05273,-0.1640625 0.0332,-0.1699219 0.0098,-0.171875 -0.0098,-0.171875 -0.0332,-0.1699218 -0.05273,-0.1640626 -0.07422,-0.15625 -0.0918,-0.1464843 -0.111328,-0.1328125 -0.125,-0.1191406 -0.140625,-0.1015626 -0.15039,-0.082031 -0.16211,-0.064453 -0.166015,-0.042969 -0.171875,-0.021484 -0.171875,0 z m 0.03125,0.5 0.109375,0 0.109375,0.013672 0.105468,0.027344 0.103516,0.041016 0.0957,0.052734 0.08789,0.064453 0.08008,0.074219 0.07031,0.085938 0.05859,0.091797 0.04687,0.099609 0.03516,0.1035156 0.01953,0.109375 0.0078,0.109375 -0.0078,0.109375 -0.01953,0.1074219 -0.03516,0.1054687 -0.04687,0.097656 -0.05859,0.09375 -0.07031,0.083984 -0.08008,0.076172 -0.08789,0.064453 -0.09766,0.052734 -0.101563,0.041016 -0.105468,0.027344 -0.109375,0.013672 -0.109375,0 -0.109375,-0.013672 -0.107422,-0.027344 -0.101563,-0.041016 -0.0957,-0.052734 -0.08984,-0.064453 -0.08008,-0.076172 -0.06836,-0.083984 -0.06055,-0.091797 -0.04492,-0.099609 -0.03516,-0.1054687 -0.01953,-0.1074219 -0.0078,-0.109375 0.0078,-0.109375 0.01953,-0.109375 0.03516,-0.1035156 0.04492,-0.099609 0.06055,-0.091797 0.06836,-0.085938 0.08008,-0.074219 0.08984,-0.064453 0.0957,-0.052734 0.101563,-0.041016 0.107422,-0.027344 0.109375,-0.013672 z m 86.568359,0.421875 -3.7441405,21.5605472 -2.5214844,-0.445313 0.1132813,-0.644531 -1.6074219,0.478516 -1.7910156,10.152343 0.125,0.0918 1.2226562,0.90625 0.1132813,-0.644531 2.5488281,0.449219 L 1.703125,47.25 l 90.259766,0 0,-53.5507812 -80.960938,0 z m 0.419922,0.5 80.041016,0 0,52.5507812 -89.166016,0 L 6.0390625,25.199219 2.5058594,24.576172 2.4472656,24.916016 1.9980469,24.582031 3.6796875,15.039062 4.2167969,14.878906 4.15625,15.220703 7.6640625,15.837891 11.421875,-5.8007812 Z m 4.490234,4.4511718 0,3.7753906 0.25,0 10.34961,0 0,-3.7753906 -10.59961,0 z m 60.5,0 0,3.7753906 0.25,0 10.34961,0 0,-3.7753906 -10.59961,0 z m -60,0.50000002 9.59961,0 0,2.77539058 -9.59961,0 0,-2.77539058 z m 60.5,0 9.59961,0 0,2.77539058 -9.59961,0 0,-2.77539058 z m -101.710937,8.82617188 -0.171875,0.021484 -0.166016,0.042969 -0.160156,0.064453 -0.152344,0.083984 -0.140625,0.1015625 -0.125,0.1171875 -0.109375,0.1328125 -0.09375,0.1464844 -0.07227,0.15625 -0.05469,0.1640625 -0.03125,0.1699219 -0.01172,0.171875 0.002,0.015625 0.0098,0.15625 0.03125,0.1699218 0.05469,0.1640626 0.07227,0.1562502 0.09375,0.146484 0.109375,0.132813 0.125,0.11914 0.140625,0.101563 0.152344,0.08203 0.160156,0.06445 0.166016,0.04297 0.171875,0.02148 0.173828,0 0.169922,-0.02148 0.167969,-0.04297 0.160156,-0.06445 0.152344,-0.08203 0.138671,-0.101563 0.126954,-0.11914 0.109375,-0.132813 0.09375,-0.146484 0.07227,-0.1562502 0.05469,-0.1640626 0.03125,-0.1699218 0.01172,-0.171875 -0.01172,-0.171875 -0.03125,-0.1699219 -0.05469,-0.1640625 -0.07227,-0.15625 -0.09375,-0.1464844 -0.109375,-0.1328125 -0.126954,-0.1171875 -0.138671,-0.1015625 -0.152344,-0.083984 -0.160156,-0.064453 -0.167969,-0.042969 -0.169922,-0.021484 -0.173828,0 z m 0.03125,0.5 0.111328,0 0.107422,0.013672 0.107422,0.027344 0.101562,0.041016 0.0957,0.052734 0.08984,0.064453 0.08008,0.076172 0.07031,0.083984 0.05859,0.09375 0.04687,0.097656 0.0332,0.1054687 0.02148,0.1074219 0.0059,0.109375 -0.0059,0.109375 -0.02148,0.109375 -0.0332,0.1035156 -0.04687,0.099609 -0.05859,0.091797 -0.07031,0.085938 -0.08008,0.074219 -0.08984,0.06445 -0.0957,0.05273 -0.101562,0.04102 -0.107422,0.02734 -0.107422,0.01367 -0.111328,0 -0.107422,-0.01367 -0.107422,-0.02734 -0.101562,-0.04102 -0.0957,-0.05273 -0.08984,-0.06445 -0.08008,-0.074219 -0.07031,-0.085938 -0.05859,-0.091797 -0.04687,-0.099609 -0.0332,-0.1035156 -0.02148,-0.109375 -0.0059,-0.109375 0.0059,-0.109375 0.02148,-0.1074219 0.0332,-0.1054687 0.04687,-0.099609 0.05859,-0.091797 0.07031,-0.083984 0.08008,-0.076172 0.08984,-0.064453 0.0957,-0.052734 0.101562,-0.041016 0.107422,-0.027344 0.107422,-0.013672 z M 29.761719,17.875 l 0,21.199219 0.25,0 41.951172,0 0,-7.34961 1.75,0 0.705078,-0.0059 0.402343,-0.05078 0.396485,-0.101563 0.378906,-0.15039 0.357422,-0.197266 0.330078,-0.238281 0.298828,-0.28125 0.259766,-0.314453 0.21875,-0.34375 0.173828,-0.369141 0.126953,-0.388672 0.07617,-0.400391 0.02539,-0.408203 -0.02539,-0.40625 -0.07617,-0.402343 -0.126953,-0.386719 -0.173828,-0.371094 -0.21875,-0.34375 L 76.582031,26.25 76.283203,25.970703 75.953125,25.730469 75.595703,25.533203 75.216797,25.382812 74.820312,25.28125 l -0.402343,-0.05078 -0.705078,-0.0059 -1.75,0 0,-7.349609 -42.201172,0 z m 0.5,0.5 41.201172,0 0,7.349609 2.248047,0 0.671874,0.0059 0.34375,0.04297 0.335938,0.08594 0.320312,0.126953 0.302735,0.167969 0.279297,0.203125 0.251953,0.236328 0.21875,0.265625 0.185547,0.291016 0.146484,0.3125 0.107422,0.328125 0.06445,0.339843 0.02148,0.34375 -0.02148,0.345703 -0.06445,0.337891 -0.107422,0.328125 -0.146484,0.3125 -0.185547,0.292969 -0.21875,0.265625 -0.251953,0.236328 -0.279297,0.203125 -0.302735,0.166016 -0.320312,0.126953 -0.335938,0.08594 -0.34375,0.04297 -0.671874,0.0059 -2.248047,0 0,7.34961 -41.201172,0 0,-20.199219 z m -4.835938,3.726562 -0.171875,0.02148 -0.166015,0.04297 -0.16211,0.06445 -0.15039,0.08398 -0.140625,0.101563 -0.125,0.117187 -0.111328,0.132813 -0.0918,0.146484 -0.07422,0.15625 -0.05273,0.164062 -0.0332,0.169922 -0.0098,0.171875 0,0.01563 0.0098,0.15625 0.0332,0.169922 0.05273,0.164063 0.07422,0.158203 0.0918,0.144531 0.111328,0.132813 0.125,0.11914 0.140625,0.101563 0.15039,0.08203 0.16211,0.06445 0.166015,0.04297 0.171875,0.02148 0.171875,0 0.171875,-0.02148 0.167969,-0.04297 0.160156,-0.06445 0.152344,-0.08203 0.138672,-0.101563 0.125,-0.11914 0.111328,-0.132813 0.0918,-0.146484 0.07422,-0.15625 0.05273,-0.164063 0.0332,-0.169922 0.0098,-0.171875 -0.0098,-0.171875 -0.0332,-0.169922 -0.05273,-0.164062 -0.07422,-0.15625 -0.0918,-0.146484 -0.109375,-0.132813 -0.126953,-0.117187 -0.140625,-0.101563 -0.150391,-0.08398 -0.160156,-0.06445 -0.167969,-0.04297 -0.171875,-0.02148 -0.171875,0 z m 50.699219,0 -0.169922,0.02148 -0.167969,0.04297 -0.160156,0.06445 -0.152344,0.08398 -0.138671,0.101563 -0.126954,0.117187 -0.109375,0.132813 -0.09375,0.146484 -0.07227,0.15625 -0.05469,0.164062 -0.03125,0.169922 -0.01172,0.171875 0.002,0.01563 0.0098,0.15625 0.03125,0.169922 0.05469,0.164063 0.07227,0.158203 0.09375,0.144531 0.109375,0.132813 0.126954,0.11914 0.138671,0.101563 0.152344,0.08203 0.160156,0.06445 0.167969,0.04297 0.169922,0.02148 0.173828,0 0.169922,-0.02148 0.167969,-0.04297 0.160156,-0.06445 0.152344,-0.08203 0.138672,-0.101563 0.126953,-0.11914 0.109375,-0.132813 0.09375,-0.146484 0.07227,-0.15625 0.05469,-0.164063 0.03125,-0.169922 0.01172,-0.171875 -0.01172,-0.171875 -0.03125,-0.169922 -0.05469,-0.164062 -0.07227,-0.15625 -0.09375,-0.146484 -0.109375,-0.132813 -0.126953,-0.117187 -0.138672,-0.101563 -0.152344,-0.08398 -0.160156,-0.06445 -0.166016,-0.04297 -0.171875,-0.02148 -0.173828,0 z m -50.667969,0.5 0.109375,0 0.109375,0.01367 0.107422,0.02734 0.101563,0.04102 0.0957,0.05273 0.08984,0.06445 0.08008,0.07617 0.06836,0.08398 0.06055,0.0918 0.04492,0.09961 0.03516,0.105468 0.01953,0.107422 0.0078,0.109375 -0.0078,0.109375 -0.01953,0.109375 -0.03516,0.103516 -0.04492,0.09961 -0.06055,0.0918 -0.06836,0.08594 -0.08008,0.07422 -0.08984,0.06445 -0.0957,0.05273 -0.101563,0.04102 -0.107422,0.02734 -0.109375,0.01367 -0.109375,0 -0.109375,-0.01367 -0.105468,-0.02734 -0.101563,-0.04102 -0.09766,-0.05273 -0.08789,-0.06445 -0.08008,-0.07422 -0.07031,-0.08594 -0.05859,-0.0918 -0.04687,-0.09961 -0.03516,-0.103516 -0.01953,-0.109375 -0.0078,-0.109375 0.0078,-0.109375 0.01953,-0.107422 0.03516,-0.105468 0.04687,-0.09766 0.05859,-0.09375 0.07031,-0.08398 0.08008,-0.07617 0.08789,-0.06445 0.0957,-0.05273 0.103516,-0.04102 0.105468,-0.02734 0.109375,-0.01367 z m 50.699219,0 0.111328,0 0.107422,0.01367 0.107422,0.02734 0.101562,0.04102 0.0957,0.05273 0.08984,0.06445 0.08008,0.07617 0.07031,0.08398 0.05859,0.0918 0.04687,0.09961 0.0332,0.105468 0.02148,0.107422 0.0059,0.109375 -0.0059,0.109375 -0.02148,0.109375 -0.0332,0.103516 -0.04687,0.09961 -0.05859,0.0918 -0.07031,0.08594 -0.08008,0.07422 -0.08984,0.06445 -0.0957,0.05273 -0.101562,0.04102 -0.107422,0.02734 -0.107422,0.01367 -0.111328,0 -0.107422,-0.01367 -0.107422,-0.02734 -0.101562,-0.04102 -0.0957,-0.05273 -0.08984,-0.06445 -0.08008,-0.07422 -0.07031,-0.08594 -0.05859,-0.0918 -0.04687,-0.09961 -0.0332,-0.103516 -0.02148,-0.109375 -0.0078,-0.109375 0.0078,-0.109375 0.02148,-0.107422 0.0332,-0.105468 0.04687,-0.09766 0.05859,-0.09375 0.07031,-0.08398 0.08008,-0.07617 0.08984,-0.06445 0.0957,-0.05273 0.101562,-0.04102 0.107422,-0.02734 0.107422,-0.01367 z m -159.603516,2.324219 -0.75,1.5 0.654297,0 0,2.673828 -5.550781,0 0,64 0.25,0 5.300781,0 0,2.675782 -0.654297,0 0.75,1.5 10.308594,0 0.75,-1.5 -0.654297,0 0,-2.675782 57.792969,0 0,2.675782 -0.654297,0 0.75,1.5 10.3085939,0 0.75,-1.5 -0.6542969,0 0,-2.675782 5,0 0,-64 -5,0 0,-2.673828 0.6542969,0 -0.75,-1.5 -10.3085939,0 -0.75,1.5 0.654297,0 0,2.673828 -57.792969,0 0,-2.673828 0.654297,0 -0.75,-1.5 -10.308594,0 z m 0.308594,0.5 9.691406,0 0.25,0.5 -0.345703,0 0,3.673828 58.792969,0 0,-3.673828 -0.345703,0 0.25,-0.5 9.6914061,0 0.25,0.5 -0.3457031,0 0,3.673828 5,0 0,63 -5,0 0,3.675782 0.3457031,0 -0.25,0.5 -9.6914061,0 -0.25,-0.5 0.345703,0 0,-3.675782 -58.792969,0 0,3.675782 0.345703,0 -0.25,0.5 -9.691406,0 -0.25,-0.5 0.345703,0 0,-3.675782 -5.550781,0 0,-63 5.550781,0 0,-3.673828 -0.345703,0 0.25,-0.5 z m 108.564453,6.675781 -0.171875,0.02148 -0.166015,0.04297 -0.16211,0.06445 -0.15039,0.08398 -0.140625,0.101563 -0.125,0.117187 -0.111328,0.132813 -0.0918,0.146484 -0.07422,0.15625 -0.05273,0.164062 -0.0332,0.169922 -0.0098,0.171875 0,0.01563 0.0098,0.15625 0.0332,0.169922 0.05273,0.164063 0.07422,0.158203 0.0918,0.144531 0.111328,0.132813 0.125,0.11914 0.140625,0.101563 0.15039,0.08203 0.16211,0.06445 0.166015,0.04297 0.171875,0.02148 0.171875,0 0.171875,-0.02148 0.167969,-0.04297 0.160156,-0.06445 0.152344,-0.08203 0.138672,-0.101563 0.125,-0.11914 0.111328,-0.132813 0.0918,-0.146484 0.07422,-0.15625 0.05273,-0.164063 0.0332,-0.169922 0.0098,-0.171875 -0.0098,-0.171875 -0.0332,-0.169922 -0.05273,-0.164062 -0.07422,-0.15625 -0.0918,-0.146484 -0.109375,-0.132813 -0.126953,-0.117187 -0.140625,-0.101563 -0.150391,-0.08398 -0.160156,-0.06445 -0.167969,-0.04297 -0.171875,-0.02148 -0.171875,0 z m 50.699219,0 -0.169922,0.02148 -0.167969,0.04297 -0.160156,0.06445 -0.152344,0.08398 -0.138671,0.101563 -0.126954,0.117187 -0.109375,0.132813 -0.09375,0.146484 -0.07227,0.15625 -0.05469,0.164062 -0.03125,0.169922 -0.01172,0.171875 0.002,0.01563 0.0098,0.15625 0.03125,0.169922 0.05469,0.164063 0.07227,0.158203 0.09375,0.144531 0.109375,0.132813 0.126954,0.11914 0.138671,0.101563 0.152344,0.08203 0.160156,0.06445 0.167969,0.04297 0.169922,0.02148 0.173828,0 0.169922,-0.02148 0.167969,-0.04297 0.160156,-0.06445 0.152344,-0.08203 0.138672,-0.101563 0.126953,-0.11914 0.109375,-0.132813 0.09375,-0.146484 0.07227,-0.15625 0.05469,-0.164063 0.03125,-0.169922 0.01172,-0.171875 -0.01172,-0.171875 -0.03125,-0.169922 -0.05469,-0.164062 -0.07227,-0.15625 -0.09375,-0.146484 -0.109375,-0.132813 -0.126953,-0.117187 -0.138672,-0.101563 -0.152344,-0.08398 -0.160156,-0.06445 -0.166016,-0.04297 -0.171875,-0.02148 -0.173828,0 z m -50.667969,0.5 0.109375,0 0.109375,0.01367 0.107422,0.02734 0.101563,0.04102 0.0957,0.05273 0.08984,0.06445 0.08008,0.07617 0.06836,0.08398 0.06055,0.0918 0.04492,0.09961 0.03516,0.105468 0.01953,0.107422 0.0078,0.109375 -0.0078,0.109375 -0.01953,0.109375 -0.03516,0.103516 -0.04492,0.09961 -0.06055,0.0918 -0.06836,0.08594 -0.08008,0.07422 -0.08984,0.06445 -0.0957,0.05273 -0.101563,0.04102 -0.107422,0.02734 -0.109375,0.01367 -0.109375,0 -0.109375,-0.01367 -0.105468,-0.02734 -0.101563,-0.04102 -0.09766,-0.05273 -0.08789,-0.06445 -0.08008,-0.07422 -0.07031,-0.08594 -0.05859,-0.0918 -0.04687,-0.09961 -0.03516,-0.103516 -0.01953,-0.109375 -0.0078,-0.109375 0.0078,-0.109375 0.01953,-0.107422 0.03516,-0.105468 0.04687,-0.09766 0.05859,-0.09375 0.07031,-0.08398 0.08008,-0.07617 0.08789,-0.06445 0.0957,-0.05273 0.103516,-0.04102 0.105468,-0.02734 0.109375,-0.01367 z m 50.699219,0 0.111328,0 0.107422,0.01367 0.107422,0.02734 0.101562,0.04102 0.0957,0.05273 0.08984,0.06445 0.08008,0.07617 0.07031,0.08398 0.05859,0.0918 0.04687,0.09961 0.0332,0.105468 0.02148,0.107422 0.0059,0.109375 -0.0059,0.109375 -0.02148,0.109375 -0.0332,0.103516 -0.04687,0.09961 -0.05859,0.0918 -0.07031,0.08594 -0.08008,0.07422 -0.08984,0.06445 -0.0957,0.05273 -0.101562,0.04102 -0.107422,0.02734 -0.107422,0.01367 -0.111328,0 -0.107422,-0.01367 -0.107422,-0.02734 -0.101562,-0.04102 -0.0957,-0.05273 -0.08984,-0.06445 -0.08008,-0.07422 -0.07031,-0.08594 -0.05859,-0.0918 -0.04687,-0.09961 -0.0332,-0.103516 -0.02148,-0.109375 -0.0078,-0.109375 0.0078,-0.109375 0.02148,-0.107422 0.0332,-0.105468 0.04687,-0.09766 0.05859,-0.09375 0.07031,-0.08398 0.08008,-0.07617 0.08984,-0.06445 0.0957,-0.05273 0.101562,-0.04102 0.107422,-0.02734 0.107422,-0.01367 z m -140.605469,4.347657 0,5.5 0.25,0 2.75,0 0,-5.5 -3,0 z m 44.199219,0 0,5.5 0.25,0 2.75,0 0,-5.5 -3,0 z m -43.699219,0.5 2,0 0,4.5 -2,0 0,-4.5 z m 44.199219,0 2,0 0,4.5 -2,0 0,-4.5 z m 27.8691406,1.076172 0,3.77539 0.25,0 10.3496094,0 0,-3.77539 -10.5996094,0 z m 68.2929684,0 0,3.77539 0.25,0 10.34961,0 0,-3.77539 -10.59961,0 z m -67.7929684,0.5 9.5996094,0 0,2.77539 -9.5996094,0 0,-2.77539 z m 68.2929684,0 9.59961,0 0,2.77539 -9.59961,0 0,-2.77539 z m -46.8125,9.783203 -3.767578,0.476562 -3.679687,0.945313 -3.533203,1.398437 -3.328125,1.830078 -3.074219,2.232422 -2.7675782,2.601563 -2.421875,2.925781 -2.0351563,3.207031 -1.6191406,3.4375 L 2.6992188,71.476562 1.9882812,75.208984 1.75,79 l 0,0.01563 0.2382812,3.775391 0.7109376,3.732422 1.1738281,3.613281 1.6191406,3.4375 2.0351563,3.207031 2.421875,2.925781 2.7675782,2.601559 3.074219,2.23243 3.328125,1.83007 3.533203,1.39844 3.679687,0.94531 3.767578,0.47657 3.800782,0 3.767578,-0.47657 3.679687,-0.94531 3.533203,-1.39844 3.328125,-1.83007 3.074219,-2.23243 2.767578,-2.601559 2.421875,-2.925781 2.035156,-3.207031 1.619141,-3.4375 1.173828,-3.613281 0.710938,-3.732422 L 62.25,79 l -0.238281,-3.791016 -0.710938,-3.732422 -1.173828,-3.613281 -1.619141,-3.4375 -2.035156,-3.207031 -2.421875,-2.925781 -2.767578,-2.601563 -3.074219,-2.232422 -3.328125,-1.830078 -3.533203,-1.398437 -3.679687,-0.945313 -3.767578,-0.476562 -3.800782,0 z m 0.0332,0.5 3.734376,0 3.707031,0.46875 3.61914,0.929687 3.472657,1.375 3.27539,1.798828 3.021485,2.197266 2.722656,2.556641 2.382812,2.878906 2.001953,3.154297 1.589844,3.380859 1.154297,3.552734 0.701172,3.669922 L 61.75,79 l -0.234375,3.728516 -0.701172,3.669922 -1.154297,3.552734 -1.589844,3.380859 -2.001953,3.154297 -2.382812,2.878906 -2.722656,2.556646 -3.021485,2.19726 -3.27539,1.79883 -3.472657,1.375 -3.61914,0.92969 -3.707031,0.46875 -3.734376,0 -3.707031,-0.46875 -3.61914,-0.92969 -3.472657,-1.375 -3.27539,-1.79883 -3.021485,-2.19726 L 10.314453,99.365234 7.9316406,96.486328 5.9296875,93.332031 4.3398438,89.951172 3.1855469,86.398438 2.484375,82.728516 2.2519531,79 2.484375,75.271484 l 0.7011719,-3.669922 1.1542969,-3.552734 1.5898437,-3.380859 2.0019531,-3.154297 2.3828124,-2.878906 2.722656,-2.556641 3.021485,-2.197266 3.27539,-1.798828 3.472657,-1.375 3.61914,-0.929687 3.707031,-0.46875 z m -107.0625,3.6875 -0.171874,0.02148 -0.167969,0.04297 -0.160157,0.06445 -0.15039,0.08203 -0.140625,0.101563 -0.125,0.11914 -0.111328,0.132813 -0.0918,0.146484 -0.07422,0.15625 -0.05273,0.164063 -0.0332,0.169922 -0.0098,0.171875 0,0.01563 0.0098,0.15625 0.0332,0.169922 0.05273,0.164062 0.07422,0.15625 0.0918,0.146484 0.111328,0.132813 0.125,0.119141 0.140625,0.101562 0.15039,0.08203 0.160157,0.06445 0.167969,0.04297 0.171874,0.02148 0.171876,0 0.171874,-0.02148 0.167969,-0.04297 0.160157,-0.06445 0.15039,-0.08203 0.140625,-0.101562 0.125,-0.119141 0.111328,-0.132813 0.0918,-0.146484 0.07422,-0.15625 0.05273,-0.164062 0.0332,-0.169922 0.0098,-0.171875 -0.0098,-0.171875 -0.0332,-0.169922 -0.05273,-0.164063 -0.07422,-0.15625 -0.0918,-0.146484 -0.111328,-0.132813 -0.125,-0.11914 -0.140625,-0.101563 -0.15039,-0.08203 -0.160157,-0.06445 -0.167969,-0.04297 -0.171874,-0.02148 -0.171876,0 z m 0.03125,0.5 0.109376,0 0.109374,0.01367 0.105469,0.02734 0.103516,0.04102 0.0957,0.05273 0.08789,0.06445 0.08008,0.07422 0.07031,0.08594 0.05859,0.0918 0.04687,0.09961 0.03516,0.105469 0.01953,0.107422 0.0078,0.109375 -0.0078,0.109375 -0.01953,0.107422 -0.03516,0.105468 -0.04687,0.09961 -0.05859,0.0918 -0.07031,0.08398 -0.08008,0.07617 -0.08789,0.06445 -0.0957,0.05273 -0.103516,0.04102 -0.105469,0.02734 -0.109374,0.01367 -0.109376,0 -0.109374,-0.01367 -0.105469,-0.02734 -0.103516,-0.04102 -0.0957,-0.05273 -0.08789,-0.06445 -0.08008,-0.07617 -0.07031,-0.08398 -0.05859,-0.0918 -0.04687,-0.09961 -0.03516,-0.105468 -0.01953,-0.107422 -0.0078,-0.109375 0.0078,-0.109375 0.01953,-0.107422 0.03516,-0.105469 0.04687,-0.09961 0.05859,-0.0918 0.07031,-0.08594 0.08008,-0.07422 0.08789,-0.06445 0.0957,-0.05273 0.103516,-0.04102 0.105469,-0.02734 0.109374,-0.01367 z m 108.8125,9.130859 -0.171874,0.02148 -0.167969,0.04297 -0.160157,0.06445 -0.15039,0.08203 -0.140625,0.101562 -0.125,0.119141 -0.111328,0.132812 -0.0918,0.146485 -0.07422,0.15625 -0.05273,0.164062 -0.0332,0.169922 -0.0098,0.164063 0,8.015624 0,0.0078 0.0098,0.15625 0.0332,0.169922 0.05273,0.164062 0.07422,0.15625 0.0918,0.146485 0.111328,0.132812 0.125,0.119141 0.140625,0.101562 0.15039,0.08203 0.160157,0.06445 0.167969,0.04297 0.171874,0.02148 0.171876,0 0.171874,-0.02148 0.167969,-0.04297 0.160157,-0.06445 0.15039,-0.08203 0.140625,-0.101562 0.125,-0.119141 0.111328,-0.132812 0.0918,-0.146485 0.07422,-0.15625 0.05273,-0.164062 0.0332,-0.169922 0.0098,-0.164063 0,-8.015624 -0.0098,-0.164063 -0.0332,-0.169922 -0.05273,-0.164062 -0.07422,-0.15625 -0.0918,-0.146485 -0.111328,-0.132812 -0.125,-0.119141 -0.140625,-0.101562 -0.15039,-0.08203 -0.160157,-0.06445 -0.167969,-0.04297 -0.171874,-0.02148 -0.171876,0 z m 0.03125,0.5 0.109376,0 0.109374,0.01367 0.105469,0.02734 0.103516,0.04102 0.0957,0.05273 0.08789,0.06445 0.08008,0.07617 0.07031,0.08398 0.05859,0.0918 0.04687,0.09961 0.03516,0.105469 0.01953,0.107422 0.0078,0.117187 0,7.984376 -0.0078,0.117187 -0.01953,0.107422 -0.03516,0.105469 -0.04687,0.09961 -0.05859,0.0918 -0.07031,0.08398 -0.08008,0.07617 -0.08789,0.06445 -0.0957,0.05273 -0.103516,0.04102 -0.105469,0.02734 -0.109374,0.01367 -0.109376,0 -0.109374,-0.01367 -0.105469,-0.02734 -0.103516,-0.04102 -0.0957,-0.05273 -0.08789,-0.06445 -0.08008,-0.07617 -0.07031,-0.08398 -0.05859,-0.0918 -0.04687,-0.09961 -0.03516,-0.105469 -0.01953,-0.107422 L 31.125,72 l 0,-7.992188 0.0078,-0.117187 0.01953,-0.107422 0.03516,-0.105469 0.04687,-0.09961 0.05859,-0.0918 0.07031,-0.08398 0.08008,-0.07617 0.08789,-0.06445 0.0957,-0.05273 0.103516,-0.04102 0.105469,-0.02734 0.109374,-0.01367 z m -108.875,3.332031 -0.171874,0.02148 -0.167969,0.04297 -0.160157,0.0625 -0.15039,0.08398 -0.140625,0.101562 -0.125,0.117188 -0.111328,0.134766 -0.0918,0.144531 -0.07422,0.15625 -0.05273,0.164062 -0.0332,0.169922 -0.0098,0.171875 0,0.01758 0.0098,0.15625 0.0332,0.169922 0.05273,0.164063 0.07422,0.15625 0.0918,0.144531 0.111328,0.134766 0.125,0.117187 0.140625,0.101563 0.15039,0.08398 0.160157,0.0625 0.167969,0.04297 0.171874,0.02148 0.171876,0 0.171874,-0.02148 0.167969,-0.04297 0.160157,-0.0625 0.15039,-0.08398 0.140625,-0.101563 0.125,-0.117187 0.111328,-0.134766 0.0918,-0.144531 0.07422,-0.15625 0.05273,-0.164063 0.0332,-0.169922 0.0098,-0.173828 -0.0098,-0.171875 -0.0332,-0.169922 -0.05273,-0.164062 -0.07422,-0.15625 -0.0918,-0.144531 -0.111328,-0.134766 -0.125,-0.117188 -0.140625,-0.101562 -0.15039,-0.08398 -0.160157,-0.0625 -0.167969,-0.04297 -0.171874,-0.02148 -0.171876,0 z m 0.03125,0.5 0.109376,0 0.109374,0.01367 0.105469,0.02734 0.103516,0.03906 0.0957,0.05273 0.08789,0.06445 0.08008,0.07617 0.07031,0.08398 0.05859,0.09375 0.04687,0.09961 0.03516,0.103515 0.01953,0.107422 0.0078,0.109375 -0.0078,0.111328 -0.01953,0.107422 -0.03516,0.103516 -0.04687,0.09961 -0.05859,0.09375 -0.07031,0.08398 -0.08008,0.07422 -0.08789,0.06641 -0.0957,0.05273 -0.103516,0.03906 -0.105469,0.02734 -0.109374,0.01367 -0.109376,0 -0.109374,-0.01367 -0.105469,-0.02734 -0.103516,-0.03906 -0.0957,-0.05273 -0.08789,-0.06641 -0.08008,-0.07422 -0.07031,-0.08398 -0.05859,-0.09375 -0.04687,-0.09961 -0.03516,-0.103516 -0.01953,-0.107422 -0.0059,-0.109375 0.0059,-0.111328 0.01953,-0.107422 0.03516,-0.103515 0.04687,-0.09961 0.05859,-0.09375 0.07031,-0.08398 0.08008,-0.07617 0.08789,-0.06445 0.0957,-0.05273 0.103516,-0.03906 0.105469,-0.02734 0.109374,-0.01367 z m 108.744141,8.603516 -0.105469,0.105469 0.05078,0 -0.416016,0.05273 0.04883,-0.01172 -0.130859,-0.07617 -0.296875,0.07617 -0.07617,0.128907 0.04883,-0.01172 -0.390625,0.154297 0.04492,-0.02539 -0.144531,-0.04102 -0.269532,0.148438 -0.04102,0.142578 0.04297,-0.02344 -0.337891,0.246093 0.03516,-0.0332 -0.148437,-0.0059 -0.22461,0.210937 -0.0059,0.150391 0.03711,-0.03516 -0.267578,0.322265 0.02734,-0.04102 -0.146484,0.0332 -0.164063,0.257812 0.0332,0.146485 0.02539,-0.04102 -0.177735,0.378906 0.01563,-0.04687 -0.134765,0.06641 -0.09375,0.292968 0.06836,0.132813 0.01563,-0.04687 -0.08008,0.412109 0.0039,-0.05078 -0.113281,0.09961 -0.01758,0.306641 0.06836,0.07813 0.0293,0.03516 0.0039,-0.05078 0.02539,0.417969 -0.0078,-0.04883 -0.08594,0.125 0.05859,0.300781 0.123047,0.08398 -0.0078,-0.04883 0.128906,0.398438 -0.02148,-0.04492 -0.05078,0.140625 0.130859,0.279297 0.140625,0.05078 -0.02148,-0.04687 0.224609,0.355469 -0.03125,-0.03906 -0.01367,0.148438 0.195313,0.236328 0.15039,0.01563 -0.0332,-0.03906 0.306641,0.28711 -0.04102,-0.0293 0.02344,0.148437 0.248047,0.179688 0.148437,-0.02344 -0.04102,-0.0293 0.367187,0.201172 -0.04492,-0.01758 0.05859,0.136719 0.285156,0.113281 0.138672,-0.05859 -0.04687,-0.01953 0.40625,0.105469 -0.05078,-0.0059 0.0918,0.117187 0.304687,0.03906 0.119141,-0.0918 -0.04883,-0.0059 0.417968,0 -0.04883,0.0059 0.119141,0.0918 0.304687,-0.03906 0.0918,-0.117187 -0.05078,0.0059 0.40625,-0.105469 -0.04687,0.01953 0.138672,0.05859 0.285156,-0.113281 0.05859,-0.136719 -0.04492,0.01758 0.367187,-0.201172 -0.04102,0.0293 0.148437,0.02344 0.248047,-0.179688 0.02344,-0.148437 -0.04102,0.0293 0.306641,-0.28711 -0.0332,0.03906 0.15039,-0.01563 0.195313,-0.236328 -0.01367,-0.148438 -0.03125,0.03906 0.224609,-0.355469 -0.02148,0.04687 0.140625,-0.05078 0.130859,-0.279297 -0.05078,-0.140625 -0.02148,0.04492 0.128906,-0.398438 -0.0078,0.04883 0.123047,-0.08398 0.05859,-0.300781 -0.08594,-0.125 -0.0078,0.04883 L 35.337891,79 l 0.0039,0.05078 0.09766,-0.113281 -0.01758,-0.306641 -0.113281,-0.09961 0.0039,0.05078 -0.08008,-0.412109 0.01563,0.04687 0.06836,-0.132813 -0.09375,-0.292968 -0.134765,-0.06641 0.01563,0.04687 -0.177735,-0.378906 0.02539,0.04102 0.0332,-0.146485 -0.164063,-0.257812 -0.146484,-0.0332 0.02734,0.04102 -0.267578,-0.322265 0.03711,0.03516 -0.0059,-0.150391 -0.22461,-0.210937 -0.148437,0.0059 0.03516,0.0332 -0.337891,-0.246093 0.04297,0.02344 -0.04102,-0.142578 -0.269532,-0.148438 -0.144531,0.04102 0.04492,0.02539 -0.390625,-0.154297 0.04883,0.01172 -0.07617,-0.128907 -0.296875,-0.07617 -0.130859,0.07617 0.04883,0.01172 -0.416016,-0.05273 0.05078,0 -0.105469,-0.105469 -0.308594,0 z M 32,76.115234 l 0.05273,0.05273 0.125,0 0.353516,0.04492 0.121094,0.03125 0.06445,-0.03711 0.03906,0.06445 0.121094,0.03125 0.330078,0.13086 0.111328,0.06055 0.07227,-0.02148 0.01953,0.07227 0.109375,0.06055 0.289063,0.208984 0.0918,0.08594 0.07422,-0.002 0.002,0.07422 0.0918,0.08594 0.226563,0.273437 0.06836,0.105469 0.07227,0.01563 -0.01758,0.07422 0.06836,0.105468 0.152344,0.322266 0.03711,0.119141 0.06641,0.03516 -0.0332,0.06641 0.03906,0.119141 0.06641,0.349609 0.0078,0.125 0.05469,0.04883 -0.04883,0.05664 0.0098,0.125 -0.02344,0.355469 -0.02344,0.123047 0.04102,0.0625 -0.06055,0.04102 -0.02344,0.123047 -0.109375,0.339844 -0.05469,0.113281 0.02539,0.07031 -0.07031,0.02539 -0.05273,0.113282 -0.191406,0.300781 -0.08008,0.0957 0.0078,0.07617 -0.07422,0.0059 -0.08008,0.0957 -0.259765,0.244141 -0.101563,0.07422 -0.01172,0.07422 -0.07422,-0.01172 -0.101563,0.07422 -0.3125,0.169922 -0.115234,0.04687 -0.0293,0.06836 -0.06836,-0.0293 -0.117188,0.04492 -0.345703,0.08984 -0.125,0.01563 -0.04492,0.05859 -0.05859,-0.04492 -0.125,0.01563 -0.355468,0 -0.125,-0.01563 -0.05859,0.04492 -0.04492,-0.05859 -0.125,-0.01563 -0.345703,-0.08984 -0.117188,-0.04492 -0.06836,0.0293 -0.0293,-0.06836 -0.115234,-0.04687 -0.3125,-0.169922 -0.101563,-0.07422 -0.07422,0.01172 -0.01172,-0.07422 -0.101563,-0.07422 -0.259765,-0.244141 -0.08008,-0.0957 -0.07422,-0.0059 0.0078,-0.07617 -0.08008,-0.0957 -0.191406,-0.300781 -0.05273,-0.113282 -0.07031,-0.02539 0.02539,-0.07031 -0.05469,-0.113281 -0.109375,-0.339844 -0.02344,-0.123047 -0.06055,-0.04102 0.04102,-0.0625 -0.02344,-0.123047 L 29.162109,79 l 0.0098,-0.125 -0.04883,-0.05664 0.05469,-0.04883 0.0078,-0.125 0.06641,-0.349609 0.03906,-0.119141 -0.0332,-0.06641 0.06641,-0.03516 0.03711,-0.119141 0.152344,-0.322266 0.06836,-0.105468 -0.01758,-0.07422 0.07227,-0.01563 0.06836,-0.105469 0.226563,-0.273437 0.0918,-0.08594 0.002,-0.07422 0.07422,0.002 0.0918,-0.08594 0.289063,-0.208984 0.109375,-0.06055 0.01953,-0.07227 0.07227,0.02148 0.111328,-0.06055 0.330078,-0.13086 0.121094,-0.03125 0.03906,-0.06445 0.06445,0.03711 0.121094,-0.03125 0.353516,-0.04492 0.125,0 L 32,76.115234 Z M -64.449219,79.75 l 0,5.5 0.25,0 2.75,0 0,-5.5 -3,0 z m 44.199219,0 0,5.5 0.25,0 2.75,0 0,-5.5 -3,0 z m -43.699219,0.5 2,0 0,4.5 -2,0 0,-4.5 z m 44.199219,0 2,0 0,4.5 -2,0 0,-4.5 z m 51.664062,4.376953 -0.171874,0.02148 -0.167969,0.04297 -0.160157,0.06445 -0.15039,0.08203 -0.140625,0.101562 -0.125,0.119141 -0.111328,0.132812 -0.0918,0.146485 -0.07422,0.15625 -0.05273,0.164062 -0.0332,0.169922 -0.0098,0.164063 0,8.015624 0,0.0078 0.0098,0.15625 0.0332,0.169922 0.05273,0.164062 0.07422,0.15625 0.0918,0.146485 0.111328,0.132812 0.125,0.119141 0.140625,0.101562 0.15039,0.08203 0.160157,0.06445 0.167969,0.04297 0.171874,0.02148 0.171876,0 0.171874,-0.02148 0.167969,-0.04297 0.160157,-0.06445 0.15039,-0.08203 0.140625,-0.101562 0.125,-0.119141 0.111328,-0.132812 0.0918,-0.146485 0.07422,-0.15625 0.05273,-0.164062 0.0332,-0.169922 0.0098,-0.164063 0,-8.015624 -0.0098,-0.164063 -0.0332,-0.169922 -0.05273,-0.164062 -0.07422,-0.15625 -0.0918,-0.146485 -0.111328,-0.132812 -0.125,-0.119141 -0.140625,-0.101562 -0.15039,-0.08203 -0.160157,-0.06445 -0.167969,-0.04297 -0.171874,-0.02148 -0.171876,0 z m 0.03125,0.5 0.109376,0 0.109374,0.01367 0.105469,0.02734 0.103516,0.04102 0.0957,0.05273 0.08789,0.06445 0.08008,0.07617 0.07031,0.08398 0.05859,0.0918 0.04687,0.09961 0.03516,0.105469 0.01953,0.107422 0.0078,0.117187 0,7.984376 -0.0078,0.117187 -0.01953,0.107422 -0.03516,0.105469 -0.04687,0.09961 -0.05859,0.0918 -0.07031,0.08398 -0.08008,0.07617 -0.08789,0.06445 -0.0957,0.05273 -0.103516,0.04102 -0.105469,0.02734 -0.109374,0.01367 -0.109376,0 -0.109374,-0.01367 -0.105469,-0.02734 -0.103516,-0.04102 -0.0957,-0.05273 -0.08789,-0.06445 -0.08008,-0.07617 -0.07031,-0.08398 -0.05859,-0.0918 -0.04687,-0.09961 -0.03516,-0.105469 -0.01953,-0.107422 L 31.125,94 l 0,-7.992188 0.0078,-0.117187 0.01953,-0.107422 0.03516,-0.105469 0.04687,-0.09961 0.05859,-0.0918 0.07031,-0.08398 0.08008,-0.07617 0.08789,-0.06445 0.0957,-0.05273 0.103516,-0.04102 0.105469,-0.02734 0.109374,-0.01367 z"
     id="path4190"
     inkscape:connector-curvature="0" />
</svg>
