  0
SECTION
  2
BLOCKS
  0
ENDSEC
  0
SECTION
  2
ENTITIES
  0
LINE
  8
0
 10
-30
 20
0
 11
-29.3444
 21
-6.23735
  0
LINE
  8
0
 10
-29.3444
 20
-6.23735
 11
-27.4064
 21
-12.2021
  0
LINE
  8
0
 10
-27.4064
 20
-12.2021
 11
-24.2705
 21
-17.6336
  0
LINE
  8
0
 10
-24.2705
 20
-17.6336
 11
-20.0739
 21
-22.2943
  0
LINE
  8
0
 10
-20.0739
 20
-22.2943
 11
-15
 21
-25.9808
  0
LINE
  8
0
 10
-15
 20
-25.9808
 11
-9.27051
 21
-28.5317
  0
LINE
  8
0
 10
-9.27051
 20
-28.5317
 11
-3.13585
 21
-29.8357
  0
LINE
  8
0
 10
-3.13585
 20
-29.8357
 11
3.13585
 21
-29.8357
  0
LINE
  8
0
 10
3.13585
 20
-29.8357
 11
9.27051
 21
-28.5317
  0
LINE
  8
0
 10
9.27051
 20
-28.5317
 11
15
 21
-25.9808
  0
LINE
  8
0
 10
15
 20
-25.9808
 11
20.0739
 21
-22.2943
  0
LINE
  8
0
 10
20.0739
 20
-22.2943
 11
24.2705
 21
-17.6336
  0
LINE
  8
0
 10
24.2705
 20
-17.6336
 11
27.4064
 21
-12.2021
  0
LINE
  8
0
 10
27.4064
 20
-12.2021
 11
29.3444
 21
-6.23735
  0
LINE
  8
0
 10
29.3444
 20
-6.23735
 11
30
 21
0
  0
LINE
  8
0
 10
30
 20
0
 11
29.3444
 21
6.23735
  0
LINE
  8
0
 10
29.3444
 20
6.23735
 11
27.4064
 21
12.2021
  0
LINE
  8
0
 10
27.4064
 20
12.2021
 11
24.2705
 21
17.6336
  0
LINE
  8
0
 10
24.2705
 20
17.6336
 11
20.0739
 21
22.2943
  0
LINE
  8
0
 10
20.0739
 20
22.2943
 11
15
 21
25.9808
  0
LINE
  8
0
 10
15
 20
25.9808
 11
9.27051
 21
28.5317
  0
LINE
  8
0
 10
9.27051
 20
28.5317
 11
3.13585
 21
29.8357
  0
LINE
  8
0
 10
3.13585
 20
29.8357
 11
-3.13585
 21
29.8357
  0
LINE
  8
0
 10
-3.13585
 20
29.8357
 11
-9.27051
 21
28.5317
  0
LINE
  8
0
 10
-9.27051
 20
28.5317
 11
-15
 21
25.9808
  0
LINE
  8
0
 10
-15
 20
25.9808
 11
-20.0739
 21
22.2943
  0
LINE
  8
0
 10
-20.0739
 20
22.2943
 11
-24.2705
 21
17.6336
  0
LINE
  8
0
 10
-24.2705
 20
17.6336
 11
-27.4064
 21
12.2021
  0
LINE
  8
0
 10
-27.4064
 20
12.2021
 11
-29.3444
 21
6.23735
  0
LINE
  8
0
 10
-29.3444
 20
6.23735
 11
-30
 21
0
  0
LINE
  8
0
 10
-0.910144
 20
-0.661258
 11
-0.910144
 21
0.661258
  0
LINE
  8
0
 10
-0.910144
 20
0.661258
 11
0.347644
 21
1.06994
  0
LINE
  8
0
 10
0.347644
 20
1.06994
 11
1.125
 21
0
  0
LINE
  8
0
 10
1.125
 20
0
 11
0.347644
 21
-1.06994
  0
LINE
  8
0
 10
0.347644
 20
-1.06994
 11
-0.910144
 21
-0.661258
  0
ENDSEC
  0
SECTION
  2
OBJECTS
  0
DICTIONARY
  0
ENDSEC
  0
EOF
