  0
SECTION
  2
BLOCKS
  0
ENDSEC
  0
SECTION
  2
ENTITIES
  0
LINE
  8
0
 10
-90.3632
 20
-17
 11
-85.3632
 21
-17
  0
LINE
  8
0
 10
-85.3632
 20
-17
 11
-85.3632
 21
-22
  0
LINE
  8
0
 10
-85.3632
 20
-22
 11
-85.8632
 21
-22
  0
LINE
  8
0
 10
-85.8632
 20
-22
 11
-85.3632
 21
-23
  0
LINE
  8
0
 10
-85.3632
 20
-23
 11
-75.3632
 21
-23
  0
LINE
  8
0
 10
-75.3632
 20
-23
 11
-74.8632
 21
-22
  0
LINE
  8
0
 10
-74.8632
 20
-22
 11
-75.3632
 21
-22
  0
LINE
  8
0
 10
-75.3632
 20
-22
 11
-75.3632
 21
-17
  0
LINE
  8
0
 10
-75.3632
 20
-17
 11
-24.8632
 21
-17
  0
LINE
  8
0
 10
-24.8632
 20
-17
 11
-24.8632
 21
-22
  0
LINE
  8
0
 10
-24.8632
 20
-22
 11
-25.3632
 21
-22
  0
LINE
  8
0
 10
-25.3632
 20
-22
 11
-24.8632
 21
-23
  0
LINE
  8
0
 10
-24.8632
 20
-23
 11
-14.8632
 21
-23
  0
LINE
  8
0
 10
-14.8632
 20
-23
 11
-14.3632
 21
-22
  0
LINE
  8
0
 10
-14.3632
 20
-22
 11
-14.8632
 21
-22
  0
LINE
  8
0
 10
-14.8632
 20
-22
 11
-14.8632
 21
-17
  0
LINE
  8
0
 10
-14.8632
 20
-17
 11
-9.86322
 21
-17
  0
LINE
  8
0
 10
-9.86322
 20
-17
 11
-9.86322
 21
46.5
  0
LINE
  8
0
 10
-9.86322
 20
46.5
 11
-14.8632
 21
46.5
  0
LINE
  8
0
 10
-14.8632
 20
46.5
 11
-14.8632
 21
51.5
  0
LINE
  8
0
 10
-14.8632
 20
51.5
 11
-14.3632
 21
51.5
  0
LINE
  8
0
 10
-14.3632
 20
51.5
 11
-14.8632
 21
52.5
  0
LINE
  8
0
 10
-14.8632
 20
52.5
 11
-24.8632
 21
52.5
  0
LINE
  8
0
 10
-24.8632
 20
52.5
 11
-25.3632
 21
51.5
  0
LINE
  8
0
 10
-25.3632
 20
51.5
 11
-24.8632
 21
51.5
  0
LINE
  8
0
 10
-24.8632
 20
51.5
 11
-24.8632
 21
46.5
  0
LINE
  8
0
 10
-24.8632
 20
46.5
 11
-75.3632
 21
46.5
  0
LINE
  8
0
 10
-75.3632
 20
46.5
 11
-75.3632
 21
51.5
  0
LINE
  8
0
 10
-75.3632
 20
51.5
 11
-74.8632
 21
51.5
  0
LINE
  8
0
 10
-74.8632
 20
51.5
 11
-75.3632
 21
52.5
  0
LINE
  8
0
 10
-75.3632
 20
52.5
 11
-85.3632
 21
52.5
  0
LINE
  8
0
 10
-85.3632
 20
52.5
 11
-85.8632
 21
51.5
  0
LINE
  8
0
 10
-85.8632
 20
51.5
 11
-85.3632
 21
51.5
  0
LINE
  8
0
 10
-85.3632
 20
51.5
 11
-85.3632
 21
46.5
  0
LINE
  8
0
 10
-85.3632
 20
46.5
 11
-90.3632
 21
46.5
  0
LINE
  8
0
 10
-90.3632
 20
46.5
 11
-90.3632
 21
-17
  0
LINE
  8
0
 10
-77.2882
 20
5.84999
 11
-77.2793
 21
5.99098
  0
LINE
  8
0
 10
-77.2793
 20
5.99098
 11
-77.2529
 21
6.12976
  0
LINE
  8
0
 10
-77.2529
 20
6.12976
 11
-77.2092
 21
6.26413
  0
LINE
  8
0
 10
-77.2092
 20
6.26413
 11
-77.1491
 21
6.39195
  0
LINE
  8
0
 10
-77.1491
 20
6.39195
 11
-77.0734
 21
6.51125
  0
LINE
  8
0
 10
-77.0734
 20
6.51125
 11
-76.9833
 21
6.6201
  0
LINE
  8
0
 10
-76.9833
 20
6.6201
 11
-76.8803
 21
6.71681
  0
LINE
  8
0
 10
-76.8803
 20
6.71681
 11
-76.766
 21
6.79985
  0
LINE
  8
0
 10
-76.766
 20
6.79985
 11
-76.6422
 21
6.86792
  0
LINE
  8
0
 10
-76.6422
 20
6.86792
 11
-76.5109
 21
6.91992
  0
LINE
  8
0
 10
-76.5109
 20
6.91992
 11
-76.374
 21
6.95506
  0
LINE
  8
0
 10
-76.374
 20
6.95506
 11
-76.2339
 21
6.97276
  0
LINE
  8
0
 10
-76.2339
 20
6.97276
 11
-76.0926
 21
6.97276
  0
LINE
  8
0
 10
-76.0926
 20
6.97276
 11
-75.9524
 21
6.95506
  0
LINE
  8
0
 10
-75.9524
 20
6.95506
 11
-75.8156
 21
6.91992
  0
LINE
  8
0
 10
-75.8156
 20
6.91992
 11
-75.6842
 21
6.86792
  0
LINE
  8
0
 10
-75.6842
 20
6.86792
 11
-75.5604
 21
6.79985
  0
LINE
  8
0
 10
-75.5604
 20
6.79985
 11
-75.4461
 21
6.71681
  0
LINE
  8
0
 10
-75.4461
 20
6.71681
 11
-75.3431
 21
6.6201
  0
LINE
  8
0
 10
-75.3431
 20
6.6201
 11
-75.2531
 21
6.51125
  0
LINE
  8
0
 10
-75.2531
 20
6.51125
 11
-75.1774
 21
6.39195
  0
LINE
  8
0
 10
-75.1774
 20
6.39195
 11
-75.1172
 21
6.26413
  0
LINE
  8
0
 10
-75.1172
 20
6.26413
 11
-75.0736
 21
6.12976
  0
LINE
  8
0
 10
-75.0736
 20
6.12976
 11
-75.0471
 21
5.99098
  0
LINE
  8
0
 10
-75.0471
 20
5.99098
 11
-75.0382
 21
5.84999
  0
LINE
  8
0
 10
-75.0382
 20
5.84999
 11
-75.0471
 21
5.70898
  0
LINE
  8
0
 10
-75.0471
 20
5.70898
 11
-75.0736
 21
5.57021
  0
LINE
  8
0
 10
-75.0736
 20
5.57021
 11
-75.1172
 21
5.43585
  0
LINE
  8
0
 10
-75.1172
 20
5.43585
 11
-75.1774
 21
5.30801
  0
LINE
  8
0
 10
-75.1774
 20
5.30801
 11
-75.2531
 21
5.18872
  0
LINE
  8
0
 10
-75.2531
 20
5.18872
 11
-75.3431
 21
5.07986
  0
LINE
  8
0
 10
-75.3431
 20
5.07986
 11
-75.4461
 21
4.98315
  0
LINE
  8
0
 10
-75.4461
 20
4.98315
 11
-75.5604
 21
4.90012
  0
LINE
  8
0
 10
-75.5604
 20
4.90012
 11
-75.6842
 21
4.83206
  0
LINE
  8
0
 10
-75.6842
 20
4.83206
 11
-75.8156
 21
4.78004
  0
LINE
  8
0
 10
-75.8156
 20
4.78004
 11
-75.9524
 21
4.74492
  0
LINE
  8
0
 10
-75.9524
 20
4.74492
 11
-76.0926
 21
4.7272
  0
LINE
  8
0
 10
-76.0926
 20
4.7272
 11
-76.2339
 21
4.7272
  0
LINE
  8
0
 10
-76.2339
 20
4.7272
 11
-76.374
 21
4.74492
  0
LINE
  8
0
 10
-76.374
 20
4.74492
 11
-76.5109
 21
4.78004
  0
LINE
  8
0
 10
-76.5109
 20
4.78004
 11
-76.6422
 21
4.83206
  0
LINE
  8
0
 10
-76.6422
 20
4.83206
 11
-76.766
 21
4.90012
  0
LINE
  8
0
 10
-76.766
 20
4.90012
 11
-76.8803
 21
4.98315
  0
LINE
  8
0
 10
-76.8803
 20
4.98315
 11
-76.9833
 21
5.07986
  0
LINE
  8
0
 10
-76.9833
 20
5.07986
 11
-77.0734
 21
5.18872
  0
LINE
  8
0
 10
-77.0734
 20
5.18872
 11
-77.1491
 21
5.30801
  0
LINE
  8
0
 10
-77.1491
 20
5.30801
 11
-77.2092
 21
5.43585
  0
LINE
  8
0
 10
-77.2092
 20
5.43585
 11
-77.2529
 21
5.57021
  0
LINE
  8
0
 10
-77.2529
 20
5.57021
 11
-77.2793
 21
5.70898
  0
LINE
  8
0
 10
-77.2793
 20
5.70898
 11
-77.2882
 21
5.84999
  0
LINE
  8
0
 10
-77.2882
 20
33.75
 11
-77.2793
 21
33.891
  0
LINE
  8
0
 10
-77.2793
 20
33.891
 11
-77.2529
 21
34.0298
  0
LINE
  8
0
 10
-77.2529
 20
34.0298
 11
-77.2092
 21
34.1641
  0
LINE
  8
0
 10
-77.2092
 20
34.1641
 11
-77.1491
 21
34.292
  0
LINE
  8
0
 10
-77.1491
 20
34.292
 11
-77.0734
 21
34.4112
  0
LINE
  8
0
 10
-77.0734
 20
34.4112
 11
-76.9833
 21
34.5201
  0
LINE
  8
0
 10
-76.9833
 20
34.5201
 11
-76.8803
 21
34.6168
  0
LINE
  8
0
 10
-76.8803
 20
34.6168
 11
-76.766
 21
34.6999
  0
LINE
  8
0
 10
-76.766
 20
34.6999
 11
-76.6422
 21
34.7679
  0
LINE
  8
0
 10
-76.6422
 20
34.7679
 11
-76.5109
 21
34.8199
  0
LINE
  8
0
 10
-76.5109
 20
34.8199
 11
-76.374
 21
34.8551
  0
LINE
  8
0
 10
-76.374
 20
34.8551
 11
-76.2339
 21
34.8728
  0
LINE
  8
0
 10
-76.2339
 20
34.8728
 11
-76.0926
 21
34.8728
  0
LINE
  8
0
 10
-76.0926
 20
34.8728
 11
-75.9524
 21
34.8551
  0
LINE
  8
0
 10
-75.9524
 20
34.8551
 11
-75.8156
 21
34.8199
  0
LINE
  8
0
 10
-75.8156
 20
34.8199
 11
-75.6842
 21
34.7679
  0
LINE
  8
0
 10
-75.6842
 20
34.7679
 11
-75.5604
 21
34.6999
  0
LINE
  8
0
 10
-75.5604
 20
34.6999
 11
-75.4461
 21
34.6168
  0
LINE
  8
0
 10
-75.4461
 20
34.6168
 11
-75.3431
 21
34.5201
  0
LINE
  8
0
 10
-75.3431
 20
34.5201
 11
-75.2531
 21
34.4112
  0
LINE
  8
0
 10
-75.2531
 20
34.4112
 11
-75.1774
 21
34.292
  0
LINE
  8
0
 10
-75.1774
 20
34.292
 11
-75.1172
 21
34.1641
  0
LINE
  8
0
 10
-75.1172
 20
34.1641
 11
-75.0736
 21
34.0298
  0
LINE
  8
0
 10
-75.0736
 20
34.0298
 11
-75.0471
 21
33.891
  0
LINE
  8
0
 10
-75.0471
 20
33.891
 11
-75.0382
 21
33.75
  0
LINE
  8
0
 10
-75.0382
 20
33.75
 11
-75.0471
 21
33.609
  0
LINE
  8
0
 10
-75.0471
 20
33.609
 11
-75.0736
 21
33.4702
  0
LINE
  8
0
 10
-75.0736
 20
33.4702
 11
-75.1172
 21
33.3358
  0
LINE
  8
0
 10
-75.1172
 20
33.3358
 11
-75.1774
 21
33.208
  0
LINE
  8
0
 10
-75.1774
 20
33.208
 11
-75.2531
 21
33.0887
  0
LINE
  8
0
 10
-75.2531
 20
33.0887
 11
-75.3431
 21
32.9799
  0
LINE
  8
0
 10
-75.3431
 20
32.9799
 11
-75.4461
 21
32.8832
  0
LINE
  8
0
 10
-75.4461
 20
32.8832
 11
-75.5604
 21
32.8001
  0
LINE
  8
0
 10
-75.5604
 20
32.8001
 11
-75.6842
 21
32.7321
  0
LINE
  8
0
 10
-75.6842
 20
32.7321
 11
-75.8156
 21
32.6801
  0
LINE
  8
0
 10
-75.8156
 20
32.6801
 11
-75.9524
 21
32.6449
  0
LINE
  8
0
 10
-75.9524
 20
32.6449
 11
-76.0926
 21
32.6272
  0
LINE
  8
0
 10
-76.0926
 20
32.6272
 11
-76.2339
 21
32.6272
  0
LINE
  8
0
 10
-76.2339
 20
32.6272
 11
-76.374
 21
32.6449
  0
LINE
  8
0
 10
-76.374
 20
32.6449
 11
-76.5109
 21
32.6801
  0
LINE
  8
0
 10
-76.5109
 20
32.6801
 11
-76.6422
 21
32.7321
  0
LINE
  8
0
 10
-76.6422
 20
32.7321
 11
-76.766
 21
32.8001
  0
LINE
  8
0
 10
-76.766
 20
32.8001
 11
-76.8803
 21
32.8832
  0
LINE
  8
0
 10
-76.8803
 20
32.8832
 11
-76.9833
 21
32.9799
  0
LINE
  8
0
 10
-76.9833
 20
32.9799
 11
-77.0734
 21
33.0887
  0
LINE
  8
0
 10
-77.0734
 20
33.0887
 11
-77.1491
 21
33.208
  0
LINE
  8
0
 10
-77.1491
 20
33.208
 11
-77.2092
 21
33.3358
  0
LINE
  8
0
 10
-77.2092
 20
33.3358
 11
-77.2529
 21
33.4702
  0
LINE
  8
0
 10
-77.2529
 20
33.4702
 11
-77.2793
 21
33.609
  0
LINE
  8
0
 10
-77.2793
 20
33.609
 11
-77.2882
 21
33.75
  0
LINE
  8
0
 10
-26.4882
 20
-9.35001
 11
-26.4794
 21
-9.20901
  0
LINE
  8
0
 10
-26.4794
 20
-9.20901
 11
-26.4529
 21
-9.07024
  0
LINE
  8
0
 10
-26.4529
 20
-9.07024
 11
-26.4092
 21
-8.93587
  0
LINE
  8
0
 10
-26.4092
 20
-8.93587
 11
-26.3491
 21
-8.80804
  0
LINE
  8
0
 10
-26.3491
 20
-8.80804
 11
-26.2734
 21
-8.68875
  0
LINE
  8
0
 10
-26.2734
 20
-8.68875
 11
-26.1833
 21
-8.5799
  0
LINE
  8
0
 10
-26.1833
 20
-8.5799
 11
-26.0803
 21
-8.48318
  0
LINE
  8
0
 10
-26.0803
 20
-8.48318
 11
-25.966
 21
-8.40015
  0
LINE
  8
0
 10
-25.966
 20
-8.40015
 11
-25.8422
 21
-8.33208
  0
LINE
  8
0
 10
-25.8422
 20
-8.33208
 11
-25.7109
 21
-8.28008
  0
LINE
  8
0
 10
-25.7109
 20
-8.28008
 11
-25.574
 21
-8.24493
  0
LINE
  8
0
 10
-25.574
 20
-8.24493
 11
-25.4339
 21
-8.22723
  0
LINE
  8
0
 10
-25.4339
 20
-8.22723
 11
-25.2926
 21
-8.22723
  0
LINE
  8
0
 10
-25.2926
 20
-8.22723
 11
-25.1524
 21
-8.24493
  0
LINE
  8
0
 10
-25.1524
 20
-8.24493
 11
-25.0156
 21
-8.28008
  0
LINE
  8
0
 10
-25.0156
 20
-8.28008
 11
-24.8842
 21
-8.33208
  0
LINE
  8
0
 10
-24.8842
 20
-8.33208
 11
-24.7604
 21
-8.40015
  0
LINE
  8
0
 10
-24.7604
 20
-8.40015
 11
-24.6461
 21
-8.48318
  0
LINE
  8
0
 10
-24.6461
 20
-8.48318
 11
-24.5431
 21
-8.5799
  0
LINE
  8
0
 10
-24.5431
 20
-8.5799
 11
-24.4531
 21
-8.68875
  0
LINE
  8
0
 10
-24.4531
 20
-8.68875
 11
-24.3774
 21
-8.80804
  0
LINE
  8
0
 10
-24.3774
 20
-8.80804
 11
-24.3172
 21
-8.93587
  0
LINE
  8
0
 10
-24.3172
 20
-8.93587
 11
-24.2736
 21
-9.07024
  0
LINE
  8
0
 10
-24.2736
 20
-9.07024
 11
-24.2471
 21
-9.20901
  0
LINE
  8
0
 10
-24.2471
 20
-9.20901
 11
-24.2382
 21
-9.35001
  0
LINE
  8
0
 10
-24.2382
 20
-9.35001
 11
-24.2471
 21
-9.491
  0
LINE
  8
0
 10
-24.2471
 20
-9.491
 11
-24.2736
 21
-9.62978
  0
LINE
  8
0
 10
-24.2736
 20
-9.62978
 11
-24.3172
 21
-9.76414
  0
LINE
  8
0
 10
-24.3172
 20
-9.76414
 11
-24.3774
 21
-9.89197
  0
LINE
  8
0
 10
-24.3774
 20
-9.89197
 11
-24.4531
 21
-10.0113
  0
LINE
  8
0
 10
-24.4531
 20
-10.0113
 11
-24.5431
 21
-10.1201
  0
LINE
  8
0
 10
-24.5431
 20
-10.1201
 11
-24.6461
 21
-10.2168
  0
LINE
  8
0
 10
-24.6461
 20
-10.2168
 11
-24.7604
 21
-10.2999
  0
LINE
  8
0
 10
-24.7604
 20
-10.2999
 11
-24.8842
 21
-10.3679
  0
LINE
  8
0
 10
-24.8842
 20
-10.3679
 11
-25.0156
 21
-10.4199
  0
LINE
  8
0
 10
-25.0156
 20
-10.4199
 11
-25.1524
 21
-10.4551
  0
LINE
  8
0
 10
-25.1524
 20
-10.4551
 11
-25.2926
 21
-10.4728
  0
LINE
  8
0
 10
-25.2926
 20
-10.4728
 11
-25.4339
 21
-10.4728
  0
LINE
  8
0
 10
-25.4339
 20
-10.4728
 11
-25.574
 21
-10.4551
  0
LINE
  8
0
 10
-25.574
 20
-10.4551
 11
-25.7109
 21
-10.4199
  0
LINE
  8
0
 10
-25.7109
 20
-10.4199
 11
-25.8422
 21
-10.3679
  0
LINE
  8
0
 10
-25.8422
 20
-10.3679
 11
-25.966
 21
-10.2999
  0
LINE
  8
0
 10
-25.966
 20
-10.2999
 11
-26.0803
 21
-10.2168
  0
LINE
  8
0
 10
-26.0803
 20
-10.2168
 11
-26.1833
 21
-10.1201
  0
LINE
  8
0
 10
-26.1833
 20
-10.1201
 11
-26.2734
 21
-10.0113
  0
LINE
  8
0
 10
-26.2734
 20
-10.0113
 11
-26.3491
 21
-9.89197
  0
LINE
  8
0
 10
-26.3491
 20
-9.89197
 11
-26.4092
 21
-9.76414
  0
LINE
  8
0
 10
-26.4092
 20
-9.76414
 11
-26.4529
 21
-9.62978
  0
LINE
  8
0
 10
-26.4529
 20
-9.62978
 11
-26.4794
 21
-9.491
  0
LINE
  8
0
 10
-26.4794
 20
-9.491
 11
-26.4882
 21
-9.35001
  0
LINE
  8
0
 10
-25.1882
 20
38.85
 11
-25.1794
 21
38.991
  0
LINE
  8
0
 10
-25.1794
 20
38.991
 11
-25.1529
 21
39.1298
  0
LINE
  8
0
 10
-25.1529
 20
39.1298
 11
-25.1092
 21
39.2641
  0
LINE
  8
0
 10
-25.1092
 20
39.2641
 11
-25.0491
 21
39.392
  0
LINE
  8
0
 10
-25.0491
 20
39.392
 11
-24.9734
 21
39.5112
  0
LINE
  8
0
 10
-24.9734
 20
39.5112
 11
-24.8833
 21
39.6201
  0
LINE
  8
0
 10
-24.8833
 20
39.6201
 11
-24.7803
 21
39.7168
  0
LINE
  8
0
 10
-24.7803
 20
39.7168
 11
-24.666
 21
39.7999
  0
LINE
  8
0
 10
-24.666
 20
39.7999
 11
-24.5422
 21
39.8679
  0
LINE
  8
0
 10
-24.5422
 20
39.8679
 11
-24.4109
 21
39.9199
  0
LINE
  8
0
 10
-24.4109
 20
39.9199
 11
-24.274
 21
39.9551
  0
LINE
  8
0
 10
-24.274
 20
39.9551
 11
-24.1339
 21
39.9728
  0
LINE
  8
0
 10
-24.1339
 20
39.9728
 11
-23.9926
 21
39.9728
  0
LINE
  8
0
 10
-23.9926
 20
39.9728
 11
-23.8524
 21
39.9551
  0
LINE
  8
0
 10
-23.8524
 20
39.9551
 11
-23.7156
 21
39.9199
  0
LINE
  8
0
 10
-23.7156
 20
39.9199
 11
-23.5842
 21
39.8679
  0
LINE
  8
0
 10
-23.5842
 20
39.8679
 11
-23.4604
 21
39.7999
  0
LINE
  8
0
 10
-23.4604
 20
39.7999
 11
-23.3461
 21
39.7168
  0
LINE
  8
0
 10
-23.3461
 20
39.7168
 11
-23.2431
 21
39.6201
  0
LINE
  8
0
 10
-23.2431
 20
39.6201
 11
-23.1531
 21
39.5112
  0
LINE
  8
0
 10
-23.1531
 20
39.5112
 11
-23.0774
 21
39.392
  0
LINE
  8
0
 10
-23.0774
 20
39.392
 11
-23.0172
 21
39.2641
  0
LINE
  8
0
 10
-23.0172
 20
39.2641
 11
-22.9736
 21
39.1298
  0
LINE
  8
0
 10
-22.9736
 20
39.1298
 11
-22.9471
 21
38.991
  0
LINE
  8
0
 10
-22.9471
 20
38.991
 11
-22.9382
 21
38.85
  0
LINE
  8
0
 10
-22.9382
 20
38.85
 11
-22.9471
 21
38.709
  0
LINE
  8
0
 10
-22.9471
 20
38.709
 11
-22.9736
 21
38.5702
  0
LINE
  8
0
 10
-22.9736
 20
38.5702
 11
-23.0172
 21
38.4359
  0
LINE
  8
0
 10
-23.0172
 20
38.4359
 11
-23.0774
 21
38.308
  0
LINE
  8
0
 10
-23.0774
 20
38.308
 11
-23.1531
 21
38.1887
  0
LINE
  8
0
 10
-23.1531
 20
38.1887
 11
-23.2431
 21
38.0799
  0
LINE
  8
0
 10
-23.2431
 20
38.0799
 11
-23.3461
 21
37.9832
  0
LINE
  8
0
 10
-23.3461
 20
37.9832
 11
-23.4604
 21
37.9001
  0
LINE
  8
0
 10
-23.4604
 20
37.9001
 11
-23.5842
 21
37.8321
  0
LINE
  8
0
 10
-23.5842
 20
37.8321
 11
-23.7156
 21
37.78
  0
LINE
  8
0
 10
-23.7156
 20
37.78
 11
-23.8524
 21
37.7449
  0
LINE
  8
0
 10
-23.8524
 20
37.7449
 11
-23.9926
 21
37.7272
  0
LINE
  8
0
 10
-23.9926
 20
37.7272
 11
-24.1339
 21
37.7272
  0
LINE
  8
0
 10
-24.1339
 20
37.7272
 11
-24.274
 21
37.7449
  0
LINE
  8
0
 10
-24.274
 20
37.7449
 11
-24.4109
 21
37.78
  0
LINE
  8
0
 10
-24.4109
 20
37.78
 11
-24.5422
 21
37.8321
  0
LINE
  8
0
 10
-24.5422
 20
37.8321
 11
-24.666
 21
37.9001
  0
LINE
  8
0
 10
-24.666
 20
37.9001
 11
-24.7803
 21
37.9832
  0
LINE
  8
0
 10
-24.7803
 20
37.9832
 11
-24.8833
 21
38.0799
  0
LINE
  8
0
 10
-24.8833
 20
38.0799
 11
-24.9734
 21
38.1887
  0
LINE
  8
0
 10
-24.9734
 20
38.1887
 11
-25.0491
 21
38.308
  0
LINE
  8
0
 10
-25.0491
 20
38.308
 11
-25.1092
 21
38.4359
  0
LINE
  8
0
 10
-25.1092
 20
38.4359
 11
-25.1529
 21
38.5702
  0
LINE
  8
0
 10
-25.1529
 20
38.5702
 11
-25.1794
 21
38.709
  0
LINE
  8
0
 10
-25.1794
 20
38.709
 11
-25.1882
 21
38.85
  0
LINE
  8
0
 10
-89.495
 20
-96.5
 11
-83.6267
 21
-96.5
  0
LINE
  8
0
 10
-83.6267
 20
-96.5
 11
-83.6267
 21
-101.5
  0
LINE
  8
0
 10
-83.6267
 20
-101.5
 11
-84.1267
 21
-101.5
  0
LINE
  8
0
 10
-84.1267
 20
-101.5
 11
-83.6267
 21
-102.5
  0
LINE
  8
0
 10
-83.6267
 20
-102.5
 11
-73.6267
 21
-102.5
  0
LINE
  8
0
 10
-73.6267
 20
-102.5
 11
-73.1267
 21
-101.5
  0
LINE
  8
0
 10
-73.1267
 20
-101.5
 11
-73.6267
 21
-101.5
  0
LINE
  8
0
 10
-73.6267
 20
-101.5
 11
-73.6267
 21
-96.5
  0
LINE
  8
0
 10
-73.6267
 20
-96.5
 11
-15
 21
-96.5
  0
LINE
  8
0
 10
-15
 20
-96.5
 11
-15
 21
-101.5
  0
LINE
  8
0
 10
-15
 20
-101.5
 11
-15.5
 21
-101.5
  0
LINE
  8
0
 10
-15.5
 20
-101.5
 11
-15
 21
-102.5
  0
LINE
  8
0
 10
-15
 20
-102.5
 11
-5.00001
 21
-102.5
  0
LINE
  8
0
 10
-5.00001
 20
-102.5
 11
-4.50001
 21
-101.5
  0
LINE
  8
0
 10
-4.50001
 20
-101.5
 11
-5.00001
 21
-101.5
  0
LINE
  8
0
 10
-5.00001
 20
-101.5
 11
-5.00001
 21
-96.5
  0
LINE
  8
0
 10
-5.00001
 20
-96.5
 11
-1.04904e-05
 21
-96.5
  0
LINE
  8
0
 10
-1.04904e-05
 20
-96.5
 11
-1.04904e-05
 21
-33
  0
LINE
  8
0
 10
-1.04904e-05
 20
-33
 11
-5.00001
 21
-33
  0
LINE
  8
0
 10
-5.00001
 20
-33
 11
-5.00001
 21
-28
  0
LINE
  8
0
 10
-5.00001
 20
-28
 11
-4.50001
 21
-28
  0
LINE
  8
0
 10
-4.50001
 20
-28
 11
-5.00001
 21
-27
  0
LINE
  8
0
 10
-5.00001
 20
-27
 11
-15
 21
-27
  0
LINE
  8
0
 10
-15
 20
-27
 11
-15.5
 21
-28
  0
LINE
  8
0
 10
-15.5
 20
-28
 11
-15
 21
-28
  0
LINE
  8
0
 10
-15
 20
-28
 11
-15
 21
-33
  0
LINE
  8
0
 10
-15
 20
-33
 11
-73.6267
 21
-33
  0
LINE
  8
0
 10
-73.6267
 20
-33
 11
-73.6267
 21
-28
  0
LINE
  8
0
 10
-73.6267
 20
-28
 11
-73.1267
 21
-28
  0
LINE
  8
0
 10
-73.1267
 20
-28
 11
-73.6267
 21
-27
  0
LINE
  8
0
 10
-73.6267
 20
-27
 11
-83.6267
 21
-27
  0
LINE
  8
0
 10
-83.6267
 20
-27
 11
-84.1267
 21
-28
  0
LINE
  8
0
 10
-84.1267
 20
-28
 11
-83.6267
 21
-28
  0
LINE
  8
0
 10
-83.6267
 20
-28
 11
-83.6267
 21
-33
  0
LINE
  8
0
 10
-83.6267
 20
-33
 11
-89.495
 21
-33
  0
LINE
  8
0
 10
-89.495
 20
-33
 11
-89.495
 21
-96.5
  0
LINE
  8
0
 10
-78.62
 20
-71.481
 11
-78.6111
 21
-71.34
  0
LINE
  8
0
 10
-78.6111
 20
-71.34
 11
-78.5846
 21
-71.2012
  0
LINE
  8
0
 10
-78.5846
 20
-71.2012
 11
-78.541
 21
-71.0669
  0
LINE
  8
0
 10
-78.541
 20
-71.0669
 11
-78.4808
 21
-70.939
  0
LINE
  8
0
 10
-78.4808
 20
-70.939
 11
-78.4051
 21
-70.8197
  0
LINE
  8
0
 10
-78.4051
 20
-70.8197
 11
-78.3151
 21
-70.7109
  0
LINE
  8
0
 10
-78.3151
 20
-70.7109
 11
-78.2121
 21
-70.6142
  0
LINE
  8
0
 10
-78.2121
 20
-70.6142
 11
-78.0978
 21
-70.5311
  0
LINE
  8
0
 10
-78.0978
 20
-70.5311
 11
-77.974
 21
-70.4631
  0
LINE
  8
0
 10
-77.974
 20
-70.4631
 11
-77.8426
 21
-70.4111
  0
LINE
  8
0
 10
-77.8426
 20
-70.4111
 11
-77.7058
 21
-70.3759
  0
LINE
  8
0
 10
-77.7058
 20
-70.3759
 11
-77.5656
 21
-70.3582
  0
LINE
  8
0
 10
-77.5656
 20
-70.3582
 11
-77.4243
 21
-70.3582
  0
LINE
  8
0
 10
-77.4243
 20
-70.3582
 11
-77.2842
 21
-70.3759
  0
LINE
  8
0
 10
-77.2842
 20
-70.3759
 11
-77.1473
 21
-70.4111
  0
LINE
  8
0
 10
-77.1473
 20
-70.4111
 11
-77.016
 21
-70.4631
  0
LINE
  8
0
 10
-77.016
 20
-70.4631
 11
-76.8922
 21
-70.5311
  0
LINE
  8
0
 10
-76.8922
 20
-70.5311
 11
-76.7779
 21
-70.6142
  0
LINE
  8
0
 10
-76.7779
 20
-70.6142
 11
-76.6749
 21
-70.7109
  0
LINE
  8
0
 10
-76.6749
 20
-70.7109
 11
-76.5848
 21
-70.8197
  0
LINE
  8
0
 10
-76.5848
 20
-70.8197
 11
-76.5091
 21
-70.939
  0
LINE
  8
0
 10
-76.5091
 20
-70.939
 11
-76.449
 21
-71.0669
  0
LINE
  8
0
 10
-76.449
 20
-71.0669
 11
-76.4053
 21
-71.2012
  0
LINE
  8
0
 10
-76.4053
 20
-71.2012
 11
-76.3789
 21
-71.34
  0
LINE
  8
0
 10
-76.3789
 20
-71.34
 11
-76.37
 21
-71.481
  0
LINE
  8
0
 10
-76.37
 20
-71.481
 11
-76.3789
 21
-71.622
  0
LINE
  8
0
 10
-76.3789
 20
-71.622
 11
-76.4053
 21
-71.7608
  0
LINE
  8
0
 10
-76.4053
 20
-71.7608
 11
-76.449
 21
-71.8951
  0
LINE
  8
0
 10
-76.449
 20
-71.8951
 11
-76.5091
 21
-72.023
  0
LINE
  8
0
 10
-76.5091
 20
-72.023
 11
-76.5848
 21
-72.1423
  0
LINE
  8
0
 10
-76.5848
 20
-72.1423
 11
-76.6749
 21
-72.2511
  0
LINE
  8
0
 10
-76.6749
 20
-72.2511
 11
-76.7779
 21
-72.3478
  0
LINE
  8
0
 10
-76.7779
 20
-72.3478
 11
-76.8922
 21
-72.4309
  0
LINE
  8
0
 10
-76.8922
 20
-72.4309
 11
-77.016
 21
-72.4989
  0
LINE
  8
0
 10
-77.016
 20
-72.4989
 11
-77.1473
 21
-72.5509
  0
LINE
  8
0
 10
-77.1473
 20
-72.5509
 11
-77.2842
 21
-72.5861
  0
LINE
  8
0
 10
-77.2842
 20
-72.5861
 11
-77.4243
 21
-72.6038
  0
LINE
  8
0
 10
-77.4243
 20
-72.6038
 11
-77.5656
 21
-72.6038
  0
LINE
  8
0
 10
-77.5656
 20
-72.6038
 11
-77.7058
 21
-72.5861
  0
LINE
  8
0
 10
-77.7058
 20
-72.5861
 11
-77.8426
 21
-72.5509
  0
LINE
  8
0
 10
-77.8426
 20
-72.5509
 11
-77.974
 21
-72.4989
  0
LINE
  8
0
 10
-77.974
 20
-72.4989
 11
-78.0978
 21
-72.4309
  0
LINE
  8
0
 10
-78.0978
 20
-72.4309
 11
-78.2121
 21
-72.3478
  0
LINE
  8
0
 10
-78.2121
 20
-72.3478
 11
-78.3151
 21
-72.2511
  0
LINE
  8
0
 10
-78.3151
 20
-72.2511
 11
-78.4051
 21
-72.1423
  0
LINE
  8
0
 10
-78.4051
 20
-72.1423
 11
-78.4808
 21
-72.023
  0
LINE
  8
0
 10
-78.4808
 20
-72.023
 11
-78.541
 21
-71.8951
  0
LINE
  8
0
 10
-78.541
 20
-71.8951
 11
-78.5846
 21
-71.7608
  0
LINE
  8
0
 10
-78.5846
 20
-71.7608
 11
-78.6111
 21
-71.622
  0
LINE
  8
0
 10
-78.6111
 20
-71.622
 11
-78.62
 21
-71.481
  0
LINE
  8
0
 10
-78.62
 20
-58.019
 11
-78.6111
 21
-57.878
  0
LINE
  8
0
 10
-78.6111
 20
-57.878
 11
-78.5846
 21
-57.7392
  0
LINE
  8
0
 10
-78.5846
 20
-57.7392
 11
-78.541
 21
-57.6049
  0
LINE
  8
0
 10
-78.541
 20
-57.6049
 11
-78.4808
 21
-57.477
  0
LINE
  8
0
 10
-78.4808
 20
-57.477
 11
-78.4051
 21
-57.3577
  0
LINE
  8
0
 10
-78.4051
 20
-57.3577
 11
-78.3151
 21
-57.2489
  0
LINE
  8
0
 10
-78.3151
 20
-57.2489
 11
-78.2121
 21
-57.1522
  0
LINE
  8
0
 10
-78.2121
 20
-57.1522
 11
-78.0978
 21
-57.0691
  0
LINE
  8
0
 10
-78.0978
 20
-57.0691
 11
-77.974
 21
-57.0011
  0
LINE
  8
0
 10
-77.974
 20
-57.0011
 11
-77.8426
 21
-56.9491
  0
LINE
  8
0
 10
-77.8426
 20
-56.9491
 11
-77.7058
 21
-56.9139
  0
LINE
  8
0
 10
-77.7058
 20
-56.9139
 11
-77.5656
 21
-56.8962
  0
LINE
  8
0
 10
-77.5656
 20
-56.8962
 11
-77.4243
 21
-56.8962
  0
LINE
  8
0
 10
-77.4243
 20
-56.8962
 11
-77.2842
 21
-56.9139
  0
LINE
  8
0
 10
-77.2842
 20
-56.9139
 11
-77.1473
 21
-56.9491
  0
LINE
  8
0
 10
-77.1473
 20
-56.9491
 11
-77.016
 21
-57.0011
  0
LINE
  8
0
 10
-77.016
 20
-57.0011
 11
-76.8922
 21
-57.0691
  0
LINE
  8
0
 10
-76.8922
 20
-57.0691
 11
-76.7779
 21
-57.1522
  0
LINE
  8
0
 10
-76.7779
 20
-57.1522
 11
-76.6749
 21
-57.2489
  0
LINE
  8
0
 10
-76.6749
 20
-57.2489
 11
-76.5848
 21
-57.3577
  0
LINE
  8
0
 10
-76.5848
 20
-57.3577
 11
-76.5091
 21
-57.477
  0
LINE
  8
0
 10
-76.5091
 20
-57.477
 11
-76.449
 21
-57.6049
  0
LINE
  8
0
 10
-76.449
 20
-57.6049
 11
-76.4053
 21
-57.7392
  0
LINE
  8
0
 10
-76.4053
 20
-57.7392
 11
-76.3789
 21
-57.878
  0
LINE
  8
0
 10
-76.3789
 20
-57.878
 11
-76.37
 21
-58.019
  0
LINE
  8
0
 10
-76.37
 20
-58.019
 11
-76.3789
 21
-58.16
  0
LINE
  8
0
 10
-76.3789
 20
-58.16
 11
-76.4053
 21
-58.2988
  0
LINE
  8
0
 10
-76.4053
 20
-58.2988
 11
-76.449
 21
-58.4332
  0
LINE
  8
0
 10
-76.449
 20
-58.4332
 11
-76.5091
 21
-58.561
  0
LINE
  8
0
 10
-76.5091
 20
-58.561
 11
-76.5848
 21
-58.6803
  0
LINE
  8
0
 10
-76.5848
 20
-58.6803
 11
-76.6749
 21
-58.7891
  0
LINE
  8
0
 10
-76.6749
 20
-58.7891
 11
-76.7779
 21
-58.8858
  0
LINE
  8
0
 10
-76.7779
 20
-58.8858
 11
-76.8922
 21
-58.9689
  0
LINE
  8
0
 10
-76.8922
 20
-58.9689
 11
-77.016
 21
-59.0369
  0
LINE
  8
0
 10
-77.016
 20
-59.0369
 11
-77.1473
 21
-59.0889
  0
LINE
  8
0
 10
-77.1473
 20
-59.0889
 11
-77.2842
 21
-59.1241
  0
LINE
  8
0
 10
-77.2842
 20
-59.1241
 11
-77.4243
 21
-59.1418
  0
LINE
  8
0
 10
-77.4243
 20
-59.1418
 11
-77.5656
 21
-59.1418
  0
LINE
  8
0
 10
-77.5656
 20
-59.1418
 11
-77.7058
 21
-59.1241
  0
LINE
  8
0
 10
-77.7058
 20
-59.1241
 11
-77.8426
 21
-59.0889
  0
LINE
  8
0
 10
-77.8426
 20
-59.0889
 11
-77.974
 21
-59.0369
  0
LINE
  8
0
 10
-77.974
 20
-59.0369
 11
-78.0978
 21
-58.9689
  0
LINE
  8
0
 10
-78.0978
 20
-58.9689
 11
-78.2121
 21
-58.8858
  0
LINE
  8
0
 10
-78.2121
 20
-58.8858
 11
-78.3151
 21
-58.7891
  0
LINE
  8
0
 10
-78.3151
 20
-58.7891
 11
-78.4051
 21
-58.6803
  0
LINE
  8
0
 10
-78.4051
 20
-58.6803
 11
-78.4808
 21
-58.561
  0
LINE
  8
0
 10
-78.4808
 20
-58.561
 11
-78.541
 21
-58.4332
  0
LINE
  8
0
 10
-78.541
 20
-58.4332
 11
-78.5846
 21
-58.2988
  0
LINE
  8
0
 10
-78.5846
 20
-58.2988
 11
-78.6111
 21
-58.16
  0
LINE
  8
0
 10
-78.6111
 20
-58.16
 11
-78.62
 21
-58.019
  0
LINE
  8
0
 10
-64.4
 20
-88.6
 11
-64.4
 21
-83.6
  0
LINE
  8
0
 10
-64.4
 20
-83.6
 11
-61.9
 21
-83.6
  0
LINE
  8
0
 10
-61.9
 20
-83.6
 11
-61.9
 21
-88.6
  0
LINE
  8
0
 10
-61.9
 20
-88.6
 11
-64.4
 21
-88.6
  0
LINE
  8
0
 10
-64.4
 20
-45.9
 11
-64.4
 21
-40.9
  0
LINE
  8
0
 10
-64.4
 20
-40.9
 11
-61.9
 21
-40.9
  0
LINE
  8
0
 10
-61.9
 20
-40.9
 11
-61.9
 21
-45.9
  0
LINE
  8
0
 10
-61.9
 20
-45.9
 11
-64.4
 21
-45.9
  0
LINE
  8
0
 10
-20
 20
-88.6
 11
-20
 21
-83.6
  0
LINE
  8
0
 10
-20
 20
-83.6
 11
-17.5
 21
-83.6
  0
LINE
  8
0
 10
-17.5
 20
-83.6
 11
-17.5
 21
-88.6
  0
LINE
  8
0
 10
-17.5
 20
-88.6
 11
-20
 21
-88.6
  0
LINE
  8
0
 10
-20
 20
-45.9
 11
-20
 21
-40.9
  0
LINE
  8
0
 10
-20
 20
-40.9
 11
-17.5
 21
-40.9
  0
LINE
  8
0
 10
-17.5
 20
-40.9
 11
-17.5
 21
-45.9
  0
LINE
  8
0
 10
-17.5
 20
-45.9
 11
-20
 21
-45.9
  0
LINE
  8
0
 10
-60
 20
83.5
 11
-59.7634
 21
79.74
  0
LINE
  8
0
 10
-59.7634
 20
79.74
 11
-59.0575
 21
76.0393
  0
LINE
  8
0
 10
-59.0575
 20
76.0393
 11
-57.8933
 21
72.4563
  0
LINE
  8
0
 10
-57.8933
 20
72.4563
 11
-56.2892
 21
69.0474
  0
LINE
  8
0
 10
-56.2892
 20
69.0474
 11
-54.2705
 21
65.8664
  0
LINE
  8
0
 10
-54.2705
 20
65.8664
 11
-51.8691
 21
62.9636
  0
LINE
  8
0
 10
-51.8691
 20
62.9636
 11
-49.1227
 21
60.3846
  0
LINE
  8
0
 10
-49.1227
 20
60.3846
 11
-46.0748
 21
58.1702
  0
LINE
  8
0
 10
-46.0748
 20
58.1702
 11
-42.7734
 21
56.3552
  0
LINE
  8
0
 10
-42.7734
 20
56.3552
 11
-39.2705
 21
54.9683
  0
LINE
  8
0
 10
-39.2705
 20
54.9683
 11
-35.6214
 21
54.0314
  0
LINE
  8
0
 10
-35.6214
 20
54.0314
 11
-31.8837
 21
53.5592
  0
LINE
  8
0
 10
-31.8837
 20
53.5592
 11
-28.1163
 21
53.5592
  0
LINE
  8
0
 10
-28.1163
 20
53.5592
 11
-24.3786
 21
54.0314
  0
LINE
  8
0
 10
-24.3786
 20
54.0314
 11
-20.7295
 21
54.9683
  0
LINE
  8
0
 10
-20.7295
 20
54.9683
 11
-17.2266
 21
56.3552
  0
LINE
  8
0
 10
-17.2266
 20
56.3552
 11
-13.9252
 21
58.1702
  0
LINE
  8
0
 10
-13.9252
 20
58.1702
 11
-10.8773
 21
60.3846
  0
LINE
  8
0
 10
-10.8773
 20
60.3846
 11
-8.13094
 21
62.9636
  0
LINE
  8
0
 10
-8.13094
 20
62.9636
 11
-5.72949
 21
65.8664
  0
LINE
  8
0
 10
-5.72949
 20
65.8664
 11
-3.7108
 21
69.0474
  0
LINE
  8
0
 10
-3.7108
 20
69.0474
 11
-2.10671
 21
72.4563
  0
LINE
  8
0
 10
-2.10671
 20
72.4563
 11
-0.942506
 21
76.0393
  0
LINE
  8
0
 10
-0.942506
 20
76.0393
 11
-0.23656
 21
79.74
  0
LINE
  8
0
 10
-0.23656
 20
79.74
 11
0
 21
83.5
  0
LINE
  8
0
 10
0
 20
83.5
 11
-0.23656
 21
87.26
  0
LINE
  8
0
 10
-0.23656
 20
87.26
 11
-0.942506
 21
90.9607
  0
LINE
  8
0
 10
-0.942506
 20
90.9607
 11
-2.10671
 21
94.5437
  0
LINE
  8
0
 10
-2.10671
 20
94.5437
 11
-3.7108
 21
97.9526
  0
LINE
  8
0
 10
-3.7108
 20
97.9526
 11
-5.72949
 21
101.134
  0
LINE
  8
0
 10
-5.72949
 20
101.134
 11
-8.13094
 21
104.036
  0
LINE
  8
0
 10
-8.13094
 20
104.036
 11
-10.8773
 21
106.615
  0
LINE
  8
0
 10
-10.8773
 20
106.615
 11
-13.9252
 21
108.83
  0
LINE
  8
0
 10
-13.9252
 20
108.83
 11
-17.2266
 21
110.645
  0
LINE
  8
0
 10
-17.2266
 20
110.645
 11
-20.7295
 21
112.032
  0
LINE
  8
0
 10
-20.7295
 20
112.032
 11
-24.3786
 21
112.969
  0
LINE
  8
0
 10
-24.3786
 20
112.969
 11
-28.1163
 21
113.441
  0
LINE
  8
0
 10
-28.1163
 20
113.441
 11
-31.8837
 21
113.441
  0
LINE
  8
0
 10
-31.8837
 20
113.441
 11
-35.6214
 21
112.969
  0
LINE
  8
0
 10
-35.6214
 20
112.969
 11
-39.2705
 21
112.032
  0
LINE
  8
0
 10
-39.2705
 20
112.032
 11
-42.7734
 21
110.645
  0
LINE
  8
0
 10
-42.7734
 20
110.645
 11
-46.0748
 21
108.83
  0
LINE
  8
0
 10
-46.0748
 20
108.83
 11
-49.1227
 21
106.615
  0
LINE
  8
0
 10
-49.1227
 20
106.615
 11
-51.8691
 21
104.036
  0
LINE
  8
0
 10
-51.8691
 20
104.036
 11
-54.2705
 21
101.134
  0
LINE
  8
0
 10
-54.2705
 20
101.134
 11
-56.2892
 21
97.9526
  0
LINE
  8
0
 10
-56.2892
 20
97.9526
 11
-57.8933
 21
94.5437
  0
LINE
  8
0
 10
-57.8933
 20
94.5437
 11
-59.0575
 21
90.9607
  0
LINE
  8
0
 10
-59.0575
 20
90.9607
 11
-59.7634
 21
87.26
  0
LINE
  8
0
 10
-59.7634
 20
87.26
 11
-60
 21
83.5
  0
LINE
  8
0
 10
-33.1893
 20
83.6506
 11
-33.183
 21
83.7503
  0
LINE
  8
0
 10
-33.183
 20
83.7503
 11
-33.0705
 21
83.8496
  0
LINE
  8
0
 10
-33.0705
 20
83.8496
 11
-33.0681
 21
83.8876
  0
LINE
  8
0
 10
-33.0681
 20
83.8876
 11
-32.9953
 21
84.2691
  0
LINE
  8
0
 10
-32.9953
 20
84.2691
 11
-32.9836
 21
84.3053
  0
LINE
  8
0
 10
-32.9836
 20
84.3053
 11
-33.0517
 21
84.439
  0
LINE
  8
0
 10
-33.0517
 20
84.439
 11
-33.0208
 21
84.5341
  0
LINE
  8
0
 10
-33.0208
 20
84.5341
 11
-32.8871
 21
84.6022
  0
LINE
  8
0
 10
-32.8871
 20
84.6022
 11
-32.8753
 21
84.6384
  0
LINE
  8
0
 10
-32.8753
 20
84.6384
 11
-32.71
 21
84.9898
  0
LINE
  8
0
 10
-32.71
 20
84.9898
 11
-32.6896
 21
85.022
  0
LINE
  8
0
 10
-32.6896
 20
85.022
 11
-32.7223
 21
85.1684
  0
LINE
  8
0
 10
-32.7223
 20
85.1684
 11
-32.6687
 21
85.2528
  0
LINE
  8
0
 10
-32.6687
 20
85.2528
 11
-32.5223
 21
85.2856
  0
LINE
  8
0
 10
-32.5223
 20
85.2856
 11
-32.5019
 21
85.3177
  0
LINE
  8
0
 10
-32.5019
 20
85.3177
 11
-32.2543
 21
85.617
  0
LINE
  8
0
 10
-32.2543
 20
85.617
 11
-32.2266
 21
85.643
  0
LINE
  8
0
 10
-32.2266
 20
85.643
 11
-32.2218
 21
85.793
  0
LINE
  8
0
 10
-32.2218
 20
85.793
 11
-32.149
 21
85.8614
  0
LINE
  8
0
 10
-32.149
 20
85.8614
 11
-31.999
 21
85.8567
  0
LINE
  8
0
 10
-31.999
 20
85.8567
 11
-31.9712
 21
85.8828
  0
LINE
  8
0
 10
-31.9712
 20
85.8828
 11
-31.657
 21
86.1111
  0
LINE
  8
0
 10
-31.657
 20
86.1111
 11
-31.6237
 21
86.1294
  0
LINE
  8
0
 10
-31.6237
 20
86.1294
 11
-31.5818
 21
86.2735
  0
LINE
  8
0
 10
-31.5818
 20
86.2735
 11
-31.4942
 21
86.3217
  0
LINE
  8
0
 10
-31.4942
 20
86.3217
 11
-31.3501
 21
86.2798
  0
LINE
  8
0
 10
-31.3501
 20
86.2798
 11
-31.3167
 21
86.2982
  0
LINE
  8
0
 10
-31.3167
 20
86.2982
 11
-30.9556
 21
86.4411
  0
LINE
  8
0
 10
-30.9556
 20
86.4411
 11
-30.9187
 21
86.4506
  0
LINE
  8
0
 10
-30.9187
 20
86.4506
 11
-30.8424
 21
86.5798
  0
LINE
  8
0
 10
-30.8424
 20
86.5798
 11
-30.7455
 21
86.6046
  0
LINE
  8
0
 10
-30.7455
 20
86.6046
 11
-30.6164
 21
86.5282
  0
LINE
  8
0
 10
-30.6164
 20
86.5282
 11
-30.5795
 21
86.5377
  0
LINE
  8
0
 10
-30.5795
 20
86.5377
 11
-30.1942
 21
86.5864
  0
LINE
  8
0
 10
-30.1942
 20
86.5864
 11
-30.1561
 21
86.5864
  0
LINE
  8
0
 10
-30.1561
 20
86.5864
 11
-30.05
 21
86.6925
  0
LINE
  8
0
 10
-30.05
 20
86.6925
 11
-29.95
 21
86.6925
  0
LINE
  8
0
 10
-29.95
 20
86.6925
 11
-29.8439
 21
86.5864
  0
LINE
  8
0
 10
-29.8439
 20
86.5864
 11
-29.8058
 21
86.5864
  0
LINE
  8
0
 10
-29.8058
 20
86.5864
 11
-29.4205
 21
86.5377
  0
LINE
  8
0
 10
-29.4205
 20
86.5377
 11
-29.3836
 21
86.5282
  0
LINE
  8
0
 10
-29.3836
 20
86.5282
 11
-29.2545
 21
86.6046
  0
LINE
  8
0
 10
-29.2545
 20
86.6046
 11
-29.1576
 21
86.5798
  0
LINE
  8
0
 10
-29.1576
 20
86.5798
 11
-29.0813
 21
86.4506
  0
LINE
  8
0
 10
-29.0813
 20
86.4506
 11
-29.0444
 21
86.4411
  0
LINE
  8
0
 10
-29.0444
 20
86.4411
 11
-28.6833
 21
86.2982
  0
LINE
  8
0
 10
-28.6833
 20
86.2982
 11
-28.6499
 21
86.2798
  0
LINE
  8
0
 10
-28.6499
 20
86.2798
 11
-28.5058
 21
86.3217
  0
LINE
  8
0
 10
-28.5058
 20
86.3217
 11
-28.4182
 21
86.2735
  0
LINE
  8
0
 10
-28.4182
 20
86.2735
 11
-28.3763
 21
86.1294
  0
LINE
  8
0
 10
-28.3763
 20
86.1294
 11
-28.343
 21
86.1111
  0
LINE
  8
0
 10
-28.343
 20
86.1111
 11
-28.0288
 21
85.8828
  0
LINE
  8
0
 10
-28.0288
 20
85.8828
 11
-28.001
 21
85.8567
  0
LINE
  8
0
 10
-28.001
 20
85.8567
 11
-27.851
 21
85.8614
  0
LINE
  8
0
 10
-27.851
 20
85.8614
 11
-27.7782
 21
85.793
  0
LINE
  8
0
 10
-27.7782
 20
85.793
 11
-27.7734
 21
85.643
  0
LINE
  8
0
 10
-27.7734
 20
85.643
 11
-27.7457
 21
85.617
  0
LINE
  8
0
 10
-27.7457
 20
85.617
 11
-27.4981
 21
85.3177
  0
LINE
  8
0
 10
-27.4981
 20
85.3177
 11
-27.4777
 21
85.2856
  0
LINE
  8
0
 10
-27.4777
 20
85.2856
 11
-27.3313
 21
85.2528
  0
LINE
  8
0
 10
-27.3313
 20
85.2528
 11
-27.2777
 21
85.1684
  0
LINE
  8
0
 10
-27.2777
 20
85.1684
 11
-27.3104
 21
85.022
  0
LINE
  8
0
 10
-27.3104
 20
85.022
 11
-27.29
 21
84.9898
  0
LINE
  8
0
 10
-27.29
 20
84.9898
 11
-27.1247
 21
84.6384
  0
LINE
  8
0
 10
-27.1247
 20
84.6384
 11
-27.1129
 21
84.6022
  0
LINE
  8
0
 10
-27.1129
 20
84.6022
 11
-26.9792
 21
84.5341
  0
LINE
  8
0
 10
-26.9792
 20
84.5341
 11
-26.9483
 21
84.439
  0
LINE
  8
0
 10
-26.9483
 20
84.439
 11
-27.0164
 21
84.3053
  0
LINE
  8
0
 10
-27.0164
 20
84.3053
 11
-27.0047
 21
84.2691
  0
LINE
  8
0
 10
-27.0047
 20
84.2691
 11
-26.9319
 21
83.8876
  0
LINE
  8
0
 10
-26.9319
 20
83.8876
 11
-26.9295
 21
83.8496
  0
LINE
  8
0
 10
-26.9295
 20
83.8496
 11
-26.817
 21
83.7503
  0
LINE
  8
0
 10
-26.817
 20
83.7503
 11
-26.8107
 21
83.6506
  0
LINE
  8
0
 10
-26.8107
 20
83.6506
 11
-26.9099
 21
83.538
  0
LINE
  8
0
 10
-26.9099
 20
83.538
 11
-26.9075
 21
83.5
  0
LINE
  8
0
 10
-26.9075
 20
83.5
 11
-26.9319
 21
83.1124
  0
LINE
  8
0
 10
-26.9319
 20
83.1124
 11
-26.939
 21
83.075
  0
LINE
  8
0
 10
-26.939
 20
83.075
 11
-26.8547
 21
82.9509
  0
LINE
  8
0
 10
-26.8547
 20
82.9509
 11
-26.8734
 21
82.8527
  0
LINE
  8
0
 10
-26.8734
 20
82.8527
 11
-26.9975
 21
82.7683
  0
LINE
  8
0
 10
-26.9975
 20
82.7683
 11
-27.0047
 21
82.7309
  0
LINE
  8
0
 10
-27.0047
 20
82.7309
 11
-27.1247
 21
82.3616
  0
LINE
  8
0
 10
-27.1247
 20
82.3616
 11
-27.1409
 21
82.3271
  0
LINE
  8
0
 10
-27.1409
 20
82.3271
 11
-27.0901
 21
82.1859
  0
LINE
  8
0
 10
-27.0901
 20
82.1859
 11
-27.1326
 21
82.0955
  0
LINE
  8
0
 10
-27.1326
 20
82.0955
 11
-27.2738
 21
82.0446
  0
LINE
  8
0
 10
-27.2738
 20
82.0446
 11
-27.29
 21
82.0102
  0
LINE
  8
0
 10
-27.29
 20
82.0102
 11
-27.4981
 21
81.6823
  0
LINE
  8
0
 10
-27.4981
 20
81.6823
 11
-27.5224
 21
81.6529
  0
LINE
  8
0
 10
-27.5224
 20
81.6529
 11
-27.5083
 21
81.5035
  0
LINE
  8
0
 10
-27.5083
 20
81.5035
 11
-27.572
 21
81.4265
  0
LINE
  8
0
 10
-27.572
 20
81.4265
 11
-27.7214
 21
81.4124
  0
LINE
  8
0
 10
-27.7214
 20
81.4124
 11
-27.7457
 21
81.383
  0
LINE
  8
0
 10
-27.7457
 20
81.383
 11
-28.0288
 21
81.1172
  0
LINE
  8
0
 10
-28.0288
 20
81.1172
 11
-28.0596
 21
81.0948
  0
LINE
  8
0
 10
-28.0596
 20
81.0948
 11
-28.0831
 21
80.9466
  0
LINE
  8
0
 10
-28.0831
 20
80.9466
 11
-28.1639
 21
80.8878
  0
LINE
  8
0
 10
-28.1639
 20
80.8878
 11
-28.3121
 21
80.9113
  0
LINE
  8
0
 10
-28.3121
 20
80.9113
 11
-28.343
 21
80.8889
  0
LINE
  8
0
 10
-28.343
 20
80.8889
 11
-28.6833
 21
80.7018
  0
LINE
  8
0
 10
-28.6833
 20
80.7018
 11
-28.7187
 21
80.6878
  0
LINE
  8
0
 10
-28.7187
 20
80.6878
 11
-28.7783
 21
80.5501
  0
LINE
  8
0
 10
-28.7783
 20
80.5501
 11
-28.8712
 21
80.5133
  0
LINE
  8
0
 10
-28.8712
 20
80.5133
 11
-29.0089
 21
80.5729
  0
LINE
  8
0
 10
-29.0089
 20
80.5729
 11
-29.0444
 21
80.5589
  0
LINE
  8
0
 10
-29.0444
 20
80.5589
 11
-29.4205
 21
80.4623
  0
LINE
  8
0
 10
-29.4205
 20
80.4623
 11
-29.4583
 21
80.4575
  0
LINE
  8
0
 10
-29.4583
 20
80.4575
 11
-29.5503
 21
80.339
  0
LINE
  8
0
 10
-29.5503
 20
80.339
 11
-29.6495
 21
80.3264
  0
LINE
  8
0
 10
-29.6495
 20
80.3264
 11
-29.768
 21
80.4184
  0
LINE
  8
0
 10
-29.768
 20
80.4184
 11
-29.8058
 21
80.4136
  0
LINE
  8
0
 10
-29.8058
 20
80.4136
 11
-30.1942
 21
80.4136
  0
LINE
  8
0
 10
-30.1942
 20
80.4136
 11
-30.232
 21
80.4184
  0
LINE
  8
0
 10
-30.232
 20
80.4184
 11
-30.3505
 21
80.3264
  0
LINE
  8
0
 10
-30.3505
 20
80.3264
 11
-30.4497
 21
80.339
  0
LINE
  8
0
 10
-30.4497
 20
80.339
 11
-30.5417
 21
80.4575
  0
LINE
  8
0
 10
-30.5417
 20
80.4575
 11
-30.5795
 21
80.4623
  0
LINE
  8
0
 10
-30.5795
 20
80.4623
 11
-30.9556
 21
80.5589
  0
LINE
  8
0
 10
-30.9556
 20
80.5589
 11
-30.9911
 21
80.5729
  0
LINE
  8
0
 10
-30.9911
 20
80.5729
 11
-31.1288
 21
80.5133
  0
LINE
  8
0
 10
-31.1288
 20
80.5133
 11
-31.2217
 21
80.5501
  0
LINE
  8
0
 10
-31.2217
 20
80.5501
 11
-31.2813
 21
80.6878
  0
LINE
  8
0
 10
-31.2813
 20
80.6878
 11
-31.3167
 21
80.7018
  0
LINE
  8
0
 10
-31.3167
 20
80.7018
 11
-31.657
 21
80.8889
  0
LINE
  8
0
 10
-31.657
 20
80.8889
 11
-31.6879
 21
80.9113
  0
LINE
  8
0
 10
-31.6879
 20
80.9113
 11
-31.8361
 21
80.8878
  0
LINE
  8
0
 10
-31.8361
 20
80.8878
 11
-31.9169
 21
80.9466
  0
LINE
  8
0
 10
-31.9169
 20
80.9466
 11
-31.9404
 21
81.0948
  0
LINE
  8
0
 10
-31.9404
 20
81.0948
 11
-31.9712
 21
81.1172
  0
LINE
  8
0
 10
-31.9712
 20
81.1172
 11
-32.2543
 21
81.383
  0
LINE
  8
0
 10
-32.2543
 20
81.383
 11
-32.2786
 21
81.4124
  0
LINE
  8
0
 10
-32.2786
 20
81.4124
 11
-32.428
 21
81.4265
  0
LINE
  8
0
 10
-32.428
 20
81.4265
 11
-32.4917
 21
81.5035
  0
LINE
  8
0
 10
-32.4917
 20
81.5035
 11
-32.4776
 21
81.6529
  0
LINE
  8
0
 10
-32.4776
 20
81.6529
 11
-32.5019
 21
81.6823
  0
LINE
  8
0
 10
-32.5019
 20
81.6823
 11
-32.71
 21
82.0102
  0
LINE
  8
0
 10
-32.71
 20
82.0102
 11
-32.7262
 21
82.0446
  0
LINE
  8
0
 10
-32.7262
 20
82.0446
 11
-32.8674
 21
82.0955
  0
LINE
  8
0
 10
-32.8674
 20
82.0955
 11
-32.9099
 21
82.1859
  0
LINE
  8
0
 10
-32.9099
 20
82.1859
 11
-32.8591
 21
82.3271
  0
LINE
  8
0
 10
-32.8591
 20
82.3271
 11
-32.8753
 21
82.3616
  0
LINE
  8
0
 10
-32.8753
 20
82.3616
 11
-32.9953
 21
82.7309
  0
LINE
  8
0
 10
-32.9953
 20
82.7309
 11
-33.0025
 21
82.7683
  0
LINE
  8
0
 10
-33.0025
 20
82.7683
 11
-33.1266
 21
82.8527
  0
LINE
  8
0
 10
-33.1266
 20
82.8527
 11
-33.1453
 21
82.9509
  0
LINE
  8
0
 10
-33.1453
 20
82.9509
 11
-33.061
 21
83.075
  0
LINE
  8
0
 10
-33.061
 20
83.075
 11
-33.0681
 21
83.1124
  0
LINE
  8
0
 10
-33.0681
 20
83.1124
 11
-33.0925
 21
83.5
  0
LINE
  8
0
 10
-33.0925
 20
83.5
 11
-33.0901
 21
83.538
  0
LINE
  8
0
 10
-33.0901
 20
83.538
 11
-33.1893
 21
83.6506
  0
LINE
  8
0
 10
-31.125
 20
68.5
 11
-31.125
 21
76.5
  0
LINE
  8
0
 10
-31.125
 20
76.5
 11
-31.1161
 21
76.641
  0
LINE
  8
0
 10
-31.1161
 20
76.641
 11
-31.0897
 21
76.7798
  0
LINE
  8
0
 10
-31.0897
 20
76.7798
 11
-31.046
 21
76.9141
  0
LINE
  8
0
 10
-31.046
 20
76.9141
 11
-30.9858
 21
77.042
  0
LINE
  8
0
 10
-30.9858
 20
77.042
 11
-30.9101
 21
77.1613
  0
LINE
  8
0
 10
-30.9101
 20
77.1613
 11
-30.8201
 21
77.2701
  0
LINE
  8
0
 10
-30.8201
 20
77.2701
 11
-30.7171
 21
77.3668
  0
LINE
  8
0
 10
-30.7171
 20
77.3668
 11
-30.6028
 21
77.4499
  0
LINE
  8
0
 10
-30.6028
 20
77.4499
 11
-30.479
 21
77.5179
  0
LINE
  8
0
 10
-30.479
 20
77.5179
 11
-30.3476
 21
77.5699
  0
LINE
  8
0
 10
-30.3476
 20
77.5699
 11
-30.2108
 21
77.6051
  0
LINE
  8
0
 10
-30.2108
 20
77.6051
 11
-30.0706
 21
77.6228
  0
LINE
  8
0
 10
-30.0706
 20
77.6228
 11
-29.9294
 21
77.6228
  0
LINE
  8
0
 10
-29.9294
 20
77.6228
 11
-29.7892
 21
77.6051
  0
LINE
  8
0
 10
-29.7892
 20
77.6051
 11
-29.6524
 21
77.5699
  0
LINE
  8
0
 10
-29.6524
 20
77.5699
 11
-29.521
 21
77.5179
  0
LINE
  8
0
 10
-29.521
 20
77.5179
 11
-29.3972
 21
77.4499
  0
LINE
  8
0
 10
-29.3972
 20
77.4499
 11
-29.2829
 21
77.3668
  0
LINE
  8
0
 10
-29.2829
 20
77.3668
 11
-29.1799
 21
77.2701
  0
LINE
  8
0
 10
-29.1799
 20
77.2701
 11
-29.0899
 21
77.1613
  0
LINE
  8
0
 10
-29.0899
 20
77.1613
 11
-29.0142
 21
77.042
  0
LINE
  8
0
 10
-29.0142
 20
77.042
 11
-28.954
 21
76.9141
  0
LINE
  8
0
 10
-28.954
 20
76.9141
 11
-28.9103
 21
76.7798
  0
LINE
  8
0
 10
-28.9103
 20
76.7798
 11
-28.8839
 21
76.641
  0
LINE
  8
0
 10
-28.8839
 20
76.641
 11
-28.875
 21
76.5
  0
LINE
  8
0
 10
-28.875
 20
76.5
 11
-28.875
 21
68.5
  0
LINE
  8
0
 10
-28.875
 20
68.5
 11
-28.8839
 21
68.359
  0
LINE
  8
0
 10
-28.8839
 20
68.359
 11
-28.9103
 21
68.2202
  0
LINE
  8
0
 10
-28.9103
 20
68.2202
 11
-28.954
 21
68.0859
  0
LINE
  8
0
 10
-28.954
 20
68.0859
 11
-29.0142
 21
67.958
  0
LINE
  8
0
 10
-29.0142
 20
67.958
 11
-29.0899
 21
67.8387
  0
LINE
  8
0
 10
-29.0899
 20
67.8387
 11
-29.1799
 21
67.7299
  0
LINE
  8
0
 10
-29.1799
 20
67.7299
 11
-29.2829
 21
67.6332
  0
LINE
  8
0
 10
-29.2829
 20
67.6332
 11
-29.3972
 21
67.5501
  0
LINE
  8
0
 10
-29.3972
 20
67.5501
 11
-29.521
 21
67.4821
  0
LINE
  8
0
 10
-29.521
 20
67.4821
 11
-29.6524
 21
67.4301
  0
LINE
  8
0
 10
-29.6524
 20
67.4301
 11
-29.7892
 21
67.3949
  0
LINE
  8
0
 10
-29.7892
 20
67.3949
 11
-29.9294
 21
67.3772
  0
LINE
  8
0
 10
-29.9294
 20
67.3772
 11
-30.0706
 21
67.3772
  0
LINE
  8
0
 10
-30.0706
 20
67.3772
 11
-30.2108
 21
67.3949
  0
LINE
  8
0
 10
-30.2108
 20
67.3949
 11
-30.3476
 21
67.4301
  0
LINE
  8
0
 10
-30.3476
 20
67.4301
 11
-30.479
 21
67.4821
  0
LINE
  8
0
 10
-30.479
 20
67.4821
 11
-30.6028
 21
67.5501
  0
LINE
  8
0
 10
-30.6028
 20
67.5501
 11
-30.7171
 21
67.6332
  0
LINE
  8
0
 10
-30.7171
 20
67.6332
 11
-30.8201
 21
67.7299
  0
LINE
  8
0
 10
-30.8201
 20
67.7299
 11
-30.9101
 21
67.8387
  0
LINE
  8
0
 10
-30.9101
 20
67.8387
 11
-30.9858
 21
67.958
  0
LINE
  8
0
 10
-30.9858
 20
67.958
 11
-31.046
 21
68.0859
  0
LINE
  8
0
 10
-31.046
 20
68.0859
 11
-31.0897
 21
68.2202
  0
LINE
  8
0
 10
-31.0897
 20
68.2202
 11
-31.1161
 21
68.359
  0
LINE
  8
0
 10
-31.1161
 20
68.359
 11
-31.125
 21
68.5
  0
LINE
  8
0
 10
-31.125
 20
90.5
 11
-31.125
 21
98.5
  0
LINE
  8
0
 10
-31.125
 20
98.5
 11
-31.1161
 21
98.641
  0
LINE
  8
0
 10
-31.1161
 20
98.641
 11
-31.0897
 21
98.7798
  0
LINE
  8
0
 10
-31.0897
 20
98.7798
 11
-31.046
 21
98.9141
  0
LINE
  8
0
 10
-31.046
 20
98.9141
 11
-30.9858
 21
99.042
  0
LINE
  8
0
 10
-30.9858
 20
99.042
 11
-30.9101
 21
99.1613
  0
LINE
  8
0
 10
-30.9101
 20
99.1613
 11
-30.8201
 21
99.2701
  0
LINE
  8
0
 10
-30.8201
 20
99.2701
 11
-30.7171
 21
99.3668
  0
LINE
  8
0
 10
-30.7171
 20
99.3668
 11
-30.6028
 21
99.4499
  0
LINE
  8
0
 10
-30.6028
 20
99.4499
 11
-30.479
 21
99.5179
  0
LINE
  8
0
 10
-30.479
 20
99.5179
 11
-30.3476
 21
99.5699
  0
LINE
  8
0
 10
-30.3476
 20
99.5699
 11
-30.2108
 21
99.6051
  0
LINE
  8
0
 10
-30.2108
 20
99.6051
 11
-30.0706
 21
99.6228
  0
LINE
  8
0
 10
-30.0706
 20
99.6228
 11
-29.9294
 21
99.6228
  0
LINE
  8
0
 10
-29.9294
 20
99.6228
 11
-29.7892
 21
99.6051
  0
LINE
  8
0
 10
-29.7892
 20
99.6051
 11
-29.6524
 21
99.5699
  0
LINE
  8
0
 10
-29.6524
 20
99.5699
 11
-29.521
 21
99.5179
  0
LINE
  8
0
 10
-29.521
 20
99.5179
 11
-29.3972
 21
99.4499
  0
LINE
  8
0
 10
-29.3972
 20
99.4499
 11
-29.2829
 21
99.3668
  0
LINE
  8
0
 10
-29.2829
 20
99.3668
 11
-29.1799
 21
99.2701
  0
LINE
  8
0
 10
-29.1799
 20
99.2701
 11
-29.0899
 21
99.1613
  0
LINE
  8
0
 10
-29.0899
 20
99.1613
 11
-29.0142
 21
99.042
  0
LINE
  8
0
 10
-29.0142
 20
99.042
 11
-28.954
 21
98.9141
  0
LINE
  8
0
 10
-28.954
 20
98.9141
 11
-28.9103
 21
98.7798
  0
LINE
  8
0
 10
-28.9103
 20
98.7798
 11
-28.8839
 21
98.641
  0
LINE
  8
0
 10
-28.8839
 20
98.641
 11
-28.875
 21
98.5
  0
LINE
  8
0
 10
-28.875
 20
98.5
 11
-28.875
 21
90.5
  0
LINE
  8
0
 10
-28.875
 20
90.5
 11
-28.8839
 21
90.359
  0
LINE
  8
0
 10
-28.8839
 20
90.359
 11
-28.9103
 21
90.2202
  0
LINE
  8
0
 10
-28.9103
 20
90.2202
 11
-28.954
 21
90.0859
  0
LINE
  8
0
 10
-28.954
 20
90.0859
 11
-29.0142
 21
89.958
  0
LINE
  8
0
 10
-29.0142
 20
89.958
 11
-29.0899
 21
89.8387
  0
LINE
  8
0
 10
-29.0899
 20
89.8387
 11
-29.1799
 21
89.7299
  0
LINE
  8
0
 10
-29.1799
 20
89.7299
 11
-29.2829
 21
89.6332
  0
LINE
  8
0
 10
-29.2829
 20
89.6332
 11
-29.3972
 21
89.5501
  0
LINE
  8
0
 10
-29.3972
 20
89.5501
 11
-29.521
 21
89.4821
  0
LINE
  8
0
 10
-29.521
 20
89.4821
 11
-29.6524
 21
89.4301
  0
LINE
  8
0
 10
-29.6524
 20
89.4301
 11
-29.7892
 21
89.3949
  0
LINE
  8
0
 10
-29.7892
 20
89.3949
 11
-29.9294
 21
89.3772
  0
LINE
  8
0
 10
-29.9294
 20
89.3772
 11
-30.0706
 21
89.3772
  0
LINE
  8
0
 10
-30.0706
 20
89.3772
 11
-30.2108
 21
89.3949
  0
LINE
  8
0
 10
-30.2108
 20
89.3949
 11
-30.3476
 21
89.4301
  0
LINE
  8
0
 10
-30.3476
 20
89.4301
 11
-30.479
 21
89.4821
  0
LINE
  8
0
 10
-30.479
 20
89.4821
 11
-30.6028
 21
89.5501
  0
LINE
  8
0
 10
-30.6028
 20
89.5501
 11
-30.7171
 21
89.6332
  0
LINE
  8
0
 10
-30.7171
 20
89.6332
 11
-30.8201
 21
89.7299
  0
LINE
  8
0
 10
-30.8201
 20
89.7299
 11
-30.9101
 21
89.8387
  0
LINE
  8
0
 10
-30.9101
 20
89.8387
 11
-30.9858
 21
89.958
  0
LINE
  8
0
 10
-30.9858
 20
89.958
 11
-31.046
 21
90.0859
  0
LINE
  8
0
 10
-31.046
 20
90.0859
 11
-31.0897
 21
90.2202
  0
LINE
  8
0
 10
-31.0897
 20
90.2202
 11
-31.1161
 21
90.359
  0
LINE
  8
0
 10
-31.1161
 20
90.359
 11
-31.125
 21
90.5
  0
LINE
  8
0
 10
-7.86322
 20
11.8
 11
92.1368
 21
11.8
  0
LINE
  8
0
 10
92.1368
 20
11.8
 11
92.1368
 21
56.8
  0
LINE
  8
0
 10
92.1368
 20
56.8
 11
-7.86322
 21
56.8
  0
LINE
  8
0
 10
-7.86322
 20
56.8
 11
-7.86322
 21
11.8
  0
LINE
  8
0
 10
5.35677
 20
29.27
 11
5.35677
 21
39.33
  0
LINE
  8
0
 10
5.35677
 20
39.33
 11
10.4168
 21
39.33
  0
LINE
  8
0
 10
10.4168
 20
39.33
 11
10.4168
 21
29.27
  0
LINE
  8
0
 10
10.4168
 20
29.27
 11
5.35677
 21
29.27
  0
LINE
  8
0
 10
73.8568
 20
29.27
 11
73.8568
 21
39.33
  0
LINE
  8
0
 10
73.8568
 20
39.33
 11
78.9168
 21
39.33
  0
LINE
  8
0
 10
78.9168
 20
39.33
 11
78.9168
 21
29.27
  0
LINE
  8
0
 10
78.9168
 20
29.27
 11
73.8568
 21
29.27
  0
LINE
  8
0
 10
0.253002
 20
-22.4995
 11
1.151
 21
-23.1656
  0
LINE
  8
0
 10
1.151
 20
-23.1656
 11
1.23782
 21
-22.6732
  0
LINE
  8
0
 10
1.23782
 20
-22.6732
 11
6.07617
 21
-23.5263
  0
LINE
  8
0
 10
6.07617
 20
-23.5263
 11
2.00001
 21
-47
  0
LINE
  8
0
 10
2.00001
 20
-47
 11
92.3632
 21
-47
  0
LINE
  8
0
 10
92.3632
 20
-47
 11
92.3632
 21
9.79999
  0
LINE
  8
0
 10
92.3632
 20
9.79999
 11
11.8632
 21
9.79999
  0
LINE
  8
0
 10
11.8632
 20
9.79999
 11
7.78706
 21
-13.6737
  0
LINE
  8
0
 10
7.78706
 20
-13.6737
 11
2.9743
 21
-12.8251
  0
LINE
  8
0
 10
2.9743
 20
-12.8251
 11
3.06112
 21
-12.3327
  0
LINE
  8
0
 10
3.06112
 20
-12.3327
 11
1.9895
 21
-12.6514
  0
LINE
  8
0
 10
1.9895
 20
-12.6514
 11
0.253002
 21
-22.4995
  0
LINE
  8
0
 10
8.70649
 20
-42.03
 11
8.70649
 21
-36.97
  0
LINE
  8
0
 10
8.70649
 20
-36.97
 11
18.7665
 21
-36.97
  0
LINE
  8
0
 10
18.7665
 20
-36.97
 11
18.7665
 21
-42.03
  0
LINE
  8
0
 10
18.7665
 20
-42.03
 11
8.70649
 21
-42.03
  0
LINE
  8
0
 10
16.8332
 20
-0.230011
 11
16.8332
 21
4.82999
  0
LINE
  8
0
 10
16.8332
 20
4.82999
 11
26.8932
 21
4.82999
  0
LINE
  8
0
 10
26.8932
 20
4.82999
 11
26.8932
 21
-0.230011
  0
LINE
  8
0
 10
26.8932
 20
-0.230011
 11
16.8332
 21
-0.230011
  0
LINE
  8
0
 10
24.8382
 20
-31.6
 11
24.8471
 21
-31.459
  0
LINE
  8
0
 10
24.8471
 20
-31.459
 11
24.8736
 21
-31.3202
  0
LINE
  8
0
 10
24.8736
 20
-31.3202
 11
24.9172
 21
-31.1859
  0
LINE
  8
0
 10
24.9172
 20
-31.1859
 11
24.9774
 21
-31.058
  0
LINE
  8
0
 10
24.9774
 20
-31.058
 11
25.0531
 21
-30.9388
  0
LINE
  8
0
 10
25.0531
 20
-30.9388
 11
25.1431
 21
-30.8299
  0
LINE
  8
0
 10
25.1431
 20
-30.8299
 11
25.2461
 21
-30.7332
  0
LINE
  8
0
 10
25.2461
 20
-30.7332
 11
25.3604
 21
-30.6501
  0
LINE
  8
0
 10
25.3604
 20
-30.6501
 11
25.4842
 21
-30.5821
  0
LINE
  8
0
 10
25.4842
 20
-30.5821
 11
25.6156
 21
-30.5301
  0
LINE
  8
0
 10
25.6156
 20
-30.5301
 11
25.7524
 21
-30.4949
  0
LINE
  8
0
 10
25.7524
 20
-30.4949
 11
25.8926
 21
-30.4772
  0
LINE
  8
0
 10
25.8926
 20
-30.4772
 11
26.0339
 21
-30.4772
  0
LINE
  8
0
 10
26.0339
 20
-30.4772
 11
26.174
 21
-30.4949
  0
LINE
  8
0
 10
26.174
 20
-30.4949
 11
26.3109
 21
-30.5301
  0
LINE
  8
0
 10
26.3109
 20
-30.5301
 11
26.4422
 21
-30.5821
  0
LINE
  8
0
 10
26.4422
 20
-30.5821
 11
26.566
 21
-30.6501
  0
LINE
  8
0
 10
26.566
 20
-30.6501
 11
26.6803
 21
-30.7332
  0
LINE
  8
0
 10
26.6803
 20
-30.7332
 11
26.7833
 21
-30.8299
  0
LINE
  8
0
 10
26.7833
 20
-30.8299
 11
26.8734
 21
-30.9388
  0
LINE
  8
0
 10
26.8734
 20
-30.9388
 11
26.9491
 21
-31.058
  0
LINE
  8
0
 10
26.9491
 20
-31.058
 11
27.0092
 21
-31.1859
  0
LINE
  8
0
 10
27.0092
 20
-31.1859
 11
27.0529
 21
-31.3202
  0
LINE
  8
0
 10
27.0529
 20
-31.3202
 11
27.0793
 21
-31.459
  0
LINE
  8
0
 10
27.0793
 20
-31.459
 11
27.0882
 21
-31.6
  0
LINE
  8
0
 10
27.0882
 20
-31.6
 11
27.0793
 21
-31.741
  0
LINE
  8
0
 10
27.0793
 20
-31.741
 11
27.0529
 21
-31.8798
  0
LINE
  8
0
 10
27.0529
 20
-31.8798
 11
27.0092
 21
-32.0141
  0
LINE
  8
0
 10
27.0092
 20
-32.0141
 11
26.9491
 21
-32.142
  0
LINE
  8
0
 10
26.9491
 20
-32.142
 11
26.8734
 21
-32.2613
  0
LINE
  8
0
 10
26.8734
 20
-32.2613
 11
26.7833
 21
-32.3701
  0
LINE
  8
0
 10
26.7833
 20
-32.3701
 11
26.6803
 21
-32.4668
  0
LINE
  8
0
 10
26.6803
 20
-32.4668
 11
26.566
 21
-32.5499
  0
LINE
  8
0
 10
26.566
 20
-32.5499
 11
26.4422
 21
-32.6179
  0
LINE
  8
0
 10
26.4422
 20
-32.6179
 11
26.3109
 21
-32.67
  0
LINE
  8
0
 10
26.3109
 20
-32.67
 11
26.174
 21
-32.7051
  0
LINE
  8
0
 10
26.174
 20
-32.7051
 11
26.0339
 21
-32.7228
  0
LINE
  8
0
 10
26.0339
 20
-32.7228
 11
25.8926
 21
-32.7228
  0
LINE
  8
0
 10
25.8926
 20
-32.7228
 11
25.7524
 21
-32.7051
  0
LINE
  8
0
 10
25.7524
 20
-32.7051
 11
25.6156
 21
-32.67
  0
LINE
  8
0
 10
25.6156
 20
-32.67
 11
25.4842
 21
-32.6179
  0
LINE
  8
0
 10
25.4842
 20
-32.6179
 11
25.3604
 21
-32.5499
  0
LINE
  8
0
 10
25.3604
 20
-32.5499
 11
25.2461
 21
-32.4668
  0
LINE
  8
0
 10
25.2461
 20
-32.4668
 11
25.1431
 21
-32.3701
  0
LINE
  8
0
 10
25.1431
 20
-32.3701
 11
25.0531
 21
-32.2613
  0
LINE
  8
0
 10
25.0531
 20
-32.2613
 11
24.9774
 21
-32.142
  0
LINE
  8
0
 10
24.9774
 20
-32.142
 11
24.9172
 21
-32.0141
  0
LINE
  8
0
 10
24.9172
 20
-32.0141
 11
24.8736
 21
-31.8798
  0
LINE
  8
0
 10
24.8736
 20
-31.8798
 11
24.8471
 21
-31.741
  0
LINE
  8
0
 10
24.8471
 20
-31.741
 11
24.8382
 21
-31.6
  0
LINE
  8
0
 10
24.8382
 20
-21.6
 11
24.8471
 21
-21.459
  0
LINE
  8
0
 10
24.8471
 20
-21.459
 11
24.8736
 21
-21.3202
  0
LINE
  8
0
 10
24.8736
 20
-21.3202
 11
24.9172
 21
-21.1859
  0
LINE
  8
0
 10
24.9172
 20
-21.1859
 11
24.9774
 21
-21.058
  0
LINE
  8
0
 10
24.9774
 20
-21.058
 11
25.0531
 21
-20.9388
  0
LINE
  8
0
 10
25.0531
 20
-20.9388
 11
25.1431
 21
-20.8299
  0
LINE
  8
0
 10
25.1431
 20
-20.8299
 11
25.2461
 21
-20.7332
  0
LINE
  8
0
 10
25.2461
 20
-20.7332
 11
25.3604
 21
-20.6501
  0
LINE
  8
0
 10
25.3604
 20
-20.6501
 11
25.4842
 21
-20.5821
  0
LINE
  8
0
 10
25.4842
 20
-20.5821
 11
25.6156
 21
-20.5301
  0
LINE
  8
0
 10
25.6156
 20
-20.5301
 11
25.7524
 21
-20.4949
  0
LINE
  8
0
 10
25.7524
 20
-20.4949
 11
25.8926
 21
-20.4772
  0
LINE
  8
0
 10
25.8926
 20
-20.4772
 11
26.0339
 21
-20.4772
  0
LINE
  8
0
 10
26.0339
 20
-20.4772
 11
26.174
 21
-20.4949
  0
LINE
  8
0
 10
26.174
 20
-20.4949
 11
26.3109
 21
-20.5301
  0
LINE
  8
0
 10
26.3109
 20
-20.5301
 11
26.4422
 21
-20.5821
  0
LINE
  8
0
 10
26.4422
 20
-20.5821
 11
26.566
 21
-20.6501
  0
LINE
  8
0
 10
26.566
 20
-20.6501
 11
26.6803
 21
-20.7332
  0
LINE
  8
0
 10
26.6803
 20
-20.7332
 11
26.7833
 21
-20.8299
  0
LINE
  8
0
 10
26.7833
 20
-20.8299
 11
26.8734
 21
-20.9388
  0
LINE
  8
0
 10
26.8734
 20
-20.9388
 11
26.9491
 21
-21.058
  0
LINE
  8
0
 10
26.9491
 20
-21.058
 11
27.0092
 21
-21.1859
  0
LINE
  8
0
 10
27.0092
 20
-21.1859
 11
27.0529
 21
-21.3202
  0
LINE
  8
0
 10
27.0529
 20
-21.3202
 11
27.0793
 21
-21.459
  0
LINE
  8
0
 10
27.0793
 20
-21.459
 11
27.0882
 21
-21.6
  0
LINE
  8
0
 10
27.0882
 20
-21.6
 11
27.0793
 21
-21.741
  0
LINE
  8
0
 10
27.0793
 20
-21.741
 11
27.0529
 21
-21.8798
  0
LINE
  8
0
 10
27.0529
 20
-21.8798
 11
27.0092
 21
-22.0141
  0
LINE
  8
0
 10
27.0092
 20
-22.0141
 11
26.9491
 21
-22.142
  0
LINE
  8
0
 10
26.9491
 20
-22.142
 11
26.8734
 21
-22.2613
  0
LINE
  8
0
 10
26.8734
 20
-22.2613
 11
26.7833
 21
-22.3701
  0
LINE
  8
0
 10
26.7833
 20
-22.3701
 11
26.6803
 21
-22.4668
  0
LINE
  8
0
 10
26.6803
 20
-22.4668
 11
26.566
 21
-22.5499
  0
LINE
  8
0
 10
26.566
 20
-22.5499
 11
26.4422
 21
-22.6179
  0
LINE
  8
0
 10
26.4422
 20
-22.6179
 11
26.3109
 21
-22.67
  0
LINE
  8
0
 10
26.3109
 20
-22.67
 11
26.174
 21
-22.7051
  0
LINE
  8
0
 10
26.174
 20
-22.7051
 11
26.0339
 21
-22.7228
  0
LINE
  8
0
 10
26.0339
 20
-22.7228
 11
25.8926
 21
-22.7228
  0
LINE
  8
0
 10
25.8926
 20
-22.7228
 11
25.7524
 21
-22.7051
  0
LINE
  8
0
 10
25.7524
 20
-22.7051
 11
25.6156
 21
-22.67
  0
LINE
  8
0
 10
25.6156
 20
-22.67
 11
25.4842
 21
-22.6179
  0
LINE
  8
0
 10
25.4842
 20
-22.6179
 11
25.3604
 21
-22.5499
  0
LINE
  8
0
 10
25.3604
 20
-22.5499
 11
25.2461
 21
-22.4668
  0
LINE
  8
0
 10
25.2461
 20
-22.4668
 11
25.1431
 21
-22.3701
  0
LINE
  8
0
 10
25.1431
 20
-22.3701
 11
25.0531
 21
-22.2613
  0
LINE
  8
0
 10
25.0531
 20
-22.2613
 11
24.9774
 21
-22.142
  0
LINE
  8
0
 10
24.9774
 20
-22.142
 11
24.9172
 21
-22.0141
  0
LINE
  8
0
 10
24.9172
 20
-22.0141
 11
24.8736
 21
-21.8798
  0
LINE
  8
0
 10
24.8736
 20
-21.8798
 11
24.8471
 21
-21.741
  0
LINE
  8
0
 10
24.8471
 20
-21.741
 11
24.8382
 21
-21.6
  0
LINE
  8
0
 10
30.4632
 20
-37
 11
30.4632
 21
-16.2
  0
LINE
  8
0
 10
30.4632
 20
-16.2
 11
72.3632
 21
-16.2
  0
LINE
  8
0
 10
72.3632
 20
-16.2
 11
72.3632
 21
-23.6
  0
LINE
  8
0
 10
72.3632
 20
-23.6
 11
74.3632
 21
-23.6
  0
LINE
  8
0
 10
74.3632
 20
-23.6
 11
75.0516
 21
-23.6059
  0
LINE
  8
0
 10
75.0516
 20
-23.6059
 11
75.4254
 21
-23.6532
  0
LINE
  8
0
 10
75.4254
 20
-23.6532
 11
75.7902
 21
-23.7468
  0
LINE
  8
0
 10
75.7902
 20
-23.7468
 11
76.1405
 21
-23.8855
  0
LINE
  8
0
 10
76.1405
 20
-23.8855
 11
76.4707
 21
-24.067
  0
LINE
  8
0
 10
76.4707
 20
-24.067
 11
76.7755
 21
-24.2885
  0
LINE
  8
0
 10
76.7755
 20
-24.2885
 11
77.0501
 21
-24.5464
  0
LINE
  8
0
 10
77.0501
 20
-24.5464
 11
77.2902
 21
-24.8367
  0
LINE
  8
0
 10
77.2902
 20
-24.8367
 11
77.4921
 21
-25.1547
  0
LINE
  8
0
 10
77.4921
 20
-25.1547
 11
77.6525
 21
-25.4956
  0
LINE
  8
0
 10
77.6525
 20
-25.4956
 11
77.7689
 21
-25.8539
  0
LINE
  8
0
 10
77.7689
 20
-25.8539
 11
77.8396
 21
-26.224
  0
LINE
  8
0
 10
77.8396
 20
-26.224
 11
77.8632
 21
-26.6
  0
LINE
  8
0
 10
77.8632
 20
-26.6
 11
77.8396
 21
-26.976
  0
LINE
  8
0
 10
77.8396
 20
-26.976
 11
77.7689
 21
-27.3461
  0
LINE
  8
0
 10
77.7689
 20
-27.3461
 11
77.6525
 21
-27.7044
  0
LINE
  8
0
 10
77.6525
 20
-27.7044
 11
77.4921
 21
-28.0453
  0
LINE
  8
0
 10
77.4921
 20
-28.0453
 11
77.2902
 21
-28.3634
  0
LINE
  8
0
 10
77.2902
 20
-28.3634
 11
77.0501
 21
-28.6537
  0
LINE
  8
0
 10
77.0501
 20
-28.6537
 11
76.7755
 21
-28.9115
  0
LINE
  8
0
 10
76.7755
 20
-28.9115
 11
76.4707
 21
-29.133
  0
LINE
  8
0
 10
76.4707
 20
-29.133
 11
76.1405
 21
-29.3145
  0
LINE
  8
0
 10
76.1405
 20
-29.3145
 11
75.7902
 21
-29.4532
  0
LINE
  8
0
 10
75.7902
 20
-29.4532
 11
75.4254
 21
-29.5469
  0
LINE
  8
0
 10
75.4254
 20
-29.5469
 11
75.0516
 21
-29.5941
  0
LINE
  8
0
 10
75.0516
 20
-29.5941
 11
74.3632
 21
-29.6
  0
LINE
  8
0
 10
74.3632
 20
-29.6
 11
72.3632
 21
-29.6
  0
LINE
  8
0
 10
72.3632
 20
-29.6
 11
72.3632
 21
-37
  0
LINE
  8
0
 10
72.3632
 20
-37
 11
30.4632
 21
-37
  0
LINE
  8
0
 10
75.7382
 20
-31.6
 11
75.7471
 21
-31.459
  0
LINE
  8
0
 10
75.7471
 20
-31.459
 11
75.7735
 21
-31.3202
  0
LINE
  8
0
 10
75.7735
 20
-31.3202
 11
75.8172
 21
-31.1859
  0
LINE
  8
0
 10
75.8172
 20
-31.1859
 11
75.8774
 21
-31.058
  0
LINE
  8
0
 10
75.8774
 20
-31.058
 11
75.9531
 21
-30.9388
  0
LINE
  8
0
 10
75.9531
 20
-30.9388
 11
76.0431
 21
-30.8299
  0
LINE
  8
0
 10
76.0431
 20
-30.8299
 11
76.1461
 21
-30.7332
  0
LINE
  8
0
 10
76.1461
 20
-30.7332
 11
76.2604
 21
-30.6501
  0
LINE
  8
0
 10
76.2604
 20
-30.6501
 11
76.3842
 21
-30.5821
  0
LINE
  8
0
 10
76.3842
 20
-30.5821
 11
76.5156
 21
-30.5301
  0
LINE
  8
0
 10
76.5156
 20
-30.5301
 11
76.6524
 21
-30.4949
  0
LINE
  8
0
 10
76.6524
 20
-30.4949
 11
76.7926
 21
-30.4772
  0
LINE
  8
0
 10
76.7926
 20
-30.4772
 11
76.9338
 21
-30.4772
  0
LINE
  8
0
 10
76.9338
 20
-30.4772
 11
77.074
 21
-30.4949
  0
LINE
  8
0
 10
77.074
 20
-30.4949
 11
77.2108
 21
-30.5301
  0
LINE
  8
0
 10
77.2108
 20
-30.5301
 11
77.3422
 21
-30.5821
  0
LINE
  8
0
 10
77.3422
 20
-30.5821
 11
77.466
 21
-30.6501
  0
LINE
  8
0
 10
77.466
 20
-30.6501
 11
77.5803
 21
-30.7332
  0
LINE
  8
0
 10
77.5803
 20
-30.7332
 11
77.6833
 21
-30.8299
  0
LINE
  8
0
 10
77.6833
 20
-30.8299
 11
77.7733
 21
-30.9388
  0
LINE
  8
0
 10
77.7733
 20
-30.9388
 11
77.849
 21
-31.058
  0
LINE
  8
0
 10
77.849
 20
-31.058
 11
77.9092
 21
-31.1859
  0
LINE
  8
0
 10
77.9092
 20
-31.1859
 11
77.9529
 21
-31.3202
  0
LINE
  8
0
 10
77.9529
 20
-31.3202
 11
77.9793
 21
-31.459
  0
LINE
  8
0
 10
77.9793
 20
-31.459
 11
77.9882
 21
-31.6
  0
LINE
  8
0
 10
77.9882
 20
-31.6
 11
77.9793
 21
-31.741
  0
LINE
  8
0
 10
77.9793
 20
-31.741
 11
77.9529
 21
-31.8798
  0
LINE
  8
0
 10
77.9529
 20
-31.8798
 11
77.9092
 21
-32.0141
  0
LINE
  8
0
 10
77.9092
 20
-32.0141
 11
77.849
 21
-32.142
  0
LINE
  8
0
 10
77.849
 20
-32.142
 11
77.7733
 21
-32.2613
  0
LINE
  8
0
 10
77.7733
 20
-32.2613
 11
77.6833
 21
-32.3701
  0
LINE
  8
0
 10
77.6833
 20
-32.3701
 11
77.5803
 21
-32.4668
  0
LINE
  8
0
 10
77.5803
 20
-32.4668
 11
77.466
 21
-32.5499
  0
LINE
  8
0
 10
77.466
 20
-32.5499
 11
77.3422
 21
-32.6179
  0
LINE
  8
0
 10
77.3422
 20
-32.6179
 11
77.2108
 21
-32.67
  0
LINE
  8
0
 10
77.2108
 20
-32.67
 11
77.074
 21
-32.7051
  0
LINE
  8
0
 10
77.074
 20
-32.7051
 11
76.9338
 21
-32.7228
  0
LINE
  8
0
 10
76.9338
 20
-32.7228
 11
76.7926
 21
-32.7228
  0
LINE
  8
0
 10
76.7926
 20
-32.7228
 11
76.6524
 21
-32.7051
  0
LINE
  8
0
 10
76.6524
 20
-32.7051
 11
76.5156
 21
-32.67
  0
LINE
  8
0
 10
76.5156
 20
-32.67
 11
76.3842
 21
-32.6179
  0
LINE
  8
0
 10
76.3842
 20
-32.6179
 11
76.2604
 21
-32.5499
  0
LINE
  8
0
 10
76.2604
 20
-32.5499
 11
76.1461
 21
-32.4668
  0
LINE
  8
0
 10
76.1461
 20
-32.4668
 11
76.0431
 21
-32.3701
  0
LINE
  8
0
 10
76.0431
 20
-32.3701
 11
75.9531
 21
-32.2613
  0
LINE
  8
0
 10
75.9531
 20
-32.2613
 11
75.8774
 21
-32.142
  0
LINE
  8
0
 10
75.8774
 20
-32.142
 11
75.8172
 21
-32.0141
  0
LINE
  8
0
 10
75.8172
 20
-32.0141
 11
75.7735
 21
-31.8798
  0
LINE
  8
0
 10
75.7735
 20
-31.8798
 11
75.7471
 21
-31.741
  0
LINE
  8
0
 10
75.7471
 20
-31.741
 11
75.7382
 21
-31.6
  0
LINE
  8
0
 10
75.7382
 20
-21.6
 11
75.7471
 21
-21.459
  0
LINE
  8
0
 10
75.7471
 20
-21.459
 11
75.7735
 21
-21.3202
  0
LINE
  8
0
 10
75.7735
 20
-21.3202
 11
75.8172
 21
-21.1859
  0
LINE
  8
0
 10
75.8172
 20
-21.1859
 11
75.8774
 21
-21.058
  0
LINE
  8
0
 10
75.8774
 20
-21.058
 11
75.9531
 21
-20.9388
  0
LINE
  8
0
 10
75.9531
 20
-20.9388
 11
76.0431
 21
-20.8299
  0
LINE
  8
0
 10
76.0431
 20
-20.8299
 11
76.1461
 21
-20.7332
  0
LINE
  8
0
 10
76.1461
 20
-20.7332
 11
76.2604
 21
-20.6501
  0
LINE
  8
0
 10
76.2604
 20
-20.6501
 11
76.3842
 21
-20.5821
  0
LINE
  8
0
 10
76.3842
 20
-20.5821
 11
76.5156
 21
-20.5301
  0
LINE
  8
0
 10
76.5156
 20
-20.5301
 11
76.6524
 21
-20.4949
  0
LINE
  8
0
 10
76.6524
 20
-20.4949
 11
76.7926
 21
-20.4772
  0
LINE
  8
0
 10
76.7926
 20
-20.4772
 11
76.9338
 21
-20.4772
  0
LINE
  8
0
 10
76.9338
 20
-20.4772
 11
77.074
 21
-20.4949
  0
LINE
  8
0
 10
77.074
 20
-20.4949
 11
77.2108
 21
-20.5301
  0
LINE
  8
0
 10
77.2108
 20
-20.5301
 11
77.3422
 21
-20.5821
  0
LINE
  8
0
 10
77.3422
 20
-20.5821
 11
77.466
 21
-20.6501
  0
LINE
  8
0
 10
77.466
 20
-20.6501
 11
77.5803
 21
-20.7332
  0
LINE
  8
0
 10
77.5803
 20
-20.7332
 11
77.6833
 21
-20.8299
  0
LINE
  8
0
 10
77.6833
 20
-20.8299
 11
77.7733
 21
-20.9388
  0
LINE
  8
0
 10
77.7733
 20
-20.9388
 11
77.849
 21
-21.058
  0
LINE
  8
0
 10
77.849
 20
-21.058
 11
77.9092
 21
-21.1859
  0
LINE
  8
0
 10
77.9092
 20
-21.1859
 11
77.9529
 21
-21.3202
  0
LINE
  8
0
 10
77.9529
 20
-21.3202
 11
77.9793
 21
-21.459
  0
LINE
  8
0
 10
77.9793
 20
-21.459
 11
77.9882
 21
-21.6
  0
LINE
  8
0
 10
77.9882
 20
-21.6
 11
77.9793
 21
-21.741
  0
LINE
  8
0
 10
77.9793
 20
-21.741
 11
77.9529
 21
-21.8798
  0
LINE
  8
0
 10
77.9529
 20
-21.8798
 11
77.9092
 21
-22.0141
  0
LINE
  8
0
 10
77.9092
 20
-22.0141
 11
77.849
 21
-22.142
  0
LINE
  8
0
 10
77.849
 20
-22.142
 11
77.7733
 21
-22.2613
  0
LINE
  8
0
 10
77.7733
 20
-22.2613
 11
77.6833
 21
-22.3701
  0
LINE
  8
0
 10
77.6833
 20
-22.3701
 11
77.5803
 21
-22.4668
  0
LINE
  8
0
 10
77.5803
 20
-22.4668
 11
77.466
 21
-22.5499
  0
LINE
  8
0
 10
77.466
 20
-22.5499
 11
77.3422
 21
-22.6179
  0
LINE
  8
0
 10
77.3422
 20
-22.6179
 11
77.2108
 21
-22.67
  0
LINE
  8
0
 10
77.2108
 20
-22.67
 11
77.074
 21
-22.7051
  0
LINE
  8
0
 10
77.074
 20
-22.7051
 11
76.9338
 21
-22.7228
  0
LINE
  8
0
 10
76.9338
 20
-22.7228
 11
76.7926
 21
-22.7228
  0
LINE
  8
0
 10
76.7926
 20
-22.7228
 11
76.6524
 21
-22.7051
  0
LINE
  8
0
 10
76.6524
 20
-22.7051
 11
76.5156
 21
-22.67
  0
LINE
  8
0
 10
76.5156
 20
-22.67
 11
76.3842
 21
-22.6179
  0
LINE
  8
0
 10
76.3842
 20
-22.6179
 11
76.2604
 21
-22.5499
  0
LINE
  8
0
 10
76.2604
 20
-22.5499
 11
76.1461
 21
-22.4668
  0
LINE
  8
0
 10
76.1461
 20
-22.4668
 11
76.0431
 21
-22.3701
  0
LINE
  8
0
 10
76.0431
 20
-22.3701
 11
75.9531
 21
-22.2613
  0
LINE
  8
0
 10
75.9531
 20
-22.2613
 11
75.8774
 21
-22.142
  0
LINE
  8
0
 10
75.8774
 20
-22.142
 11
75.8172
 21
-22.0141
  0
LINE
  8
0
 10
75.8172
 20
-22.0141
 11
75.7735
 21
-21.8798
  0
LINE
  8
0
 10
75.7735
 20
-21.8798
 11
75.7471
 21
-21.741
  0
LINE
  8
0
 10
75.7471
 20
-21.741
 11
75.7382
 21
-21.6
  0
LINE
  8
0
 10
77.3332
 20
-42.03
 11
77.3332
 21
-36.97
  0
LINE
  8
0
 10
77.3332
 20
-36.97
 11
87.3932
 21
-36.97
  0
LINE
  8
0
 10
87.3932
 20
-36.97
 11
87.3932
 21
-42.03
  0
LINE
  8
0
 10
87.3932
 20
-42.03
 11
77.3332
 21
-42.03
  0
LINE
  8
0
 10
77.3332
 20
-0.230011
 11
77.3332
 21
4.82999
  0
LINE
  8
0
 10
77.3332
 20
4.82999
 11
87.3932
 21
4.82999
  0
LINE
  8
0
 10
87.3932
 20
4.82999
 11
87.3932
 21
-0.230011
  0
LINE
  8
0
 10
87.3932
 20
-0.230011
 11
77.3332
 21
-0.230011
  0
LINE
  8
0
 10
2
 20
-79
 11
2.23656
 21
-82.76
  0
LINE
  8
0
 10
2.23656
 20
-82.76
 11
2.94251
 21
-86.4607
  0
LINE
  8
0
 10
2.94251
 20
-86.4607
 11
4.10671
 21
-90.0437
  0
LINE
  8
0
 10
4.10671
 20
-90.0437
 11
5.7108
 21
-93.4526
  0
LINE
  8
0
 10
5.7108
 20
-93.4526
 11
7.72949
 21
-96.6336
  0
LINE
  8
0
 10
7.72949
 20
-96.6336
 11
10.1309
 21
-99.5364
  0
LINE
  8
0
 10
10.1309
 20
-99.5364
 11
12.8773
 21
-102.115
  0
LINE
  8
0
 10
12.8773
 20
-102.115
 11
15.9252
 21
-104.33
  0
LINE
  8
0
 10
15.9252
 20
-104.33
 11
19.2266
 21
-106.145
  0
LINE
  8
0
 10
19.2266
 20
-106.145
 11
22.7295
 21
-107.532
  0
LINE
  8
0
 10
22.7295
 20
-107.532
 11
26.3786
 21
-108.469
  0
LINE
  8
0
 10
26.3786
 20
-108.469
 11
30.1163
 21
-108.941
  0
LINE
  8
0
 10
30.1163
 20
-108.941
 11
33.8837
 21
-108.941
  0
LINE
  8
0
 10
33.8837
 20
-108.941
 11
37.6214
 21
-108.469
  0
LINE
  8
0
 10
37.6214
 20
-108.469
 11
41.2705
 21
-107.532
  0
LINE
  8
0
 10
41.2705
 20
-107.532
 11
44.7734
 21
-106.145
  0
LINE
  8
0
 10
44.7734
 20
-106.145
 11
48.0748
 21
-104.33
  0
LINE
  8
0
 10
48.0748
 20
-104.33
 11
51.1227
 21
-102.115
  0
LINE
  8
0
 10
51.1227
 20
-102.115
 11
53.8691
 21
-99.5364
  0
LINE
  8
0
 10
53.8691
 20
-99.5364
 11
56.2705
 21
-96.6336
  0
LINE
  8
0
 10
56.2705
 20
-96.6336
 11
58.2892
 21
-93.4526
  0
LINE
  8
0
 10
58.2892
 20
-93.4526
 11
59.8933
 21
-90.0437
  0
LINE
  8
0
 10
59.8933
 20
-90.0437
 11
61.0575
 21
-86.4607
  0
LINE
  8
0
 10
61.0575
 20
-86.4607
 11
61.7634
 21
-82.76
  0
LINE
  8
0
 10
61.7634
 20
-82.76
 11
62
 21
-79
  0
LINE
  8
0
 10
62
 20
-79
 11
61.7634
 21
-75.24
  0
LINE
  8
0
 10
61.7634
 20
-75.24
 11
61.0575
 21
-71.5393
  0
LINE
  8
0
 10
61.0575
 20
-71.5393
 11
59.8933
 21
-67.9563
  0
LINE
  8
0
 10
59.8933
 20
-67.9563
 11
58.2892
 21
-64.5474
  0
LINE
  8
0
 10
58.2892
 20
-64.5474
 11
56.2705
 21
-61.3664
  0
LINE
  8
0
 10
56.2705
 20
-61.3664
 11
53.8691
 21
-58.4636
  0
LINE
  8
0
 10
53.8691
 20
-58.4636
 11
51.1227
 21
-55.8846
  0
LINE
  8
0
 10
51.1227
 20
-55.8846
 11
48.0748
 21
-53.6702
  0
LINE
  8
0
 10
48.0748
 20
-53.6702
 11
44.7734
 21
-51.8552
  0
LINE
  8
0
 10
44.7734
 20
-51.8552
 11
41.2705
 21
-50.4683
  0
LINE
  8
0
 10
41.2705
 20
-50.4683
 11
37.6214
 21
-49.5314
  0
LINE
  8
0
 10
37.6214
 20
-49.5314
 11
33.8837
 21
-49.0592
  0
LINE
  8
0
 10
33.8837
 20
-49.0592
 11
30.1163
 21
-49.0592
  0
LINE
  8
0
 10
30.1163
 20
-49.0592
 11
26.3786
 21
-49.5314
  0
LINE
  8
0
 10
26.3786
 20
-49.5314
 11
22.7295
 21
-50.4683
  0
LINE
  8
0
 10
22.7295
 20
-50.4683
 11
19.2266
 21
-51.8552
  0
LINE
  8
0
 10
19.2266
 20
-51.8552
 11
15.9252
 21
-53.6702
  0
LINE
  8
0
 10
15.9252
 20
-53.6702
 11
12.8773
 21
-55.8846
  0
LINE
  8
0
 10
12.8773
 20
-55.8846
 11
10.1309
 21
-58.4636
  0
LINE
  8
0
 10
10.1309
 20
-58.4636
 11
7.72949
 21
-61.3664
  0
LINE
  8
0
 10
7.72949
 20
-61.3664
 11
5.7108
 21
-64.5474
  0
LINE
  8
0
 10
5.7108
 20
-64.5474
 11
4.10671
 21
-67.9563
  0
LINE
  8
0
 10
4.10671
 20
-67.9563
 11
2.94251
 21
-71.5393
  0
LINE
  8
0
 10
2.94251
 20
-71.5393
 11
2.23656
 21
-75.24
  0
LINE
  8
0
 10
2.23656
 20
-75.24
 11
2
 21
-79
  0
LINE
  8
0
 10
28.8107
 20
-78.8494
 11
28.817
 21
-78.7497
  0
LINE
  8
0
 10
28.817
 20
-78.7497
 11
28.9295
 21
-78.6504
  0
LINE
  8
0
 10
28.9295
 20
-78.6504
 11
28.9319
 21
-78.6124
  0
LINE
  8
0
 10
28.9319
 20
-78.6124
 11
29.0047
 21
-78.2309
  0
LINE
  8
0
 10
29.0047
 20
-78.2309
 11
29.0164
 21
-78.1947
  0
LINE
  8
0
 10
29.0164
 20
-78.1947
 11
28.9483
 21
-78.061
  0
LINE
  8
0
 10
28.9483
 20
-78.061
 11
28.9792
 21
-77.9659
  0
LINE
  8
0
 10
28.9792
 20
-77.9659
 11
29.1129
 21
-77.8978
  0
LINE
  8
0
 10
29.1129
 20
-77.8978
 11
29.1247
 21
-77.8616
  0
LINE
  8
0
 10
29.1247
 20
-77.8616
 11
29.29
 21
-77.5102
  0
LINE
  8
0
 10
29.29
 20
-77.5102
 11
29.3104
 21
-77.478
  0
LINE
  8
0
 10
29.3104
 20
-77.478
 11
29.2777
 21
-77.3316
  0
LINE
  8
0
 10
29.2777
 20
-77.3316
 11
29.3313
 21
-77.2472
  0
LINE
  8
0
 10
29.3313
 20
-77.2472
 11
29.4777
 21
-77.2144
  0
LINE
  8
0
 10
29.4777
 20
-77.2144
 11
29.4981
 21
-77.1823
  0
LINE
  8
0
 10
29.4981
 20
-77.1823
 11
29.7457
 21
-76.883
  0
LINE
  8
0
 10
29.7457
 20
-76.883
 11
29.7734
 21
-76.857
  0
LINE
  8
0
 10
29.7734
 20
-76.857
 11
29.7782
 21
-76.707
  0
LINE
  8
0
 10
29.7782
 20
-76.707
 11
29.851
 21
-76.6386
  0
LINE
  8
0
 10
29.851
 20
-76.6386
 11
30.001
 21
-76.6433
  0
LINE
  8
0
 10
30.001
 20
-76.6433
 11
30.0288
 21
-76.6172
  0
LINE
  8
0
 10
30.0288
 20
-76.6172
 11
30.343
 21
-76.3889
  0
LINE
  8
0
 10
30.343
 20
-76.3889
 11
30.3763
 21
-76.3706
  0
LINE
  8
0
 10
30.3763
 20
-76.3706
 11
30.4182
 21
-76.2265
  0
LINE
  8
0
 10
30.4182
 20
-76.2265
 11
30.5058
 21
-76.1783
  0
LINE
  8
0
 10
30.5058
 20
-76.1783
 11
30.6499
 21
-76.2202
  0
LINE
  8
0
 10
30.6499
 20
-76.2202
 11
30.6833
 21
-76.2018
  0
LINE
  8
0
 10
30.6833
 20
-76.2018
 11
31.0444
 21
-76.0589
  0
LINE
  8
0
 10
31.0444
 20
-76.0589
 11
31.0813
 21
-76.0494
  0
LINE
  8
0
 10
31.0813
 20
-76.0494
 11
31.1576
 21
-75.9202
  0
LINE
  8
0
 10
31.1576
 20
-75.9202
 11
31.2545
 21
-75.8954
  0
LINE
  8
0
 10
31.2545
 20
-75.8954
 11
31.3836
 21
-75.9718
  0
LINE
  8
0
 10
31.3836
 20
-75.9718
 11
31.4205
 21
-75.9623
  0
LINE
  8
0
 10
31.4205
 20
-75.9623
 11
31.8058
 21
-75.9136
  0
LINE
  8
0
 10
31.8058
 20
-75.9136
 11
31.8439
 21
-75.9136
  0
LINE
  8
0
 10
31.8439
 20
-75.9136
 11
31.95
 21
-75.8075
  0
LINE
  8
0
 10
31.95
 20
-75.8075
 11
32.05
 21
-75.8075
  0
LINE
  8
0
 10
32.05
 20
-75.8075
 11
32.1561
 21
-75.9136
  0
LINE
  8
0
 10
32.1561
 20
-75.9136
 11
32.1942
 21
-75.9136
  0
LINE
  8
0
 10
32.1942
 20
-75.9136
 11
32.5795
 21
-75.9623
  0
LINE
  8
0
 10
32.5795
 20
-75.9623
 11
32.6164
 21
-75.9718
  0
LINE
  8
0
 10
32.6164
 20
-75.9718
 11
32.7455
 21
-75.8954
  0
LINE
  8
0
 10
32.7455
 20
-75.8954
 11
32.8424
 21
-75.9202
  0
LINE
  8
0
 10
32.8424
 20
-75.9202
 11
32.9187
 21
-76.0494
  0
LINE
  8
0
 10
32.9187
 20
-76.0494
 11
32.9556
 21
-76.0589
  0
LINE
  8
0
 10
32.9556
 20
-76.0589
 11
33.3167
 21
-76.2018
  0
LINE
  8
0
 10
33.3167
 20
-76.2018
 11
33.3501
 21
-76.2202
  0
LINE
  8
0
 10
33.3501
 20
-76.2202
 11
33.4942
 21
-76.1783
  0
LINE
  8
0
 10
33.4942
 20
-76.1783
 11
33.5818
 21
-76.2265
  0
LINE
  8
0
 10
33.5818
 20
-76.2265
 11
33.6237
 21
-76.3706
  0
LINE
  8
0
 10
33.6237
 20
-76.3706
 11
33.657
 21
-76.3889
  0
LINE
  8
0
 10
33.657
 20
-76.3889
 11
33.9712
 21
-76.6172
  0
LINE
  8
0
 10
33.9712
 20
-76.6172
 11
33.999
 21
-76.6433
  0
LINE
  8
0
 10
33.999
 20
-76.6433
 11
34.149
 21
-76.6386
  0
LINE
  8
0
 10
34.149
 20
-76.6386
 11
34.2218
 21
-76.707
  0
LINE
  8
0
 10
34.2218
 20
-76.707
 11
34.2266
 21
-76.857
  0
LINE
  8
0
 10
34.2266
 20
-76.857
 11
34.2543
 21
-76.883
  0
LINE
  8
0
 10
34.2543
 20
-76.883
 11
34.5019
 21
-77.1823
  0
LINE
  8
0
 10
34.5019
 20
-77.1823
 11
34.5223
 21
-77.2144
  0
LINE
  8
0
 10
34.5223
 20
-77.2144
 11
34.6687
 21
-77.2472
  0
LINE
  8
0
 10
34.6687
 20
-77.2472
 11
34.7223
 21
-77.3316
  0
LINE
  8
0
 10
34.7223
 20
-77.3316
 11
34.6896
 21
-77.478
  0
LINE
  8
0
 10
34.6896
 20
-77.478
 11
34.71
 21
-77.5102
  0
LINE
  8
0
 10
34.71
 20
-77.5102
 11
34.8753
 21
-77.8616
  0
LINE
  8
0
 10
34.8753
 20
-77.8616
 11
34.8871
 21
-77.8978
  0
LINE
  8
0
 10
34.8871
 20
-77.8978
 11
35.0208
 21
-77.9659
  0
LINE
  8
0
 10
35.0208
 20
-77.9659
 11
35.0517
 21
-78.061
  0
LINE
  8
0
 10
35.0517
 20
-78.061
 11
34.9836
 21
-78.1947
  0
LINE
  8
0
 10
34.9836
 20
-78.1947
 11
34.9953
 21
-78.2309
  0
LINE
  8
0
 10
34.9953
 20
-78.2309
 11
35.0681
 21
-78.6124
  0
LINE
  8
0
 10
35.0681
 20
-78.6124
 11
35.0705
 21
-78.6504
  0
LINE
  8
0
 10
35.0705
 20
-78.6504
 11
35.183
 21
-78.7497
  0
LINE
  8
0
 10
35.183
 20
-78.7497
 11
35.1893
 21
-78.8494
  0
LINE
  8
0
 10
35.1893
 20
-78.8494
 11
35.0901
 21
-78.962
  0
LINE
  8
0
 10
35.0901
 20
-78.962
 11
35.0925
 21
-79
  0
LINE
  8
0
 10
35.0925
 20
-79
 11
35.0681
 21
-79.3876
  0
LINE
  8
0
 10
35.0681
 20
-79.3876
 11
35.061
 21
-79.425
  0
LINE
  8
0
 10
35.061
 20
-79.425
 11
35.1453
 21
-79.5491
  0
LINE
  8
0
 10
35.1453
 20
-79.5491
 11
35.1266
 21
-79.6473
  0
LINE
  8
0
 10
35.1266
 20
-79.6473
 11
35.0025
 21
-79.7317
  0
LINE
  8
0
 10
35.0025
 20
-79.7317
 11
34.9953
 21
-79.7691
  0
LINE
  8
0
 10
34.9953
 20
-79.7691
 11
34.8753
 21
-80.1384
  0
LINE
  8
0
 10
34.8753
 20
-80.1384
 11
34.8591
 21
-80.1729
  0
LINE
  8
0
 10
34.8591
 20
-80.1729
 11
34.9099
 21
-80.3141
  0
LINE
  8
0
 10
34.9099
 20
-80.3141
 11
34.8674
 21
-80.4045
  0
LINE
  8
0
 10
34.8674
 20
-80.4045
 11
34.7262
 21
-80.4554
  0
LINE
  8
0
 10
34.7262
 20
-80.4554
 11
34.71
 21
-80.4898
  0
LINE
  8
0
 10
34.71
 20
-80.4898
 11
34.5019
 21
-80.8177
  0
LINE
  8
0
 10
34.5019
 20
-80.8177
 11
34.4776
 21
-80.8471
  0
LINE
  8
0
 10
34.4776
 20
-80.8471
 11
34.4917
 21
-80.9965
  0
LINE
  8
0
 10
34.4917
 20
-80.9965
 11
34.428
 21
-81.0735
  0
LINE
  8
0
 10
34.428
 20
-81.0735
 11
34.2786
 21
-81.0876
  0
LINE
  8
0
 10
34.2786
 20
-81.0876
 11
34.2543
 21
-81.117
  0
LINE
  8
0
 10
34.2543
 20
-81.117
 11
33.9712
 21
-81.3828
  0
LINE
  8
0
 10
33.9712
 20
-81.3828
 11
33.9404
 21
-81.4052
  0
LINE
  8
0
 10
33.9404
 20
-81.4052
 11
33.9169
 21
-81.5534
  0
LINE
  8
0
 10
33.9169
 20
-81.5534
 11
33.8361
 21
-81.6122
  0
LINE
  8
0
 10
33.8361
 20
-81.6122
 11
33.6879
 21
-81.5887
  0
LINE
  8
0
 10
33.6879
 20
-81.5887
 11
33.657
 21
-81.6111
  0
LINE
  8
0
 10
33.657
 20
-81.6111
 11
33.3167
 21
-81.7982
  0
LINE
  8
0
 10
33.3167
 20
-81.7982
 11
33.2813
 21
-81.8122
  0
LINE
  8
0
 10
33.2813
 20
-81.8122
 11
33.2217
 21
-81.9499
  0
LINE
  8
0
 10
33.2217
 20
-81.9499
 11
33.1288
 21
-81.9867
  0
LINE
  8
0
 10
33.1288
 20
-81.9867
 11
32.9911
 21
-81.9271
  0
LINE
  8
0
 10
32.9911
 20
-81.9271
 11
32.9556
 21
-81.9411
  0
LINE
  8
0
 10
32.9556
 20
-81.9411
 11
32.5795
 21
-82.0377
  0
LINE
  8
0
 10
32.5795
 20
-82.0377
 11
32.5417
 21
-82.0425
  0
LINE
  8
0
 10
32.5417
 20
-82.0425
 11
32.4497
 21
-82.161
  0
LINE
  8
0
 10
32.4497
 20
-82.161
 11
32.3505
 21
-82.1736
  0
LINE
  8
0
 10
32.3505
 20
-82.1736
 11
32.232
 21
-82.0816
  0
LINE
  8
0
 10
32.232
 20
-82.0816
 11
32.1942
 21
-82.0864
  0
LINE
  8
0
 10
32.1942
 20
-82.0864
 11
31.8058
 21
-82.0864
  0
LINE
  8
0
 10
31.8058
 20
-82.0864
 11
31.768
 21
-82.0816
  0
LINE
  8
0
 10
31.768
 20
-82.0816
 11
31.6495
 21
-82.1736
  0
LINE
  8
0
 10
31.6495
 20
-82.1736
 11
31.5503
 21
-82.161
  0
LINE
  8
0
 10
31.5503
 20
-82.161
 11
31.4583
 21
-82.0425
  0
LINE
  8
0
 10
31.4583
 20
-82.0425
 11
31.4205
 21
-82.0377
  0
LINE
  8
0
 10
31.4205
 20
-82.0377
 11
31.0444
 21
-81.9411
  0
LINE
  8
0
 10
31.0444
 20
-81.9411
 11
31.0089
 21
-81.9271
  0
LINE
  8
0
 10
31.0089
 20
-81.9271
 11
30.8712
 21
-81.9867
  0
LINE
  8
0
 10
30.8712
 20
-81.9867
 11
30.7783
 21
-81.9499
  0
LINE
  8
0
 10
30.7783
 20
-81.9499
 11
30.7187
 21
-81.8122
  0
LINE
  8
0
 10
30.7187
 20
-81.8122
 11
30.6833
 21
-81.7982
  0
LINE
  8
0
 10
30.6833
 20
-81.7982
 11
30.343
 21
-81.6111
  0
LINE
  8
0
 10
30.343
 20
-81.6111
 11
30.3121
 21
-81.5887
  0
LINE
  8
0
 10
30.3121
 20
-81.5887
 11
30.1639
 21
-81.6122
  0
LINE
  8
0
 10
30.1639
 20
-81.6122
 11
30.0831
 21
-81.5534
  0
LINE
  8
0
 10
30.0831
 20
-81.5534
 11
30.0596
 21
-81.4052
  0
LINE
  8
0
 10
30.0596
 20
-81.4052
 11
30.0288
 21
-81.3828
  0
LINE
  8
0
 10
30.0288
 20
-81.3828
 11
29.7457
 21
-81.117
  0
LINE
  8
0
 10
29.7457
 20
-81.117
 11
29.7214
 21
-81.0876
  0
LINE
  8
0
 10
29.7214
 20
-81.0876
 11
29.572
 21
-81.0735
  0
LINE
  8
0
 10
29.572
 20
-81.0735
 11
29.5083
 21
-80.9965
  0
LINE
  8
0
 10
29.5083
 20
-80.9965
 11
29.5224
 21
-80.8471
  0
LINE
  8
0
 10
29.5224
 20
-80.8471
 11
29.4981
 21
-80.8177
  0
LINE
  8
0
 10
29.4981
 20
-80.8177
 11
29.29
 21
-80.4898
  0
LINE
  8
0
 10
29.29
 20
-80.4898
 11
29.2738
 21
-80.4554
  0
LINE
  8
0
 10
29.2738
 20
-80.4554
 11
29.1326
 21
-80.4045
  0
LINE
  8
0
 10
29.1326
 20
-80.4045
 11
29.0901
 21
-80.3141
  0
LINE
  8
0
 10
29.0901
 20
-80.3141
 11
29.1409
 21
-80.1729
  0
LINE
  8
0
 10
29.1409
 20
-80.1729
 11
29.1247
 21
-80.1384
  0
LINE
  8
0
 10
29.1247
 20
-80.1384
 11
29.0047
 21
-79.7691
  0
LINE
  8
0
 10
29.0047
 20
-79.7691
 11
28.9975
 21
-79.7317
  0
LINE
  8
0
 10
28.9975
 20
-79.7317
 11
28.8734
 21
-79.6473
  0
LINE
  8
0
 10
28.8734
 20
-79.6473
 11
28.8547
 21
-79.5491
  0
LINE
  8
0
 10
28.8547
 20
-79.5491
 11
28.939
 21
-79.425
  0
LINE
  8
0
 10
28.939
 20
-79.425
 11
28.9319
 21
-79.3876
  0
LINE
  8
0
 10
28.9319
 20
-79.3876
 11
28.9075
 21
-79
  0
LINE
  8
0
 10
28.9075
 20
-79
 11
28.9099
 21
-78.962
  0
LINE
  8
0
 10
28.9099
 20
-78.962
 11
28.8107
 21
-78.8494
  0
LINE
  8
0
 10
30.875
 20
-94
 11
30.875
 21
-86
  0
LINE
  8
0
 10
30.875
 20
-86
 11
30.8839
 21
-85.859
  0
LINE
  8
0
 10
30.8839
 20
-85.859
 11
30.9103
 21
-85.7202
  0
LINE
  8
0
 10
30.9103
 20
-85.7202
 11
30.954
 21
-85.5859
  0
LINE
  8
0
 10
30.954
 20
-85.5859
 11
31.0142
 21
-85.458
  0
LINE
  8
0
 10
31.0142
 20
-85.458
 11
31.0899
 21
-85.3387
  0
LINE
  8
0
 10
31.0899
 20
-85.3387
 11
31.1799
 21
-85.2299
  0
LINE
  8
0
 10
31.1799
 20
-85.2299
 11
31.2829
 21
-85.1332
  0
LINE
  8
0
 10
31.2829
 20
-85.1332
 11
31.3972
 21
-85.0501
  0
LINE
  8
0
 10
31.3972
 20
-85.0501
 11
31.521
 21
-84.9821
  0
LINE
  8
0
 10
31.521
 20
-84.9821
 11
31.6524
 21
-84.9301
  0
LINE
  8
0
 10
31.6524
 20
-84.9301
 11
31.7892
 21
-84.8949
  0
LINE
  8
0
 10
31.7892
 20
-84.8949
 11
31.9294
 21
-84.8772
  0
LINE
  8
0
 10
31.9294
 20
-84.8772
 11
32.0706
 21
-84.8772
  0
LINE
  8
0
 10
32.0706
 20
-84.8772
 11
32.2108
 21
-84.8949
  0
LINE
  8
0
 10
32.2108
 20
-84.8949
 11
32.3476
 21
-84.9301
  0
LINE
  8
0
 10
32.3476
 20
-84.9301
 11
32.479
 21
-84.9821
  0
LINE
  8
0
 10
32.479
 20
-84.9821
 11
32.6028
 21
-85.0501
  0
LINE
  8
0
 10
32.6028
 20
-85.0501
 11
32.7171
 21
-85.1332
  0
LINE
  8
0
 10
32.7171
 20
-85.1332
 11
32.8201
 21
-85.2299
  0
LINE
  8
0
 10
32.8201
 20
-85.2299
 11
32.9101
 21
-85.3387
  0
LINE
  8
0
 10
32.9101
 20
-85.3387
 11
32.9858
 21
-85.458
  0
LINE
  8
0
 10
32.9858
 20
-85.458
 11
33.046
 21
-85.5859
  0
LINE
  8
0
 10
33.046
 20
-85.5859
 11
33.0897
 21
-85.7202
  0
LINE
  8
0
 10
33.0897
 20
-85.7202
 11
33.1161
 21
-85.859
  0
LINE
  8
0
 10
33.1161
 20
-85.859
 11
33.125
 21
-86
  0
LINE
  8
0
 10
33.125
 20
-86
 11
33.125
 21
-94
  0
LINE
  8
0
 10
33.125
 20
-94
 11
33.1161
 21
-94.141
  0
LINE
  8
0
 10
33.1161
 20
-94.141
 11
33.0897
 21
-94.2798
  0
LINE
  8
0
 10
33.0897
 20
-94.2798
 11
33.046
 21
-94.4141
  0
LINE
  8
0
 10
33.046
 20
-94.4141
 11
32.9858
 21
-94.542
  0
LINE
  8
0
 10
32.9858
 20
-94.542
 11
32.9101
 21
-94.6613
  0
LINE
  8
0
 10
32.9101
 20
-94.6613
 11
32.8201
 21
-94.7701
  0
LINE
  8
0
 10
32.8201
 20
-94.7701
 11
32.7171
 21
-94.8668
  0
LINE
  8
0
 10
32.7171
 20
-94.8668
 11
32.6028
 21
-94.9499
  0
LINE
  8
0
 10
32.6028
 20
-94.9499
 11
32.479
 21
-95.0179
  0
LINE
  8
0
 10
32.479
 20
-95.0179
 11
32.3476
 21
-95.0699
  0
LINE
  8
0
 10
32.3476
 20
-95.0699
 11
32.2108
 21
-95.1051
  0
LINE
  8
0
 10
32.2108
 20
-95.1051
 11
32.0706
 21
-95.1228
  0
LINE
  8
0
 10
32.0706
 20
-95.1228
 11
31.9294
 21
-95.1228
  0
LINE
  8
0
 10
31.9294
 20
-95.1228
 11
31.7892
 21
-95.1051
  0
LINE
  8
0
 10
31.7892
 20
-95.1051
 11
31.6524
 21
-95.0699
  0
LINE
  8
0
 10
31.6524
 20
-95.0699
 11
31.521
 21
-95.0179
  0
LINE
  8
0
 10
31.521
 20
-95.0179
 11
31.3972
 21
-94.9499
  0
LINE
  8
0
 10
31.3972
 20
-94.9499
 11
31.2829
 21
-94.8668
  0
LINE
  8
0
 10
31.2829
 20
-94.8668
 11
31.1799
 21
-94.7701
  0
LINE
  8
0
 10
31.1799
 20
-94.7701
 11
31.0899
 21
-94.6613
  0
LINE
  8
0
 10
31.0899
 20
-94.6613
 11
31.0142
 21
-94.542
  0
LINE
  8
0
 10
31.0142
 20
-94.542
 11
30.954
 21
-94.4141
  0
LINE
  8
0
 10
30.954
 20
-94.4141
 11
30.9103
 21
-94.2798
  0
LINE
  8
0
 10
30.9103
 20
-94.2798
 11
30.8839
 21
-94.141
  0
LINE
  8
0
 10
30.8839
 20
-94.141
 11
30.875
 21
-94
  0
LINE
  8
0
 10
30.875
 20
-72
 11
30.875
 21
-64
  0
LINE
  8
0
 10
30.875
 20
-64
 11
30.8839
 21
-63.859
  0
LINE
  8
0
 10
30.8839
 20
-63.859
 11
30.9103
 21
-63.7202
  0
LINE
  8
0
 10
30.9103
 20
-63.7202
 11
30.954
 21
-63.5859
  0
LINE
  8
0
 10
30.954
 20
-63.5859
 11
31.0142
 21
-63.458
  0
LINE
  8
0
 10
31.0142
 20
-63.458
 11
31.0899
 21
-63.3387
  0
LINE
  8
0
 10
31.0899
 20
-63.3387
 11
31.1799
 21
-63.2299
  0
LINE
  8
0
 10
31.1799
 20
-63.2299
 11
31.2829
 21
-63.1332
  0
LINE
  8
0
 10
31.2829
 20
-63.1332
 11
31.3972
 21
-63.0501
  0
LINE
  8
0
 10
31.3972
 20
-63.0501
 11
31.521
 21
-62.9821
  0
LINE
  8
0
 10
31.521
 20
-62.9821
 11
31.6524
 21
-62.9301
  0
LINE
  8
0
 10
31.6524
 20
-62.9301
 11
31.7892
 21
-62.8949
  0
LINE
  8
0
 10
31.7892
 20
-62.8949
 11
31.9294
 21
-62.8772
  0
LINE
  8
0
 10
31.9294
 20
-62.8772
 11
32.0706
 21
-62.8772
  0
LINE
  8
0
 10
32.0706
 20
-62.8772
 11
32.2108
 21
-62.8949
  0
LINE
  8
0
 10
32.2108
 20
-62.8949
 11
32.3476
 21
-62.9301
  0
LINE
  8
0
 10
32.3476
 20
-62.9301
 11
32.479
 21
-62.9821
  0
LINE
  8
0
 10
32.479
 20
-62.9821
 11
32.6028
 21
-63.0501
  0
LINE
  8
0
 10
32.6028
 20
-63.0501
 11
32.7171
 21
-63.1332
  0
LINE
  8
0
 10
32.7171
 20
-63.1332
 11
32.8201
 21
-63.2299
  0
LINE
  8
0
 10
32.8201
 20
-63.2299
 11
32.9101
 21
-63.3387
  0
LINE
  8
0
 10
32.9101
 20
-63.3387
 11
32.9858
 21
-63.458
  0
LINE
  8
0
 10
32.9858
 20
-63.458
 11
33.046
 21
-63.5859
  0
LINE
  8
0
 10
33.046
 20
-63.5859
 11
33.0897
 21
-63.7202
  0
LINE
  8
0
 10
33.0897
 20
-63.7202
 11
33.1161
 21
-63.859
  0
LINE
  8
0
 10
33.1161
 20
-63.859
 11
33.125
 21
-64
  0
LINE
  8
0
 10
33.125
 20
-64
 11
33.125
 21
-72
  0
LINE
  8
0
 10
33.125
 20
-72
 11
33.1161
 21
-72.141
  0
LINE
  8
0
 10
33.1161
 20
-72.141
 11
33.0897
 21
-72.2798
  0
LINE
  8
0
 10
33.0897
 20
-72.2798
 11
33.046
 21
-72.4141
  0
LINE
  8
0
 10
33.046
 20
-72.4141
 11
32.9858
 21
-72.542
  0
LINE
  8
0
 10
32.9858
 20
-72.542
 11
32.9101
 21
-72.6613
  0
LINE
  8
0
 10
32.9101
 20
-72.6613
 11
32.8201
 21
-72.7701
  0
LINE
  8
0
 10
32.8201
 20
-72.7701
 11
32.7171
 21
-72.8668
  0
LINE
  8
0
 10
32.7171
 20
-72.8668
 11
32.6028
 21
-72.9499
  0
LINE
  8
0
 10
32.6028
 20
-72.9499
 11
32.479
 21
-73.0179
  0
LINE
  8
0
 10
32.479
 20
-73.0179
 11
32.3476
 21
-73.0699
  0
LINE
  8
0
 10
32.3476
 20
-73.0699
 11
32.2108
 21
-73.1051
  0
LINE
  8
0
 10
32.2108
 20
-73.1051
 11
32.0706
 21
-73.1228
  0
LINE
  8
0
 10
32.0706
 20
-73.1228
 11
31.9294
 21
-73.1228
  0
LINE
  8
0
 10
31.9294
 20
-73.1228
 11
31.7892
 21
-73.1051
  0
LINE
  8
0
 10
31.7892
 20
-73.1051
 11
31.6524
 21
-73.0699
  0
LINE
  8
0
 10
31.6524
 20
-73.0699
 11
31.521
 21
-73.0179
  0
LINE
  8
0
 10
31.521
 20
-73.0179
 11
31.3972
 21
-72.9499
  0
LINE
  8
0
 10
31.3972
 20
-72.9499
 11
31.2829
 21
-72.8668
  0
LINE
  8
0
 10
31.2829
 20
-72.8668
 11
31.1799
 21
-72.7701
  0
LINE
  8
0
 10
31.1799
 20
-72.7701
 11
31.0899
 21
-72.6613
  0
LINE
  8
0
 10
31.0899
 20
-72.6613
 11
31.0142
 21
-72.542
  0
LINE
  8
0
 10
31.0142
 20
-72.542
 11
30.954
 21
-72.4141
  0
LINE
  8
0
 10
30.954
 20
-72.4141
 11
30.9103
 21
-72.2798
  0
LINE
  8
0
 10
30.9103
 20
-72.2798
 11
30.8839
 21
-72.141
  0
LINE
  8
0
 10
30.8839
 20
-72.141
 11
30.875
 21
-72
  0
LINE
  8
0
 10
2
 20
58.8
 11
92.3632
 21
58.8
  0
LINE
  8
0
 10
92.3632
 20
58.8
 11
88.287
 21
82.2737
  0
LINE
  8
0
 10
88.287
 20
82.2737
 11
93.1254
 21
83.1268
  0
LINE
  8
0
 10
93.1254
 20
83.1268
 11
93.2122
 21
82.6344
  0
LINE
  8
0
 10
93.2122
 20
82.6344
 11
94.1102
 21
83.3005
  0
LINE
  8
0
 10
94.1102
 20
83.3005
 11
92.3737
 21
93.1486
  0
LINE
  8
0
 10
92.3737
 20
93.1486
 11
91.3021
 21
93.4673
  0
LINE
  8
0
 10
91.3021
 20
93.4673
 11
91.3889
 21
92.9749
  0
LINE
  8
0
 10
91.3889
 20
92.9749
 11
86.5762
 21
92.1263
  0
LINE
  8
0
 10
86.5762
 20
92.1263
 11
82.5
 21
115.6
  0
LINE
  8
0
 10
82.5
 20
115.6
 11
2
 21
115.6
  0
LINE
  8
0
 10
2
 20
115.6
 11
2
 21
58.8
  0
LINE
  8
0
 10
6.97
 20
63.77
 11
6.97
 21
68.83
  0
LINE
  8
0
 10
6.97
 20
68.83
 11
17.03
 21
68.83
  0
LINE
  8
0
 10
17.03
 20
68.83
 11
17.03
 21
63.77
  0
LINE
  8
0
 10
17.03
 20
63.77
 11
6.97
 21
63.77
  0
LINE
  8
0
 10
6.97
 20
105.57
 11
6.97
 21
110.63
  0
LINE
  8
0
 10
6.97
 20
110.63
 11
17.03
 21
110.63
  0
LINE
  8
0
 10
17.03
 20
110.63
 11
17.03
 21
105.57
  0
LINE
  8
0
 10
17.03
 20
105.57
 11
6.97
 21
105.57
  0
LINE
  8
0
 10
16.375
 20
74.2
 11
16.3839
 21
74.341
  0
LINE
  8
0
 10
16.3839
 20
74.341
 11
16.4104
 21
74.4798
  0
LINE
  8
0
 10
16.4104
 20
74.4798
 11
16.454
 21
74.6141
  0
LINE
  8
0
 10
16.454
 20
74.6141
 11
16.5142
 21
74.742
  0
LINE
  8
0
 10
16.5142
 20
74.742
 11
16.5899
 21
74.8612
  0
LINE
  8
0
 10
16.5899
 20
74.8612
 11
16.6799
 21
74.9701
  0
LINE
  8
0
 10
16.6799
 20
74.9701
 11
16.7829
 21
75.0668
  0
LINE
  8
0
 10
16.7829
 20
75.0668
 11
16.8972
 21
75.1499
  0
LINE
  8
0
 10
16.8972
 20
75.1499
 11
17.021
 21
75.2179
  0
LINE
  8
0
 10
17.021
 20
75.2179
 11
17.1524
 21
75.2699
  0
LINE
  8
0
 10
17.1524
 20
75.2699
 11
17.2892
 21
75.3051
  0
LINE
  8
0
 10
17.2892
 20
75.3051
 11
17.4294
 21
75.3228
  0
LINE
  8
0
 10
17.4294
 20
75.3228
 11
17.5707
 21
75.3228
  0
LINE
  8
0
 10
17.5707
 20
75.3228
 11
17.7108
 21
75.3051
  0
LINE
  8
0
 10
17.7108
 20
75.3051
 11
17.8477
 21
75.2699
  0
LINE
  8
0
 10
17.8477
 20
75.2699
 11
17.979
 21
75.2179
  0
LINE
  8
0
 10
17.979
 20
75.2179
 11
18.1028
 21
75.1499
  0
LINE
  8
0
 10
18.1028
 20
75.1499
 11
18.2171
 21
75.0668
  0
LINE
  8
0
 10
18.2171
 20
75.0668
 11
18.3201
 21
74.9701
  0
LINE
  8
0
 10
18.3201
 20
74.9701
 11
18.4102
 21
74.8612
  0
LINE
  8
0
 10
18.4102
 20
74.8612
 11
18.4859
 21
74.742
  0
LINE
  8
0
 10
18.4859
 20
74.742
 11
18.546
 21
74.6141
  0
LINE
  8
0
 10
18.546
 20
74.6141
 11
18.5897
 21
74.4798
  0
LINE
  8
0
 10
18.5897
 20
74.4798
 11
18.6161
 21
74.341
  0
LINE
  8
0
 10
18.6161
 20
74.341
 11
18.625
 21
74.2
  0
LINE
  8
0
 10
18.625
 20
74.2
 11
18.6161
 21
74.059
  0
LINE
  8
0
 10
18.6161
 20
74.059
 11
18.5897
 21
73.9202
  0
LINE
  8
0
 10
18.5897
 20
73.9202
 11
18.546
 21
73.7859
  0
LINE
  8
0
 10
18.546
 20
73.7859
 11
18.4859
 21
73.658
  0
LINE
  8
0
 10
18.4859
 20
73.658
 11
18.4102
 21
73.5387
  0
LINE
  8
0
 10
18.4102
 20
73.5387
 11
18.3201
 21
73.4299
  0
LINE
  8
0
 10
18.3201
 20
73.4299
 11
18.2171
 21
73.3332
  0
LINE
  8
0
 10
18.2171
 20
73.3332
 11
18.1028
 21
73.2501
  0
LINE
  8
0
 10
18.1028
 20
73.2501
 11
17.979
 21
73.1821
  0
LINE
  8
0
 10
17.979
 20
73.1821
 11
17.8477
 21
73.13
  0
LINE
  8
0
 10
17.8477
 20
73.13
 11
17.7108
 21
73.0949
  0
LINE
  8
0
 10
17.7108
 20
73.0949
 11
17.5707
 21
73.0772
  0
LINE
  8
0
 10
17.5707
 20
73.0772
 11
17.4294
 21
73.0772
  0
LINE
  8
0
 10
17.4294
 20
73.0772
 11
17.2892
 21
73.0949
  0
LINE
  8
0
 10
17.2892
 20
73.0949
 11
17.1524
 21
73.13
  0
LINE
  8
0
 10
17.1524
 20
73.13
 11
17.021
 21
73.1821
  0
LINE
  8
0
 10
17.021
 20
73.1821
 11
16.8972
 21
73.2501
  0
LINE
  8
0
 10
16.8972
 20
73.2501
 11
16.7829
 21
73.3332
  0
LINE
  8
0
 10
16.7829
 20
73.3332
 11
16.6799
 21
73.4299
  0
LINE
  8
0
 10
16.6799
 20
73.4299
 11
16.5899
 21
73.5387
  0
LINE
  8
0
 10
16.5899
 20
73.5387
 11
16.5142
 21
73.658
  0
LINE
  8
0
 10
16.5142
 20
73.658
 11
16.454
 21
73.7859
  0
LINE
  8
0
 10
16.454
 20
73.7859
 11
16.4104
 21
73.9202
  0
LINE
  8
0
 10
16.4104
 20
73.9202
 11
16.3839
 21
74.059
  0
LINE
  8
0
 10
16.3839
 20
74.059
 11
16.375
 21
74.2
  0
LINE
  8
0
 10
16.375
 20
84.2
 11
16.3839
 21
84.341
  0
LINE
  8
0
 10
16.3839
 20
84.341
 11
16.4104
 21
84.4798
  0
LINE
  8
0
 10
16.4104
 20
84.4798
 11
16.454
 21
84.6141
  0
LINE
  8
0
 10
16.454
 20
84.6141
 11
16.5142
 21
84.742
  0
LINE
  8
0
 10
16.5142
 20
84.742
 11
16.5899
 21
84.8612
  0
LINE
  8
0
 10
16.5899
 20
84.8612
 11
16.6799
 21
84.9701
  0
LINE
  8
0
 10
16.6799
 20
84.9701
 11
16.7829
 21
85.0668
  0
LINE
  8
0
 10
16.7829
 20
85.0668
 11
16.8972
 21
85.1499
  0
LINE
  8
0
 10
16.8972
 20
85.1499
 11
17.021
 21
85.2179
  0
LINE
  8
0
 10
17.021
 20
85.2179
 11
17.1524
 21
85.2699
  0
LINE
  8
0
 10
17.1524
 20
85.2699
 11
17.2892
 21
85.3051
  0
LINE
  8
0
 10
17.2892
 20
85.3051
 11
17.4294
 21
85.3228
  0
LINE
  8
0
 10
17.4294
 20
85.3228
 11
17.5707
 21
85.3228
  0
LINE
  8
0
 10
17.5707
 20
85.3228
 11
17.7108
 21
85.3051
  0
LINE
  8
0
 10
17.7108
 20
85.3051
 11
17.8477
 21
85.2699
  0
LINE
  8
0
 10
17.8477
 20
85.2699
 11
17.979
 21
85.2179
  0
LINE
  8
0
 10
17.979
 20
85.2179
 11
18.1028
 21
85.1499
  0
LINE
  8
0
 10
18.1028
 20
85.1499
 11
18.2171
 21
85.0668
  0
LINE
  8
0
 10
18.2171
 20
85.0668
 11
18.3201
 21
84.9701
  0
LINE
  8
0
 10
18.3201
 20
84.9701
 11
18.4102
 21
84.8612
  0
LINE
  8
0
 10
18.4102
 20
84.8612
 11
18.4859
 21
84.742
  0
LINE
  8
0
 10
18.4859
 20
84.742
 11
18.546
 21
84.6141
  0
LINE
  8
0
 10
18.546
 20
84.6141
 11
18.5897
 21
84.4798
  0
LINE
  8
0
 10
18.5897
 20
84.4798
 11
18.6161
 21
84.341
  0
LINE
  8
0
 10
18.6161
 20
84.341
 11
18.625
 21
84.2
  0
LINE
  8
0
 10
18.625
 20
84.2
 11
18.6161
 21
84.059
  0
LINE
  8
0
 10
18.6161
 20
84.059
 11
18.5897
 21
83.9202
  0
LINE
  8
0
 10
18.5897
 20
83.9202
 11
18.546
 21
83.7859
  0
LINE
  8
0
 10
18.546
 20
83.7859
 11
18.4859
 21
83.658
  0
LINE
  8
0
 10
18.4859
 20
83.658
 11
18.4102
 21
83.5387
  0
LINE
  8
0
 10
18.4102
 20
83.5387
 11
18.3201
 21
83.4299
  0
LINE
  8
0
 10
18.3201
 20
83.4299
 11
18.2171
 21
83.3332
  0
LINE
  8
0
 10
18.2171
 20
83.3332
 11
18.1028
 21
83.2501
  0
LINE
  8
0
 10
18.1028
 20
83.2501
 11
17.979
 21
83.1821
  0
LINE
  8
0
 10
17.979
 20
83.1821
 11
17.8477
 21
83.13
  0
LINE
  8
0
 10
17.8477
 20
83.13
 11
17.7108
 21
83.0949
  0
LINE
  8
0
 10
17.7108
 20
83.0949
 11
17.5707
 21
83.0772
  0
LINE
  8
0
 10
17.5707
 20
83.0772
 11
17.4294
 21
83.0772
  0
LINE
  8
0
 10
17.4294
 20
83.0772
 11
17.2892
 21
83.0949
  0
LINE
  8
0
 10
17.2892
 20
83.0949
 11
17.1524
 21
83.13
  0
LINE
  8
0
 10
17.1524
 20
83.13
 11
17.021
 21
83.1821
  0
LINE
  8
0
 10
17.021
 20
83.1821
 11
16.8972
 21
83.2501
  0
LINE
  8
0
 10
16.8972
 20
83.2501
 11
16.7829
 21
83.3332
  0
LINE
  8
0
 10
16.7829
 20
83.3332
 11
16.6799
 21
83.4299
  0
LINE
  8
0
 10
16.6799
 20
83.4299
 11
16.5899
 21
83.5387
  0
LINE
  8
0
 10
16.5899
 20
83.5387
 11
16.5142
 21
83.658
  0
LINE
  8
0
 10
16.5142
 20
83.658
 11
16.454
 21
83.7859
  0
LINE
  8
0
 10
16.454
 20
83.7859
 11
16.4104
 21
83.9202
  0
LINE
  8
0
 10
16.4104
 20
83.9202
 11
16.3839
 21
84.059
  0
LINE
  8
0
 10
16.3839
 20
84.059
 11
16.375
 21
84.2
  0
LINE
  8
0
 10
16.5
 20
79.2
 11
16.5237
 21
79.576
  0
LINE
  8
0
 10
16.5237
 20
79.576
 11
16.5943
 21
79.9461
  0
LINE
  8
0
 10
16.5943
 20
79.9461
 11
16.7107
 21
80.3044
  0
LINE
  8
0
 10
16.7107
 20
80.3044
 11
16.8711
 21
80.6453
  0
LINE
  8
0
 10
16.8711
 20
80.6453
 11
17.073
 21
80.9633
  0
LINE
  8
0
 10
17.073
 20
80.9633
 11
17.3131
 21
81.2536
  0
LINE
  8
0
 10
17.3131
 20
81.2536
 11
17.5877
 21
81.5115
  0
LINE
  8
0
 10
17.5877
 20
81.5115
 11
17.8925
 21
81.733
  0
LINE
  8
0
 10
17.8925
 20
81.733
 11
18.2227
 21
81.9145
  0
LINE
  8
0
 10
18.2227
 20
81.9145
 11
18.573
 21
82.0532
  0
LINE
  8
0
 10
18.573
 20
82.0532
 11
18.9379
 21
82.1468
  0
LINE
  8
0
 10
18.9379
 20
82.1468
 11
19.3116
 21
82.1941
  0
LINE
  8
0
 10
19.3116
 20
82.1941
 11
20
 21
82.2
  0
LINE
  8
0
 10
20
 20
82.2
 11
22
 21
82.2
  0
LINE
  8
0
 10
22
 20
82.2
 11
22
 21
89.6
  0
LINE
  8
0
 10
22
 20
89.6
 11
63.9
 21
89.6
  0
LINE
  8
0
 10
63.9
 20
89.6
 11
63.9
 21
68.8
  0
LINE
  8
0
 10
63.9
 20
68.8
 11
22
 21
68.8
  0
LINE
  8
0
 10
22
 20
68.8
 11
22
 21
76.2
  0
LINE
  8
0
 10
22
 20
76.2
 11
20
 21
76.2
  0
LINE
  8
0
 10
20
 20
76.2
 11
19.3116
 21
76.2059
  0
LINE
  8
0
 10
19.3116
 20
76.2059
 11
18.9379
 21
76.2531
  0
LINE
  8
0
 10
18.9379
 20
76.2531
 11
18.573
 21
76.3468
  0
LINE
  8
0
 10
18.573
 20
76.3468
 11
18.2227
 21
76.4855
  0
LINE
  8
0
 10
18.2227
 20
76.4855
 11
17.8925
 21
76.667
  0
LINE
  8
0
 10
17.8925
 20
76.667
 11
17.5877
 21
76.8885
  0
LINE
  8
0
 10
17.5877
 20
76.8885
 11
17.3131
 21
77.1463
  0
LINE
  8
0
 10
17.3131
 20
77.1463
 11
17.073
 21
77.4366
  0
LINE
  8
0
 10
17.073
 20
77.4366
 11
16.8711
 21
77.7547
  0
LINE
  8
0
 10
16.8711
 20
77.7547
 11
16.7107
 21
78.0956
  0
LINE
  8
0
 10
16.7107
 20
78.0956
 11
16.5943
 21
78.4539
  0
LINE
  8
0
 10
16.5943
 20
78.4539
 11
16.5237
 21
78.824
  0
LINE
  8
0
 10
16.5237
 20
78.824
 11
16.5
 21
79.2
  0
LINE
  8
0
 10
67.275
 20
74.2
 11
67.2839
 21
74.341
  0
LINE
  8
0
 10
67.2839
 20
74.341
 11
67.3103
 21
74.4798
  0
LINE
  8
0
 10
67.3103
 20
74.4798
 11
67.354
 21
74.6141
  0
LINE
  8
0
 10
67.354
 20
74.6141
 11
67.4142
 21
74.742
  0
LINE
  8
0
 10
67.4142
 20
74.742
 11
67.4899
 21
74.8612
  0
LINE
  8
0
 10
67.4899
 20
74.8612
 11
67.5799
 21
74.9701
  0
LINE
  8
0
 10
67.5799
 20
74.9701
 11
67.6829
 21
75.0668
  0
LINE
  8
0
 10
67.6829
 20
75.0668
 11
67.7972
 21
75.1499
  0
LINE
  8
0
 10
67.7972
 20
75.1499
 11
67.921
 21
75.2179
  0
LINE
  8
0
 10
67.921
 20
75.2179
 11
68.0524
 21
75.2699
  0
LINE
  8
0
 10
68.0524
 20
75.2699
 11
68.1892
 21
75.3051
  0
LINE
  8
0
 10
68.1892
 20
75.3051
 11
68.3294
 21
75.3228
  0
LINE
  8
0
 10
68.3294
 20
75.3228
 11
68.4706
 21
75.3228
  0
LINE
  8
0
 10
68.4706
 20
75.3228
 11
68.6108
 21
75.3051
  0
LINE
  8
0
 10
68.6108
 20
75.3051
 11
68.7477
 21
75.2699
  0
LINE
  8
0
 10
68.7477
 20
75.2699
 11
68.879
 21
75.2179
  0
LINE
  8
0
 10
68.879
 20
75.2179
 11
69.0028
 21
75.1499
  0
LINE
  8
0
 10
69.0028
 20
75.1499
 11
69.1171
 21
75.0668
  0
LINE
  8
0
 10
69.1171
 20
75.0668
 11
69.2201
 21
74.9701
  0
LINE
  8
0
 10
69.2201
 20
74.9701
 11
69.3102
 21
74.8612
  0
LINE
  8
0
 10
69.3102
 20
74.8612
 11
69.3858
 21
74.742
  0
LINE
  8
0
 10
69.3858
 20
74.742
 11
69.446
 21
74.6141
  0
LINE
  8
0
 10
69.446
 20
74.6141
 11
69.4897
 21
74.4798
  0
LINE
  8
0
 10
69.4897
 20
74.4798
 11
69.5161
 21
74.341
  0
LINE
  8
0
 10
69.5161
 20
74.341
 11
69.525
 21
74.2
  0
LINE
  8
0
 10
69.525
 20
74.2
 11
69.5161
 21
74.059
  0
LINE
  8
0
 10
69.5161
 20
74.059
 11
69.4897
 21
73.9202
  0
LINE
  8
0
 10
69.4897
 20
73.9202
 11
69.446
 21
73.7859
  0
LINE
  8
0
 10
69.446
 20
73.7859
 11
69.3858
 21
73.658
  0
LINE
  8
0
 10
69.3858
 20
73.658
 11
69.3102
 21
73.5387
  0
LINE
  8
0
 10
69.3102
 20
73.5387
 11
69.2201
 21
73.4299
  0
LINE
  8
0
 10
69.2201
 20
73.4299
 11
69.1171
 21
73.3332
  0
LINE
  8
0
 10
69.1171
 20
73.3332
 11
69.0028
 21
73.2501
  0
LINE
  8
0
 10
69.0028
 20
73.2501
 11
68.879
 21
73.1821
  0
LINE
  8
0
 10
68.879
 20
73.1821
 11
68.7477
 21
73.13
  0
LINE
  8
0
 10
68.7477
 20
73.13
 11
68.6108
 21
73.0949
  0
LINE
  8
0
 10
68.6108
 20
73.0949
 11
68.4706
 21
73.0772
  0
LINE
  8
0
 10
68.4706
 20
73.0772
 11
68.3294
 21
73.0772
  0
LINE
  8
0
 10
68.3294
 20
73.0772
 11
68.1892
 21
73.0949
  0
LINE
  8
0
 10
68.1892
 20
73.0949
 11
68.0524
 21
73.13
  0
LINE
  8
0
 10
68.0524
 20
73.13
 11
67.921
 21
73.1821
  0
LINE
  8
0
 10
67.921
 20
73.1821
 11
67.7972
 21
73.2501
  0
LINE
  8
0
 10
67.7972
 20
73.2501
 11
67.6829
 21
73.3332
  0
LINE
  8
0
 10
67.6829
 20
73.3332
 11
67.5799
 21
73.4299
  0
LINE
  8
0
 10
67.5799
 20
73.4299
 11
67.4899
 21
73.5387
  0
LINE
  8
0
 10
67.4899
 20
73.5387
 11
67.4142
 21
73.658
  0
LINE
  8
0
 10
67.4142
 20
73.658
 11
67.354
 21
73.7859
  0
LINE
  8
0
 10
67.354
 20
73.7859
 11
67.3103
 21
73.9202
  0
LINE
  8
0
 10
67.3103
 20
73.9202
 11
67.2839
 21
74.059
  0
LINE
  8
0
 10
67.2839
 20
74.059
 11
67.275
 21
74.2
  0
LINE
  8
0
 10
67.275
 20
84.2
 11
67.2839
 21
84.341
  0
LINE
  8
0
 10
67.2839
 20
84.341
 11
67.3103
 21
84.4798
  0
LINE
  8
0
 10
67.3103
 20
84.4798
 11
67.354
 21
84.6141
  0
LINE
  8
0
 10
67.354
 20
84.6141
 11
67.4142
 21
84.742
  0
LINE
  8
0
 10
67.4142
 20
84.742
 11
67.4899
 21
84.8612
  0
LINE
  8
0
 10
67.4899
 20
84.8612
 11
67.5799
 21
84.9701
  0
LINE
  8
0
 10
67.5799
 20
84.9701
 11
67.6829
 21
85.0668
  0
LINE
  8
0
 10
67.6829
 20
85.0668
 11
67.7972
 21
85.1499
  0
LINE
  8
0
 10
67.7972
 20
85.1499
 11
67.921
 21
85.2179
  0
LINE
  8
0
 10
67.921
 20
85.2179
 11
68.0524
 21
85.2699
  0
LINE
  8
0
 10
68.0524
 20
85.2699
 11
68.1892
 21
85.3051
  0
LINE
  8
0
 10
68.1892
 20
85.3051
 11
68.3294
 21
85.3228
  0
LINE
  8
0
 10
68.3294
 20
85.3228
 11
68.4706
 21
85.3228
  0
LINE
  8
0
 10
68.4706
 20
85.3228
 11
68.6108
 21
85.3051
  0
LINE
  8
0
 10
68.6108
 20
85.3051
 11
68.7477
 21
85.2699
  0
LINE
  8
0
 10
68.7477
 20
85.2699
 11
68.879
 21
85.2179
  0
LINE
  8
0
 10
68.879
 20
85.2179
 11
69.0028
 21
85.1499
  0
LINE
  8
0
 10
69.0028
 20
85.1499
 11
69.1171
 21
85.0668
  0
LINE
  8
0
 10
69.1171
 20
85.0668
 11
69.2201
 21
84.9701
  0
LINE
  8
0
 10
69.2201
 20
84.9701
 11
69.3102
 21
84.8612
  0
LINE
  8
0
 10
69.3102
 20
84.8612
 11
69.3858
 21
84.742
  0
LINE
  8
0
 10
69.3858
 20
84.742
 11
69.446
 21
84.6141
  0
LINE
  8
0
 10
69.446
 20
84.6141
 11
69.4897
 21
84.4798
  0
LINE
  8
0
 10
69.4897
 20
84.4798
 11
69.5161
 21
84.341
  0
LINE
  8
0
 10
69.5161
 20
84.341
 11
69.525
 21
84.2
  0
LINE
  8
0
 10
69.525
 20
84.2
 11
69.5161
 21
84.059
  0
LINE
  8
0
 10
69.5161
 20
84.059
 11
69.4897
 21
83.9202
  0
LINE
  8
0
 10
69.4897
 20
83.9202
 11
69.446
 21
83.7859
  0
LINE
  8
0
 10
69.446
 20
83.7859
 11
69.3858
 21
83.658
  0
LINE
  8
0
 10
69.3858
 20
83.658
 11
69.3102
 21
83.5387
  0
LINE
  8
0
 10
69.3102
 20
83.5387
 11
69.2201
 21
83.4299
  0
LINE
  8
0
 10
69.2201
 20
83.4299
 11
69.1171
 21
83.3332
  0
LINE
  8
0
 10
69.1171
 20
83.3332
 11
69.0028
 21
83.2501
  0
LINE
  8
0
 10
69.0028
 20
83.2501
 11
68.879
 21
83.1821
  0
LINE
  8
0
 10
68.879
 20
83.1821
 11
68.7477
 21
83.13
  0
LINE
  8
0
 10
68.7477
 20
83.13
 11
68.6108
 21
83.0949
  0
LINE
  8
0
 10
68.6108
 20
83.0949
 11
68.4706
 21
83.0772
  0
LINE
  8
0
 10
68.4706
 20
83.0772
 11
68.3294
 21
83.0772
  0
LINE
  8
0
 10
68.3294
 20
83.0772
 11
68.1892
 21
83.0949
  0
LINE
  8
0
 10
68.1892
 20
83.0949
 11
68.0524
 21
83.13
  0
LINE
  8
0
 10
68.0524
 20
83.13
 11
67.921
 21
83.1821
  0
LINE
  8
0
 10
67.921
 20
83.1821
 11
67.7972
 21
83.2501
  0
LINE
  8
0
 10
67.7972
 20
83.2501
 11
67.6829
 21
83.3332
  0
LINE
  8
0
 10
67.6829
 20
83.3332
 11
67.5799
 21
83.4299
  0
LINE
  8
0
 10
67.5799
 20
83.4299
 11
67.4899
 21
83.5387
  0
LINE
  8
0
 10
67.4899
 20
83.5387
 11
67.4142
 21
83.658
  0
LINE
  8
0
 10
67.4142
 20
83.658
 11
67.354
 21
83.7859
  0
LINE
  8
0
 10
67.354
 20
83.7859
 11
67.3103
 21
83.9202
  0
LINE
  8
0
 10
67.3103
 20
83.9202
 11
67.2839
 21
84.059
  0
LINE
  8
0
 10
67.2839
 20
84.059
 11
67.275
 21
84.2
  0
LINE
  8
0
 10
67.47
 20
105.57
 11
67.47
 21
110.63
  0
LINE
  8
0
 10
67.47
 20
110.63
 11
77.53
 21
110.63
  0
LINE
  8
0
 10
77.53
 20
110.63
 11
77.53
 21
105.57
  0
LINE
  8
0
 10
77.53
 20
105.57
 11
67.47
 21
105.57
  0
LINE
  8
0
 10
75.5967
 20
63.77
 11
75.5967
 21
68.83
  0
LINE
  8
0
 10
75.5967
 20
68.83
 11
85.6567
 21
68.83
  0
LINE
  8
0
 10
85.6567
 20
68.83
 11
85.6567
 21
63.77
  0
LINE
  8
0
 10
85.6567
 20
63.77
 11
75.5967
 21
63.77
  0
ENDSEC
  0
SECTION
  2
OBJECTS
  0
DICTIONARY
  0
ENDSEC
  0
EOF
