<?xml version="1.0" encoding="UTF-8" standalone="no"?>
<svg
   xmlns:dc="http://purl.org/dc/elements/1.1/"
   xmlns:cc="http://creativecommons.org/ns#"
   xmlns:rdf="http://www.w3.org/1999/02/22-rdf-syntax-ns#"
   xmlns:svg="http://www.w3.org/2000/svg"
   xmlns="http://www.w3.org/2000/svg"
   viewBox="0 0 744.09497 1052.3625"
   height="1052.3625"
   width="744.09497"
   xml:space="preserve"
   version="1.1"
   id="svg4155"><metadata
     id="metadata4161"><rdf:RDF><cc:Work
         rdf:about=""><dc:format>image/svg+xml</dc:format><dc:type
           rdf:resource="http://purl.org/dc/dcmitype/StillImage" /><dc:title></dc:title></cc:Work></rdf:RDF></metadata><defs
     id="defs4159"><clipPath
       id="clipPath4173"
       clipPathUnits="userSpaceOnUse"><path
         id="path4175"
         d="m 0,841.89 595.276,0 L 595.276,0 0,0 0,841.89 Z" /></clipPath></defs><g
     transform="matrix(1.25,0,0,-1.25,0,1052.3625)"
     id="g4163"><g
       transform="translate(13.5354,836.2205)"
       id="g4165"><path
         id="path4167"
         style="fill:none;stroke:#0000ff;stroke-width:0.5;stroke-linecap:butt;stroke-linejoin:miter;stroke-miterlimit:10;stroke-dasharray:none;stroke-opacity:1"
         d="m 0,0 170.079,0 0,-18 7.866,0 0,-27.709 -7.866,0 0,-128.835 7.866,0 0,-27.708 -7.866,0 0,-14.173 -170.079,0 0,14.173 -7.866,0 0,27.708 7.866,0 0,128.835 -7.866,0 0,27.709 L 0,-18 0,0" /></g><g
       id="g4169"><g
         clip-path="url(#clipPath4173)"
         id="g4171"><g
           transform="translate(73.2047,807.0233)"
           id="g4177"><path
             id="path4179"
             style="fill:none;stroke:#0000ff;stroke-width:0.5;stroke-linecap:butt;stroke-linejoin:miter;stroke-miterlimit:10;stroke-dasharray:none;stroke-opacity:1"
             d="M 0,0 C 1.957,0 3.543,-1.586 3.543,-3.543 3.543,-5.5 1.957,-7.087 0,-7.087 c -1.957,0 -3.543,1.587 -3.543,3.544 C -3.543,-1.586 -1.957,0 0,0 Z" /></g><g
           transform="translate(152.2913,807.0233)"
           id="g4181"><path
             id="path4183"
             style="fill:none;stroke:#0000ff;stroke-width:0.5;stroke-linecap:butt;stroke-linejoin:miter;stroke-miterlimit:10;stroke-dasharray:none;stroke-opacity:1"
             d="M 0,0 C 1.957,0 3.543,-1.586 3.543,-3.543 3.543,-5.5 1.957,-7.087 0,-7.087 c -1.957,0 -3.543,1.587 -3.543,3.544 C -3.543,-1.586 -1.957,0 0,0 Z" /></g><g
           transform="translate(30.1181,663.0233)"
           id="g4185"><path
             id="path4187"
             style="fill:none;stroke:#0000ff;stroke-width:0.5;stroke-linecap:butt;stroke-linejoin:miter;stroke-miterlimit:10;stroke-dasharray:none;stroke-opacity:1"
             d="M 0,0 C 1.957,0 3.543,-1.586 3.543,-3.543 3.543,-5.5 1.957,-7.087 0,-7.087 c -1.957,0 -3.543,1.587 -3.543,3.544 C -3.543,-1.586 -1.957,0 0,0 Z" /></g><g
           transform="translate(167.0315,659.3383)"
           id="g4189"><path
             id="path4191"
             style="fill:none;stroke:#0000ff;stroke-width:0.5;stroke-linecap:butt;stroke-linejoin:miter;stroke-miterlimit:10;stroke-dasharray:none;stroke-opacity:1"
             d="M 0,0 C 1.957,0 3.543,-1.586 3.543,-3.543 3.543,-5.5 1.957,-7.087 0,-7.087 c -1.957,0 -3.543,1.587 -3.543,3.544 C -3.543,-1.586 -1.957,0 0,0 Z" /></g><g
           transform="translate(96.6614,718.5172)"
           id="g4193"><path
             id="path4195"
             style="fill:#000000;fill-opacity:1;fill-rule:nonzero;stroke:none"
             d="M 0,0 0,-7.282 C 0.008,-7.554 -0.02,-7.826 -0.085,-8.093 -0.15,-8.362 -0.261,-8.6 -0.408,-8.804 c -0.148,-0.204 -0.346,-0.375 -0.593,-0.502 -0.246,-0.128 -0.544,-0.19 -0.884,-0.19 l -7.163,0 c -0.414,0 -0.749,0.065 -1.004,0.196 -0.258,0.133 -0.453,0.303 -0.595,0.515 -0.142,0.213 -0.238,0.448 -0.295,0.712 -0.056,0.264 -0.09,0.527 -0.099,0.791 l 0,7.282 0,-7.282 c 0.009,-0.264 0.043,-0.527 0.099,-0.791 0.057,-0.264 0.156,-0.502 0.295,-0.712 0.142,-0.209 0.337,-0.382 0.595,-0.515 0.255,-0.131 0.59,-0.196 1.004,-0.196 l 7.163,0 c 0.34,0 0.638,0.062 0.884,0.19 0.247,0.127 0.443,0.295 0.593,0.502 0.15,0.207 0.258,0.445 0.323,0.711 0.065,0.267 0.093,0.539 0.085,0.811 L 0,0 Z" /></g><g
           transform="translate(96.6614,718.5172)"
           id="g4197"><path
             id="path4199"
             style="fill:none;stroke:#0000ff;stroke-width:0.5;stroke-linecap:butt;stroke-linejoin:miter;stroke-miterlimit:4;stroke-dasharray:none;stroke-opacity:1"
             d="M 0,0 0,-7.282 C 0.008,-7.554 -0.02,-7.826 -0.085,-8.093 -0.15,-8.362 -0.261,-8.6 -0.408,-8.804 c -0.148,-0.204 -0.346,-0.375 -0.593,-0.502 -0.246,-0.128 -0.544,-0.19 -0.884,-0.19 l -7.163,0 c -0.414,0 -0.749,0.065 -1.004,0.196 -0.258,0.133 -0.453,0.303 -0.595,0.515 -0.142,0.213 -0.238,0.448 -0.295,0.712 -0.056,0.264 -0.09,0.527 -0.099,0.791 l 0,7.282 0,-7.282 c 0.009,-0.264 0.043,-0.527 0.099,-0.791 0.057,-0.264 0.156,-0.502 0.295,-0.712 0.142,-0.209 0.337,-0.382 0.595,-0.515 0.255,-0.131 0.59,-0.196 1.004,-0.196 l 7.163,0 c 0.34,0 0.638,0.062 0.884,0.19 0.247,0.127 0.443,0.295 0.593,0.502 0.15,0.207 0.258,0.445 0.323,0.711 0.065,0.267 0.093,0.539 0.085,0.811 L 0,0 Z" /></g><g
           transform="translate(100.6583,718.503)"
           id="g4201"><path
             id="path4203"
             style="fill:#000000;fill-opacity:1;fill-rule:nonzero;stroke:none"
             d="m 0,0 9.153,0 c 0.221,0 0.434,-0.054 0.644,-0.159 0.206,-0.105 0.388,-0.244 0.547,-0.419 0.158,-0.176 0.286,-0.386 0.382,-0.627 0.097,-0.241 0.145,-0.499 0.145,-0.771 l 0,-1.358 c 0,-0.272 -0.048,-0.527 -0.139,-0.765 C 10.638,-4.337 10.517,-4.547 10.363,-4.723 10.21,-4.898 10.029,-5.037 9.828,-5.136 9.626,-5.236 9.417,-5.287 9.196,-5.287 l -6.251,-0.116 6.251,0.116 c 0.218,0 0.428,0.051 0.632,0.151 0.204,0.099 0.382,0.238 0.533,0.413 0.156,0.176 0.277,0.383 0.371,0.621 0.094,0.238 0.139,0.493 0.139,0.766 l 0,1.36 c 0,0.272 -0.051,0.53 -0.148,0.771 -0.096,0.241 -0.223,0.451 -0.379,0.627 -0.156,0.175 -0.341,0.317 -0.545,0.422 C 9.59,-0.051 9.377,0 9.156,0 L 0,0 0,-9.499 0,0 Z" /></g><g
           transform="translate(100.6583,718.503)"
           id="g4205"><path
             id="path4207"
             style="fill:none;stroke:#0000ff;stroke-width:0.5;stroke-linecap:butt;stroke-linejoin:miter;stroke-miterlimit:4;stroke-dasharray:none;stroke-opacity:1"
             d="m 0,0 9.153,0 c 0.221,0 0.434,-0.054 0.644,-0.159 0.206,-0.105 0.388,-0.244 0.547,-0.419 0.158,-0.176 0.286,-0.386 0.382,-0.627 0.097,-0.241 0.145,-0.499 0.145,-0.771 l 0,-1.358 c 0,-0.272 -0.048,-0.527 -0.139,-0.765 C 10.638,-4.337 10.517,-4.547 10.363,-4.723 10.21,-4.898 10.029,-5.037 9.828,-5.136 9.626,-5.236 9.417,-5.287 9.196,-5.287 l -6.251,-0.116 6.251,0.116 c 0.218,0 0.428,0.051 0.632,0.151 0.204,0.099 0.382,0.238 0.533,0.413 0.156,0.176 0.277,0.383 0.371,0.621 0.094,0.238 0.139,0.493 0.139,0.766 l 0,1.36 c 0,0.272 -0.051,0.53 -0.148,0.771 -0.096,0.241 -0.223,0.451 -0.379,0.627 -0.156,0.175 -0.341,0.317 -0.545,0.422 C 9.59,-0.051 9.377,0 9.156,0 L 0,0 0,-9.499 0,0 Z" /></g><g
           transform="translate(98.5748,725.4451)"
           id="g4209"><path
             id="path4211"
             style="fill:#000000;fill-opacity:1;fill-rule:nonzero;stroke:none"
             d="M 0,0 0,17.739 8.025,10.145 0,17.736 -8.025,10.145 0,17.736 0,0 Z" /></g><g
           transform="translate(98.5748,725.4451)"
           id="g4213"><path
             id="path4215"
             style="fill:none;stroke:#0000ff;stroke-width:0.5;stroke-linecap:butt;stroke-linejoin:miter;stroke-miterlimit:4;stroke-dasharray:none;stroke-opacity:1"
             d="M 0,0 0,17.739 8.025,10.145 0,17.736 -8.025,10.145 0,17.736 0,0 Z" /></g><g
           transform="translate(13.5354,614.1257)"
           id="g4217"><path
             id="path4219"
             style="fill:none;stroke:#0000ff;stroke-width:0.5;stroke-linecap:butt;stroke-linejoin:miter;stroke-miterlimit:10;stroke-dasharray:none;stroke-opacity:1"
             d="m 0,0 170.079,0 0,-14.173 7.866,0 0,-27.709 -7.866,0 0,-150.773 7.866,0 0,-27.709 -7.866,0 0,-14.173 -170.079,0 0,14.173 -7.866,0 0,27.709 7.866,0 0,150.773 -7.866,0 0,27.709 7.866,0 L 0,0" /></g><g
           transform="translate(63.1417,575.1493)"
           id="g4221"><path
             id="path4223"
             style="fill:none;stroke:#0000ff;stroke-width:0.5;stroke-linecap:butt;stroke-linejoin:miter;stroke-miterlimit:10;stroke-dasharray:none;stroke-opacity:1"
             d="M 0,0 C 1.957,0 3.543,-1.586 3.543,-3.543 3.543,-5.5 1.957,-7.087 0,-7.087 c -1.957,0 -3.543,1.587 -3.543,3.544 C -3.543,-1.586 -1.957,0 0,0 Z" /></g><g
           transform="translate(134.0079,575.1493)"
           id="g4225"><path
             id="path4227"
             style="fill:none;stroke:#0000ff;stroke-width:0.5;stroke-linecap:butt;stroke-linejoin:miter;stroke-miterlimit:10;stroke-dasharray:none;stroke-opacity:1"
             d="M 0,0 C 1.957,0 3.543,-1.586 3.543,-3.543 3.543,-5.5 1.957,-7.087 0,-7.087 c -1.957,0 -3.543,1.587 -3.543,3.544 C -3.543,-1.586 -1.957,0 0,0 Z" /></g><path
           id="path4229"
           style="fill:none;stroke:#0000ff;stroke-width:0.5;stroke-linecap:butt;stroke-linejoin:miter;stroke-miterlimit:10;stroke-dasharray:none;stroke-opacity:1"
           d="m 27.709,559.092 14.173,0 0,-7.087 -14.173,0 0,7.087 z" /><path
           id="path4231"
           style="fill:none;stroke:#0000ff;stroke-width:0.5;stroke-linecap:butt;stroke-linejoin:miter;stroke-miterlimit:10;stroke-dasharray:none;stroke-opacity:1"
           d="m 155.268,559.092 14.173,0 0,-7.087 -14.173,0 0,7.087 z" /><path
           id="path4233"
           style="fill:none;stroke:#0000ff;stroke-width:0.5;stroke-linecap:butt;stroke-linejoin:miter;stroke-miterlimit:10;stroke-dasharray:none;stroke-opacity:1"
           d="m 27.709,435.644 14.173,0 0,-7.087 -14.173,0 0,7.087 z" /><path
           id="path4235"
           style="fill:none;stroke:#0000ff;stroke-width:0.5;stroke-linecap:butt;stroke-linejoin:miter;stroke-miterlimit:10;stroke-dasharray:none;stroke-opacity:1"
           d="m 155.268,435.644 14.173,0 0,-7.087 -14.173,0 0,7.087 z" /><g
           transform="translate(98.5748,487.9875)"
           id="g4237"><path
             id="path4239"
             style="fill:#000000;fill-opacity:1;fill-rule:nonzero;stroke:none"
             d="M 0,0 0,17.739 8.025,10.145 0,17.739 -8.025,10.145 0,17.739 0,0 Z" /></g><g
           transform="translate(98.5748,487.9875)"
           id="g4241"><path
             id="path4243"
             style="fill:none;stroke:#0000ff;stroke-width:0.5;stroke-linecap:butt;stroke-linejoin:miter;stroke-miterlimit:4;stroke-dasharray:none;stroke-opacity:1"
             d="M 0,0 0,17.739 8.025,10.145 0,17.739 -8.025,10.145 0,17.739 0,0 Z" /></g><path
           id="path4245"
           style="fill:none;stroke:#0000ff;stroke-width:0.5;stroke-linecap:butt;stroke-linejoin:miter;stroke-miterlimit:10;stroke-dasharray:none;stroke-opacity:1"
           d="m 5.669,375.761 297.638,0 0,-127.559 -297.638,0 0,127.559 z" /><path
           id="path4247"
           style="fill:none;stroke:#0000ff;stroke-width:0.5;stroke-linecap:butt;stroke-linejoin:miter;stroke-miterlimit:10;stroke-dasharray:none;stroke-opacity:1"
           d="m 61.583,325.836 7.866,0 0,-27.709 -7.866,0 0,27.709 z" /><path
           id="path4249"
           style="fill:none;stroke:#0000ff;stroke-width:0.5;stroke-linecap:butt;stroke-linejoin:miter;stroke-miterlimit:10;stroke-dasharray:none;stroke-opacity:1"
           d="m 239.528,325.836 7.866,0 0,-27.709 -7.866,0 0,27.709 z" /><g
           transform="translate(97.7953,361.5881)"
           id="g4251"><path
             id="path4253"
             style="fill:none;stroke:#0000ff;stroke-width:0.5;stroke-linecap:butt;stroke-linejoin:miter;stroke-miterlimit:10;stroke-dasharray:none;stroke-opacity:1"
             d="m 0,0 0,0 c 1.957,0 3.543,-1.586 3.543,-3.543 l 0,-92.126 c 0,-1.957 -1.586,-3.544 -3.543,-3.544 -1.957,0 -3.543,1.587 -3.543,3.544 l 0,92.126 C -3.543,-1.586 -1.957,0 0,0 Z" /></g><g
           transform="translate(111.9685,361.5881)"
           id="g4255"><path
             id="path4257"
             style="fill:none;stroke:#0000ff;stroke-width:0.5;stroke-linecap:butt;stroke-linejoin:miter;stroke-miterlimit:10;stroke-dasharray:none;stroke-opacity:1"
             d="m 0,0 0,0 c 1.957,0 3.543,-1.586 3.543,-3.543 l 0,-92.126 c 0,-1.957 -1.586,-3.544 -3.543,-3.544 -1.957,0 -3.543,1.587 -3.543,3.544 l 0,92.126 C -3.543,-1.586 -1.957,0 0,0 Z" /></g><g
           transform="translate(126.1417,361.5881)"
           id="g4259"><path
             id="path4261"
             style="fill:none;stroke:#0000ff;stroke-width:0.5;stroke-linecap:butt;stroke-linejoin:miter;stroke-miterlimit:10;stroke-dasharray:none;stroke-opacity:1"
             d="m 0,0 0,0 c 1.957,0 3.543,-1.586 3.543,-3.543 l 0,-92.126 c 0,-1.957 -1.586,-3.544 -3.543,-3.544 -1.957,0 -3.543,1.587 -3.543,3.544 l 0,92.126 C -3.543,-1.586 -1.957,0 0,0 Z" /></g><g
           transform="translate(140.315,361.5881)"
           id="g4263"><path
             id="path4265"
             style="fill:none;stroke:#0000ff;stroke-width:0.5;stroke-linecap:butt;stroke-linejoin:miter;stroke-miterlimit:10;stroke-dasharray:none;stroke-opacity:1"
             d="m 0,0 0,0 c 1.957,0 3.543,-1.586 3.543,-3.543 l 0,-92.126 c 0,-1.957 -1.586,-3.544 -3.543,-3.544 -1.957,0 -3.543,1.587 -3.543,3.544 l 0,92.126 C -3.543,-1.586 -1.957,0 0,0 Z" /></g><g
           transform="translate(154.4882,361.5881)"
           id="g4267"><path
             id="path4269"
             style="fill:none;stroke:#0000ff;stroke-width:0.5;stroke-linecap:butt;stroke-linejoin:miter;stroke-miterlimit:10;stroke-dasharray:none;stroke-opacity:1"
             d="m 0,0 0,0 c 1.957,0 3.543,-1.586 3.543,-3.543 l 0,-92.126 c 0,-1.957 -1.586,-3.544 -3.543,-3.544 -1.957,0 -3.543,1.587 -3.543,3.544 l 0,92.126 C -3.543,-1.586 -1.957,0 0,0 Z" /></g><g
           transform="translate(168.6614,361.5881)"
           id="g4271"><path
             id="path4273"
             style="fill:none;stroke:#0000ff;stroke-width:0.5;stroke-linecap:butt;stroke-linejoin:miter;stroke-miterlimit:10;stroke-dasharray:none;stroke-opacity:1"
             d="m 0,0 0,0 c 1.957,0 3.543,-1.586 3.543,-3.543 l 0,-92.126 c 0,-1.957 -1.586,-3.544 -3.543,-3.544 -1.957,0 -3.543,1.587 -3.543,3.544 l 0,92.126 C -3.543,-1.586 -1.957,0 0,0 Z" /></g><g
           transform="translate(182.8346,361.5881)"
           id="g4275"><path
             id="path4277"
             style="fill:none;stroke:#0000ff;stroke-width:0.5;stroke-linecap:butt;stroke-linejoin:miter;stroke-miterlimit:10;stroke-dasharray:none;stroke-opacity:1"
             d="m 0,0 0,0 c 1.957,0 3.543,-1.586 3.543,-3.543 l 0,-92.126 c 0,-1.957 -1.586,-3.544 -3.543,-3.544 -1.957,0 -3.543,1.587 -3.543,3.544 l 0,92.126 C -3.543,-1.586 -1.957,0 0,0 Z" /></g><g
           transform="translate(197.0079,361.5881)"
           id="g4279"><path
             id="path4281"
             style="fill:none;stroke:#0000ff;stroke-width:0.5;stroke-linecap:butt;stroke-linejoin:miter;stroke-miterlimit:10;stroke-dasharray:none;stroke-opacity:1"
             d="m 0,0 0,0 c 1.957,0 3.543,-1.586 3.543,-3.543 l 0,-92.126 c 0,-1.957 -1.586,-3.544 -3.543,-3.544 -1.957,0 -3.543,1.587 -3.543,3.544 l 0,92.126 C -3.543,-1.586 -1.957,0 0,0 Z" /></g><g
           transform="translate(211.1811,361.5881)"
           id="g4283"><path
             id="path4285"
             style="fill:none;stroke:#0000ff;stroke-width:0.5;stroke-linecap:butt;stroke-linejoin:miter;stroke-miterlimit:10;stroke-dasharray:none;stroke-opacity:1"
             d="m 0,0 0,0 c 1.957,0 3.543,-1.586 3.543,-3.543 l 0,-92.126 c 0,-1.957 -1.586,-3.544 -3.543,-3.544 -1.957,0 -3.543,1.587 -3.543,3.544 l 0,92.126 C -3.543,-1.586 -1.957,0 0,0 Z" /></g><g
           transform="translate(19.8425,351.6668)"
           id="g4287"><path
             id="path4289"
             style="fill:none;stroke:#0000ff;stroke-width:0.5;stroke-linecap:butt;stroke-linejoin:miter;stroke-miterlimit:10;stroke-dasharray:none;stroke-opacity:1"
             d="m 0,0 9.921,0 0,9.921 7.866,0 0,-9.921 9.922,0 0,-7.866 -9.922,0 0,-9.921 -7.866,0 0,9.921 L 0,-7.866 0,0" /></g><g
           transform="translate(261.4252,351.6668)"
           id="g4291"><path
             id="path4293"
             style="fill:none;stroke:#0000ff;stroke-width:0.5;stroke-linecap:butt;stroke-linejoin:miter;stroke-miterlimit:10;stroke-dasharray:none;stroke-opacity:1"
             d="m 0,0 9.921,0 0,9.921 7.866,0 0,-9.921 9.922,0 0,-7.866 -9.922,0 0,-9.921 -7.866,0 0,9.921 L 0,-7.866 0,0" /></g><g
           transform="translate(478.3428,563.1281)"
           id="g4295"><path
             id="path4297"
             style="fill:none;stroke:#0000ff;stroke-width:0.5;stroke-linecap:butt;stroke-linejoin:miter;stroke-miterlimit:10;stroke-dasharray:none;stroke-opacity:1"
             d="m 0,0 c 38.745,-38.745 38.745,-101.563 0,-140.308 -38.745,-38.745 -101.563,-38.745 -140.308,0 -38.745,38.745 -38.745,101.563 0,140.308 C -101.563,38.745 -38.745,38.745 0,0 Z" /></g><g
           transform="translate(410.6945,495.4797)"
           id="g4299"><path
             id="path4301"
             style="fill:none;stroke:#0000ff;stroke-width:0.5;stroke-linecap:butt;stroke-linejoin:miter;stroke-miterlimit:10;stroke-dasharray:none;stroke-opacity:1"
             d="m 0,0 c 1.384,-1.384 1.384,-3.627 0,-5.011 -1.384,-1.384 -3.627,-1.384 -5.011,0 -1.384,1.384 -1.384,3.627 0,5.011 1.384,1.384 3.627,1.384 5.011,0 z" /></g><g
           transform="translate(390.6505,475.4358)"
           id="g4303"><path
             id="path4305"
             style="fill:none;stroke:#0000ff;stroke-width:0.5;stroke-linecap:butt;stroke-linejoin:miter;stroke-miterlimit:10;stroke-dasharray:none;stroke-opacity:1"
             d="m 0,0 c 1.384,-1.384 1.384,-3.627 0,-5.011 -1.384,-1.384 -3.627,-1.384 -5.011,0 -1.384,1.384 -1.384,3.627 0,5.011 1.384,1.384 3.627,1.384 5.011,0 z" /></g><g
           transform="translate(430.7384,515.5237)"
           id="g4307"><path
             id="path4309"
             style="fill:none;stroke:#0000ff;stroke-width:0.5;stroke-linecap:butt;stroke-linejoin:miter;stroke-miterlimit:10;stroke-dasharray:none;stroke-opacity:1"
             d="m 0,0 c 1.384,-1.384 1.384,-3.627 0,-5.011 -1.384,-1.384 -3.627,-1.384 -5.011,0 -1.384,1.384 -1.384,3.627 0,5.011 1.384,1.384 3.627,1.384 5.011,0 z" /></g><g
           transform="translate(380.6285,465.4138)"
           id="g4311"><path
             id="path4313"
             style="fill:none;stroke:#0000ff;stroke-width:0.5;stroke-linecap:butt;stroke-linejoin:miter;stroke-miterlimit:10;stroke-dasharray:none;stroke-opacity:1"
             d="m 0,0 c 1.384,-1.384 1.384,-3.627 0,-5.011 -1.384,-1.384 -3.627,-1.384 -5.011,0 -1.384,1.384 -1.384,3.627 0,5.011 1.384,1.384 3.627,1.384 5.011,0 z" /></g><g
           transform="translate(440.7604,525.5457)"
           id="g4315"><path
             id="path4317"
             style="fill:none;stroke:#0000ff;stroke-width:0.5;stroke-linecap:butt;stroke-linejoin:miter;stroke-miterlimit:10;stroke-dasharray:none;stroke-opacity:1"
             d="m 0,0 c 1.384,-1.384 1.384,-3.627 0,-5.011 -1.384,-1.384 -3.627,-1.384 -5.011,0 -1.384,1.384 -1.384,3.627 0,5.011 1.384,1.384 3.627,1.384 5.011,0 z" /></g><g
           transform="translate(400.6725,485.4578)"
           id="g4319"><path
             id="path4321"
             style="fill:none;stroke:#0000ff;stroke-width:0.5;stroke-linecap:butt;stroke-linejoin:miter;stroke-miterlimit:10;stroke-dasharray:none;stroke-opacity:1"
             d="m 0,0 c 1.384,-1.384 1.384,-3.627 0,-5.011 -1.384,-1.384 -3.627,-1.384 -5.011,0 -1.384,1.384 -1.384,3.627 0,5.011 1.384,1.384 3.627,1.384 5.011,0 z" /></g><g
           transform="translate(420.7164,505.5017)"
           id="g4323"><path
             id="path4325"
             style="fill:none;stroke:#0000ff;stroke-width:0.5;stroke-linecap:butt;stroke-linejoin:miter;stroke-miterlimit:10;stroke-dasharray:none;stroke-opacity:1"
             d="m 0,0 c 1.384,-1.384 1.384,-3.627 0,-5.011 -1.384,-1.384 -3.627,-1.384 -5.011,0 -1.384,1.384 -1.384,3.627 0,5.011 1.384,1.384 3.627,1.384 5.011,0 z" /></g><g
           transform="translate(442.7648,463.4094)"
           id="g4327"><path
             id="path4329"
             style="fill:none;stroke:#0000ff;stroke-width:0.5;stroke-linecap:butt;stroke-linejoin:miter;stroke-miterlimit:10;stroke-dasharray:none;stroke-opacity:1"
             d="m 0,0 c 1.384,-1.384 1.384,-3.627 0,-5.011 -1.384,-1.384 -3.627,-1.384 -5.011,0 -1.384,1.384 -1.384,3.627 0,5.011 1.384,1.384 3.627,1.384 5.011,0 z" /></g><g
           transform="translate(378.6241,527.5501)"
           id="g4331"><path
             id="path4333"
             style="fill:none;stroke:#0000ff;stroke-width:0.5;stroke-linecap:butt;stroke-linejoin:miter;stroke-miterlimit:10;stroke-dasharray:none;stroke-opacity:1"
             d="m 0,0 c 1.384,-1.384 1.384,-3.627 0,-5.011 -1.384,-1.384 -3.627,-1.384 -5.011,0 -1.384,1.384 -1.384,3.627 0,5.011 1.384,1.384 3.627,1.384 5.011,0 z" /></g><g
           transform="translate(426.7296,479.4445)"
           id="g4335"><path
             id="path4337"
             style="fill:none;stroke:#0000ff;stroke-width:0.5;stroke-linecap:butt;stroke-linejoin:miter;stroke-miterlimit:10;stroke-dasharray:none;stroke-opacity:1"
             d="m 0,0 c 1.384,-1.384 1.384,-3.627 0,-5.011 -1.384,-1.384 -3.627,-1.384 -5.011,0 -1.384,1.384 -1.384,3.627 0,5.011 1.384,1.384 3.627,1.384 5.011,0 z" /></g><g
           transform="translate(394.6593,511.5149)"
           id="g4339"><path
             id="path4341"
             style="fill:none;stroke:#0000ff;stroke-width:0.5;stroke-linecap:butt;stroke-linejoin:miter;stroke-miterlimit:10;stroke-dasharray:none;stroke-opacity:1"
             d="m 0,0 c 1.384,-1.384 1.384,-3.627 0,-5.011 -1.384,-1.384 -3.627,-1.384 -5.011,0 -1.384,1.384 -1.384,3.627 0,5.011 1.384,1.384 3.627,1.384 5.011,0 z" /></g><g
           transform="translate(338.0351,359.0336)"
           id="g4343"><path
             id="path4345"
             style="fill:none;stroke:#0000ff;stroke-width:0.5;stroke-linecap:butt;stroke-linejoin:miter;stroke-miterlimit:10;stroke-dasharray:none;stroke-opacity:1"
             d="m 0,0 c 38.745,38.745 101.563,38.745 140.308,0 38.745,-38.745 38.745,-101.563 0,-140.308 C 101.563,-179.053 38.745,-179.053 0,-140.308 -38.745,-101.563 -38.745,-38.745 0,0 Z" /></g><g
           transform="translate(405.6835,291.3852)"
           id="g4347"><path
             id="path4349"
             style="fill:none;stroke:#0000ff;stroke-width:0.5;stroke-linecap:butt;stroke-linejoin:miter;stroke-miterlimit:10;stroke-dasharray:none;stroke-opacity:1"
             d="m 0,0 c 1.384,1.384 3.627,1.384 5.011,0 1.384,-1.384 1.384,-3.627 0,-5.011 C 3.627,-6.395 1.384,-6.395 0,-5.011 -1.384,-3.627 -1.384,-1.384 0,0 Z" /></g><g
           transform="translate(425.7274,271.3413)"
           id="g4351"><path
             id="path4353"
             style="fill:none;stroke:#0000ff;stroke-width:0.5;stroke-linecap:butt;stroke-linejoin:miter;stroke-miterlimit:10;stroke-dasharray:none;stroke-opacity:1"
             d="m 0,0 c 1.384,1.384 3.627,1.384 5.011,0 1.384,-1.384 1.384,-3.627 0,-5.011 C 3.627,-6.395 1.384,-6.395 0,-5.011 -1.384,-3.627 -1.384,-1.384 0,0 Z" /></g><g
           transform="translate(385.6395,311.4292)"
           id="g4355"><path
             id="path4357"
             style="fill:none;stroke:#0000ff;stroke-width:0.5;stroke-linecap:butt;stroke-linejoin:miter;stroke-miterlimit:10;stroke-dasharray:none;stroke-opacity:1"
             d="m 0,0 c 1.384,1.384 3.627,1.384 5.011,0 1.384,-1.384 1.384,-3.627 0,-5.011 C 3.627,-6.395 1.384,-6.395 0,-5.011 -1.384,-3.627 -1.384,-1.384 0,0 Z" /></g><g
           transform="translate(435.7494,261.3193)"
           id="g4359"><path
             id="path4361"
             style="fill:none;stroke:#0000ff;stroke-width:0.5;stroke-linecap:butt;stroke-linejoin:miter;stroke-miterlimit:10;stroke-dasharray:none;stroke-opacity:1"
             d="m 0,0 c 1.384,1.384 3.627,1.384 5.011,0 1.384,-1.384 1.384,-3.627 0,-5.011 C 3.627,-6.395 1.384,-6.395 0,-5.011 -1.384,-3.627 -1.384,-1.384 0,0 Z" /></g><g
           transform="translate(375.6175,321.4512)"
           id="g4363"><path
             id="path4365"
             style="fill:none;stroke:#0000ff;stroke-width:0.5;stroke-linecap:butt;stroke-linejoin:miter;stroke-miterlimit:10;stroke-dasharray:none;stroke-opacity:1"
             d="m 0,0 c 1.384,1.384 3.627,1.384 5.011,0 1.384,-1.384 1.384,-3.627 0,-5.011 C 3.627,-6.395 1.384,-6.395 0,-5.011 -1.384,-3.627 -1.384,-1.384 0,0 Z" /></g><g
           transform="translate(415.7054,281.3633)"
           id="g4367"><path
             id="path4369"
             style="fill:none;stroke:#0000ff;stroke-width:0.5;stroke-linecap:butt;stroke-linejoin:miter;stroke-miterlimit:10;stroke-dasharray:none;stroke-opacity:1"
             d="m 0,0 c 1.384,1.384 3.627,1.384 5.011,0 1.384,-1.384 1.384,-3.627 0,-5.011 C 3.627,-6.395 1.384,-6.395 0,-5.011 -1.384,-3.627 -1.384,-1.384 0,0 Z" /></g><g
           transform="translate(395.6615,301.4072)"
           id="g4371"><path
             id="path4373"
             style="fill:none;stroke:#0000ff;stroke-width:0.5;stroke-linecap:butt;stroke-linejoin:miter;stroke-miterlimit:10;stroke-dasharray:none;stroke-opacity:1"
             d="m 0,0 c 1.384,1.384 3.627,1.384 5.011,0 1.384,-1.384 1.384,-3.627 0,-5.011 C 3.627,-6.395 1.384,-6.395 0,-5.011 -1.384,-3.627 -1.384,-1.384 0,0 Z" /></g><g
           transform="translate(437.7538,323.4556)"
           id="g4375"><path
             id="path4377"
             style="fill:none;stroke:#0000ff;stroke-width:0.5;stroke-linecap:butt;stroke-linejoin:miter;stroke-miterlimit:10;stroke-dasharray:none;stroke-opacity:1"
             d="m 0,0 c 1.384,1.384 3.627,1.384 5.011,0 1.384,-1.384 1.384,-3.627 0,-5.011 C 3.627,-6.395 1.384,-6.395 0,-5.011 -1.384,-3.627 -1.384,-1.384 0,0 Z" /></g><g
           transform="translate(373.6131,259.3149)"
           id="g4379"><path
             id="path4381"
             style="fill:none;stroke:#0000ff;stroke-width:0.5;stroke-linecap:butt;stroke-linejoin:miter;stroke-miterlimit:10;stroke-dasharray:none;stroke-opacity:1"
             d="m 0,0 c 1.384,1.384 3.627,1.384 5.011,0 1.384,-1.384 1.384,-3.627 0,-5.011 C 3.627,-6.395 1.384,-6.395 0,-5.011 -1.384,-3.627 -1.384,-1.384 0,0 Z" /></g><g
           transform="translate(421.7186,307.4204)"
           id="g4383"><path
             id="path4385"
             style="fill:none;stroke:#0000ff;stroke-width:0.5;stroke-linecap:butt;stroke-linejoin:miter;stroke-miterlimit:10;stroke-dasharray:none;stroke-opacity:1"
             d="m 0,0 c 1.384,1.384 3.627,1.384 5.011,0 1.384,-1.384 1.384,-3.627 0,-5.011 C 3.627,-6.395 1.384,-6.395 0,-5.011 -1.384,-3.627 -1.384,-1.384 0,0 Z" /></g><g
           transform="translate(389.6483,275.3501)"
           id="g4387"><path
             id="path4389"
             style="fill:none;stroke:#0000ff;stroke-width:0.5;stroke-linecap:butt;stroke-linejoin:miter;stroke-miterlimit:10;stroke-dasharray:none;stroke-opacity:1"
             d="m 0,0 c 1.384,1.384 3.627,1.384 5.011,0 1.384,-1.384 1.384,-3.627 0,-5.011 C 3.627,-6.395 1.384,-6.395 0,-5.011 -1.384,-3.627 -1.384,-1.384 0,0 Z" /></g><g
           transform="translate(343.2756,597.8561)"
           id="g4391"><path
             id="path4393"
             style="fill:none;stroke:#0000ff;stroke-width:0.5;stroke-linecap:butt;stroke-linejoin:miter;stroke-miterlimit:10;stroke-dasharray:none;stroke-opacity:1"
             d="m 0,0 -146.126,0 0,212.598 86.919,15.326 -1.366,7.747 27.287,4.812 1.366,-7.747 L 0,238.364 0,0" /></g><path
           id="path4395"
           style="fill:none;stroke:#0000ff;stroke-width:0.5;stroke-linecap:butt;stroke-linejoin:miter;stroke-miterlimit:10;stroke-dasharray:none;stroke-opacity:1"
           d="m 261.709,770.273 59.528,0 0,-116.362 -59.528,0 0,116.362 z" /><g
           transform="translate(277.2992,787.99)"
           id="g4397"><path
             id="path4399"
             style="fill:none;stroke:#0000ff;stroke-width:0.5;stroke-linecap:butt;stroke-linejoin:miter;stroke-miterlimit:10;stroke-dasharray:none;stroke-opacity:1"
             d="M 0,0 C 1.957,0 3.543,-1.586 3.543,-3.543 3.543,-5.5 1.957,-7.087 0,-7.087 c -1.957,0 -3.543,1.587 -3.543,3.544 C -3.543,-1.586 -1.957,0 0,0 Z" /></g><g
           transform="translate(305.6457,787.99)"
           id="g4401"><path
             id="path4403"
             style="fill:none;stroke:#0000ff;stroke-width:0.5;stroke-linecap:butt;stroke-linejoin:miter;stroke-miterlimit:10;stroke-dasharray:none;stroke-opacity:1"
             d="M 0,0 C 1.957,0 3.543,-1.586 3.543,-3.543 3.543,-5.5 1.957,-7.087 0,-7.087 c -1.957,0 -3.543,1.587 -3.543,3.544 C -3.543,-1.586 -1.957,0 0,0 Z" /></g><g
           transform="translate(277.2992,643.2813)"
           id="g4405"><path
             id="path4407"
             style="fill:none;stroke:#0000ff;stroke-width:0.5;stroke-linecap:butt;stroke-linejoin:miter;stroke-miterlimit:10;stroke-dasharray:none;stroke-opacity:1"
             d="M 0,0 C 1.957,0 3.543,-1.586 3.543,-3.543 3.543,-5.5 1.957,-7.087 0,-7.087 c -1.957,0 -3.543,1.587 -3.543,3.544 C -3.543,-1.586 -1.957,0 0,0 Z" /></g><g
           transform="translate(305.6457,643.2813)"
           id="g4409"><path
             id="path4411"
             style="fill:none;stroke:#0000ff;stroke-width:0.5;stroke-linecap:butt;stroke-linejoin:miter;stroke-miterlimit:10;stroke-dasharray:none;stroke-opacity:1"
             d="M 0,0 C 1.957,0 3.543,-1.586 3.543,-3.543 3.543,-5.5 1.957,-7.087 0,-7.087 c -1.957,0 -3.543,1.587 -3.543,3.544 C -3.543,-1.586 -1.957,0 0,0 Z" /></g><g
           transform="translate(291.4724,663.8325)"
           id="g4413"><path
             id="path4415"
             style="fill:none;stroke:#0000ff;stroke-width:0.5;stroke-linecap:butt;stroke-linejoin:miter;stroke-miterlimit:10;stroke-dasharray:none;stroke-opacity:1"
             d="m 0,0 c 5.479,0 9.921,-4.442 9.921,-9.921 0,-5.48 -4.442,-9.921 -9.921,-9.921 -5.479,0 -9.921,4.441 -9.921,9.921 C -9.921,-4.442 -5.479,0 0,0 Z" /></g><path
           id="path4417"
           style="fill:none;stroke:#0000ff;stroke-width:0.5;stroke-linecap:butt;stroke-linejoin:miter;stroke-miterlimit:10;stroke-dasharray:none;stroke-opacity:1"
           d="m 211.323,796.281 7.866,0 0,-27.709 -7.866,0 0,27.709 z" /><path
           id="path4419"
           style="fill:none;stroke:#0000ff;stroke-width:0.5;stroke-linecap:butt;stroke-linejoin:miter;stroke-miterlimit:10;stroke-dasharray:none;stroke-opacity:1"
           d="m 211.323,639.738 7.866,0 0,-27.709 -7.866,0 0,27.709 z" /><path
           id="path4421"
           style="fill:none;stroke:#0000ff;stroke-width:0.5;stroke-linecap:butt;stroke-linejoin:miter;stroke-miterlimit:10;stroke-dasharray:none;stroke-opacity:1"
           d="m 321.236,818.22 7.866,0 0,-27.709 -7.866,0 0,27.709 z" /><path
           id="path4423"
           style="fill:none;stroke:#0000ff;stroke-width:0.5;stroke-linecap:butt;stroke-linejoin:miter;stroke-miterlimit:10;stroke-dasharray:none;stroke-opacity:1"
           d="m 321.236,639.738 7.866,0 0,-27.709 -7.866,0 0,27.709 z" /><g
           transform="translate(233.3622,795.1882)"
           id="g4425"><path
             id="path4427"
             style="fill:none;stroke:#0000ff;stroke-width:0.5;stroke-linecap:butt;stroke-linejoin:miter;stroke-miterlimit:10;stroke-dasharray:none;stroke-opacity:1"
             d="m 0,0 9.921,0 0,9.921 7.866,0 0,-9.921 9.922,0 0,-7.866 -9.922,0 0,-9.921 -7.866,0 0,9.921 L 0,-7.866 0,0" /></g><g
           transform="translate(348.9449,597.8561)"
           id="g4429"><path
             id="path4431"
             style="fill:none;stroke:#0000ff;stroke-width:0.5;stroke-linecap:butt;stroke-linejoin:miter;stroke-miterlimit:10;stroke-dasharray:none;stroke-opacity:1"
             d="m 0,0 146.126,0 0,212.598 -86.919,15.326 1.366,7.747 -27.287,4.812 L 31.92,232.736 0,238.364 0,0" /></g><path
           id="path4433"
           style="fill:none;stroke:#0000ff;stroke-width:0.5;stroke-linecap:butt;stroke-linejoin:miter;stroke-miterlimit:10;stroke-dasharray:none;stroke-opacity:1"
           d="m 430.512,770.273 -59.528,0 0,-116.362 59.528,0 0,116.362 z" /><g
           transform="translate(414.9212,787.99)"
           id="g4435"><path
             id="path4437"
             style="fill:none;stroke:#0000ff;stroke-width:0.5;stroke-linecap:butt;stroke-linejoin:miter;stroke-miterlimit:10;stroke-dasharray:none;stroke-opacity:1"
             d="m 0,0 c -1.957,0 -3.543,-1.586 -3.543,-3.543 0,-1.957 1.586,-3.544 3.543,-3.544 1.957,0 3.543,1.587 3.543,3.544 C 3.543,-1.586 1.957,0 0,0 Z" /></g><g
           transform="translate(386.5748,787.99)"
           id="g4439"><path
             id="path4441"
             style="fill:none;stroke:#0000ff;stroke-width:0.5;stroke-linecap:butt;stroke-linejoin:miter;stroke-miterlimit:10;stroke-dasharray:none;stroke-opacity:1"
             d="m 0,0 c -1.957,0 -3.543,-1.586 -3.543,-3.543 0,-1.957 1.586,-3.544 3.543,-3.544 1.957,0 3.543,1.587 3.543,3.544 C 3.543,-1.586 1.957,0 0,0 Z" /></g><g
           transform="translate(414.9212,643.2813)"
           id="g4443"><path
             id="path4445"
             style="fill:none;stroke:#0000ff;stroke-width:0.5;stroke-linecap:butt;stroke-linejoin:miter;stroke-miterlimit:10;stroke-dasharray:none;stroke-opacity:1"
             d="m 0,0 c -1.957,0 -3.543,-1.586 -3.543,-3.543 0,-1.957 1.586,-3.544 3.543,-3.544 1.957,0 3.543,1.587 3.543,3.544 C 3.543,-1.586 1.957,0 0,0 Z" /></g><g
           transform="translate(386.5748,643.2813)"
           id="g4447"><path
             id="path4449"
             style="fill:none;stroke:#0000ff;stroke-width:0.5;stroke-linecap:butt;stroke-linejoin:miter;stroke-miterlimit:10;stroke-dasharray:none;stroke-opacity:1"
             d="m 0,0 c -1.957,0 -3.543,-1.586 -3.543,-3.543 0,-1.957 1.586,-3.544 3.543,-3.544 1.957,0 3.543,1.587 3.543,3.544 C 3.543,-1.586 1.957,0 0,0 Z" /></g><g
           transform="translate(400.748,663.8325)"
           id="g4451"><path
             id="path4453"
             style="fill:none;stroke:#0000ff;stroke-width:0.5;stroke-linecap:butt;stroke-linejoin:miter;stroke-miterlimit:10;stroke-dasharray:none;stroke-opacity:1"
             d="m 0,0 c -5.479,0 -9.921,-4.442 -9.921,-9.921 0,-5.48 4.442,-9.921 9.921,-9.921 5.479,0 9.921,4.441 9.921,9.921 C 9.921,-4.442 5.479,0 0,0 Z" /></g><path
           id="path4455"
           style="fill:none;stroke:#0000ff;stroke-width:0.5;stroke-linecap:butt;stroke-linejoin:miter;stroke-miterlimit:10;stroke-dasharray:none;stroke-opacity:1"
           d="m 480.898,796.281 -7.866,0 0,-27.709 7.866,0 0,27.709 z" /><path
           id="path4457"
           style="fill:none;stroke:#0000ff;stroke-width:0.5;stroke-linecap:butt;stroke-linejoin:miter;stroke-miterlimit:10;stroke-dasharray:none;stroke-opacity:1"
           d="m 480.898,639.738 -7.866,0 0,-27.709 7.866,0 0,27.709 z" /><path
           id="path4459"
           style="fill:none;stroke:#0000ff;stroke-width:0.5;stroke-linecap:butt;stroke-linejoin:miter;stroke-miterlimit:10;stroke-dasharray:none;stroke-opacity:1"
           d="m 370.984,818.22 -7.866,0 0,-27.709 7.866,0 0,27.709 z" /><path
           id="path4461"
           style="fill:none;stroke:#0000ff;stroke-width:0.5;stroke-linecap:butt;stroke-linejoin:miter;stroke-miterlimit:10;stroke-dasharray:none;stroke-opacity:1"
           d="m 370.984,639.738 -7.866,0 0,-27.709 7.866,0 0,27.709 z" /><g
           transform="translate(458.8582,795.1882)"
           id="g4463"><path
             id="path4465"
             style="fill:none;stroke:#0000ff;stroke-width:0.5;stroke-linecap:butt;stroke-linejoin:miter;stroke-miterlimit:10;stroke-dasharray:none;stroke-opacity:1"
             d="m 0,0 -9.921,0 0,9.921 -7.866,0 0,-9.921 -9.922,0 0,-7.866 9.922,0 0,-9.921 7.866,0 0,9.921 9.921,0 L 0,0" /></g></g></g></g></svg>